{
copyright = "Copyright (c) 2015, Cadson Demak (info@cadsondemak.com)";
customParameters = (
{
name = vendorID;
value = CDK;
},
{
name = description;
value = "Copyright (c) 2015, Cadson Demak (info@cadsondemak.com)";
},
{
name = license;

glyphs = (
{
glyphname = A;
lastChange = "2015-10-12 09:09:53 +0000";
layers = (
{
layerId = "797EEC19-8AF9-42AE-A04D-6994BCC84E1F";
name = Bold;
paths = (
{
closed = 1;
nodes = (
"264 0 LINE",
"264 46 LINE",
"241 46 LINE SMOOTH",
"219 46 OFFCURVE",
"190 58 OFFCURVE",
"204 96 CURVE SMOOTH",
"364 517 LINE",
"519 92 LINE SMOOTH",
"530 61 OFFCURVE",
"519 46 OFFCURVE",
"486 46 CURVE SMOOTH",
"463 46 LINE",
"463 0 LINE",
"813 0 LINE",
"813 46 LINE",
"790 46 LINE SMOOTH",
"769 46 OFFCURVE",
"749 54 OFFCURVE",
"738 81 CURVE SMOOTH",
"473 726 LINE",
"327 677 LINE",
"89 84 LINE SMOOTH",
"78 57 OFFCURVE",
"47 46 OFFCURVE",
"21 46 CURVE SMOOTH",
"4 46 LINE",
"4 0 LINE"
);
},
{
closed = 1;
nodes = (
"545 177 LINE",
"545 243 LINE",
"203 243 LINE",
"203 177 LINE"
);
}
);
width = 817;
}
);
leftKerningGroup = A;
note = A;
rightKerningGroup = A;
unicode = 0041;
},
{
glyphname = Aacute;
lastChange = "2015-10-12 09:09:52 +0000";
layers = (
{
layerId = "797EEC19-8AF9-42AE-A04D-6994BCC84E1F";
name = Bold;
paths = (
{
closed = 1;
nodes = (
"264 0 LINE",
"264 46 LINE",
"241 46 LINE SMOOTH",
"219 46 OFFCURVE",
"190 58 OFFCURVE",
"204 96 CURVE SMOOTH",
"364 517 LINE",
"519 92 LINE SMOOTH",
"530 61 OFFCURVE",
"519 46 OFFCURVE",
"486 46 CURVE SMOOTH",
"463 46 LINE",
"463 0 LINE",
"813 0 LINE",
"813 46 LINE",
"790 46 LINE SMOOTH",
"769 46 OFFCURVE",
"749 54 OFFCURVE",
"738 81 CURVE SMOOTH",
"473 726 LINE",
"327 677 LINE",
"89 84 LINE SMOOTH",
"78 57 OFFCURVE",
"47 46 OFFCURVE",
"21 46 CURVE SMOOTH",
"4 46 LINE",
"4 0 LINE"
);
},
{
closed = 1;
nodes = (
"545 177 LINE",
"545 243 LINE",
"203 243 LINE",
"203 177 LINE"
);
},
{
closed = 1;
nodes = (
"484 873 LINE SMOOTH",
"521 895 OFFCURVE",
"543 917 OFFCURVE",
"543 945 CURVE SMOOTH",
"543 969 OFFCURVE",
"526 998 OFFCURVE",
"481 998 CURVE SMOOTH",
"442 998 OFFCURVE",
"413 964 OFFCURVE",
"407 957 CURVE",
"281 821 LINE",
"315 774 LINE"
);
}
);
width = 817;
}
);
leftKerningGroup = A;
note = Aacute;
rightKerningGroup = A;
unicode = 00C1;
},
{
glyphname = Abreve;
lastChange = "2015-10-12 09:09:53 +0000";
layers = (
{
layerId = "797EEC19-8AF9-42AE-A04D-6994BCC84E1F";
name = Bold;
paths = (
{
closed = 1;
nodes = (
"264 0 LINE",
"264 46 LINE",
"241 46 LINE SMOOTH",
"219 46 OFFCURVE",
"190 58 OFFCURVE",
"204 96 CURVE SMOOTH",
"364 517 LINE",
"519 92 LINE SMOOTH",
"530 61 OFFCURVE",
"519 46 OFFCURVE",
"486 46 CURVE SMOOTH",
"463 46 LINE",
"463 0 LINE",
"813 0 LINE",
"813 46 LINE",
"790 46 LINE SMOOTH",
"769 46 OFFCURVE",
"749 54 OFFCURVE",
"738 81 CURVE SMOOTH",
"473 726 LINE",
"327 677 LINE",
"89 84 LINE SMOOTH",
"78 57 OFFCURVE",
"47 46 OFFCURVE",
"21 46 CURVE SMOOTH",
"4 46 LINE",
"4 0 LINE"
);
},
{
closed = 1;
nodes = (
"545 177 LINE",
"545 243 LINE",
"203 243 LINE",
"203 177 LINE"
);
},
{
closed = 1;
nodes = (
"554 777 OFFCURVE",
"581 863 OFFCURVE",
"581 934 CURVE",
"536 934 LINE",
"534 906 OFFCURVE",
"512 856 OFFCURVE",
"410 856 CURVE SMOOTH",
"309 856 OFFCURVE",
"286 906 OFFCURVE",
"283 934 CURVE",
"239 934 LINE",
"240 858 OFFCURVE",
"267 777 OFFCURVE",
"411 777 CURVE SMOOTH"
);
}
);
width = 817;
}
);
leftKerningGroup = A;
note = Abreve;
rightKerningGroup = A;
unicode = 0102;
},
{
glyphname = Abreveacute;
lastChange = "2015-10-12 09:09:53 +0000";
layers = (
{
layerId = "797EEC19-8AF9-42AE-A04D-6994BCC84E1F";
name = Bold;
paths = (
{
closed = 1;
nodes = (
"264 0 LINE",
"264 46 LINE",
"241 46 LINE SMOOTH",
"219 46 OFFCURVE",
"190 58 OFFCURVE",
"204 96 CURVE SMOOTH",
"364 517 LINE",
"519 92 LINE SMOOTH",
"530 61 OFFCURVE",
"519 46 OFFCURVE",
"486 46 CURVE SMOOTH",
"463 46 LINE",
"463 0 LINE",
"813 0 LINE",
"813 46 LINE",
"790 46 LINE SMOOTH",
"769 46 OFFCURVE",
"749 54 OFFCURVE",
"738 81 CURVE SMOOTH",
"473 726 LINE",
"327 677 LINE",
"89 84 LINE SMOOTH",
"78 57 OFFCURVE",
"47 46 OFFCURVE",
"21 46 CURVE SMOOTH",
"4 46 LINE",
"4 0 LINE"
);
},
{
closed = 1;
nodes = (
"545 177 LINE",
"545 243 LINE",
"203 243 LINE",
"203 177 LINE"
);
},
{
closed = 1;
nodes = (
"553 775 OFFCURVE",
"580 862 OFFCURVE",
"580 932 CURVE",
"536 932 LINE",
"533 905 OFFCURVE",
"511 854 OFFCURVE",
"409 854 CURVE SMOOTH",
"307 854 OFFCURVE",
"285 905 OFFCURVE",
"283 932 CURVE",
"239 932 LINE",
"239 856 OFFCURVE",
"266 775 OFFCURVE",
"410 775 CURVE SMOOTH"
);
},
{
closed = 1;
nodes = (
"510 976 LINE SMOOTH",
"550 995 OFFCURVE",
"579 1022 OFFCURVE",
"579 1051 CURVE SMOOTH",
"579 1075 OFFCURVE",
"561 1107 OFFCURVE",
"518 1107 CURVE SMOOTH",
"482 1107 OFFCURVE",
"455 1077 OFFCURVE",
"440 1058 CURVE SMOOTH",
"362 961 LINE",
"394 920 LINE"
);
}
);
width = 817;
}
);
leftKerningGroup = A;
note = Abreveacute;
rightKerningGroup = A;
unicode = 1EAE;
},
{
glyphname = Abrevedotbelow;
lastChange = "2015-10-12 09:09:53 +0000";
layers = (
{
layerId = "797EEC19-8AF9-42AE-A04D-6994BCC84E1F";
name = Bold;
paths = (
{
closed = 1;
nodes = (
"264 0 LINE",
"264 46 LINE",
"241 46 LINE SMOOTH",
"219 46 OFFCURVE",
"190 58 OFFCURVE",
"204 96 CURVE SMOOTH",
"364 517 LINE",
"519 92 LINE SMOOTH",
"530 61 OFFCURVE",
"519 46 OFFCURVE",
"486 46 CURVE SMOOTH",
"463 46 LINE",
"463 0 LINE",
"813 0 LINE",
"813 46 LINE",
"790 46 LINE SMOOTH",
"769 46 OFFCURVE",
"749 54 OFFCURVE",
"738 81 CURVE SMOOTH",
"473 726 LINE",
"327 677 LINE",
"89 84 LINE SMOOTH",
"78 57 OFFCURVE",
"47 46 OFFCURVE",
"21 46 CURVE SMOOTH",
"4 46 LINE",
"4 0 LINE"
);
},
{
closed = 1;
nodes = (
"451 -211 OFFCURVE",
"479 -179 OFFCURVE",
"479 -138 CURVE SMOOTH",
"479 -98 OFFCURVE",
"451 -64 OFFCURVE",
"406 -64 CURVE SMOOTH",
"361 -64 OFFCURVE",
"333 -98 OFFCURVE",
"333 -138 CURVE SMOOTH",
"333 -179 OFFCURVE",
"361 -211 OFFCURVE",
"406 -211 CURVE SMOOTH"
);
},
{
closed = 1;
nodes = (
"545 177 LINE",
"545 243 LINE",
"203 243 LINE",
"203 177 LINE"
);
},
{
closed = 1;
nodes = (
"553 775 OFFCURVE",
"580 861 OFFCURVE",
"580 932 CURVE",
"535 932 LINE",
"533 904 OFFCURVE",
"511 854 OFFCURVE",
"409 854 CURVE SMOOTH",
"308 854 OFFCURVE",
"285 904 OFFCURVE",
"282 932 CURVE",
"238 932 LINE",
"239 856 OFFCURVE",
"266 775 OFFCURVE",
"410 775 CURVE SMOOTH"
);
}
);
width = 817;
}
);
leftKerningGroup = A;
note = Abrevedotbelow;
rightKerningGroup = A;
unicode = 1EB6;
},
{
glyphname = Abrevegrave;
lastChange = "2015-10-12 09:09:53 +0000";
layers = (
{
layerId = "797EEC19-8AF9-42AE-A04D-6994BCC84E1F";
name = Bold;
paths = (
{
closed = 1;
nodes = (
"264 0 LINE",
"264 46 LINE",
"241 46 LINE SMOOTH",
"219 46 OFFCURVE",
"190 58 OFFCURVE",
"204 96 CURVE SMOOTH",
"364 517 LINE",
"519 92 LINE SMOOTH",
"530 61 OFFCURVE",
"519 46 OFFCURVE",
"486 46 CURVE SMOOTH",
"463 46 LINE",
"463 0 LINE",
"813 0 LINE",
"813 46 LINE",
"790 46 LINE SMOOTH",
"769 46 OFFCURVE",
"749 54 OFFCURVE",
"738 81 CURVE SMOOTH",
"473 726 LINE",
"327 677 LINE",
"89 84 LINE SMOOTH",
"78 57 OFFCURVE",
"47 46 OFFCURVE",
"21 46 CURVE SMOOTH",
"4 46 LINE",
"4 0 LINE"
);
},
{
closed = 1;
nodes = (
"545 177 LINE",
"545 243 LINE",
"203 243 LINE",
"203 177 LINE"
);
},
{
closed = 1;
nodes = (
"553 775 OFFCURVE",
"580 862 OFFCURVE",
"580 932 CURVE",
"536 932 LINE",
"533 905 OFFCURVE",
"511 854 OFFCURVE",
"409 854 CURVE SMOOTH",
"307 854 OFFCURVE",
"285 905 OFFCURVE",
"283 932 CURVE",
"239 932 LINE",
"239 856 OFFCURVE",
"266 775 OFFCURVE",
"410 775 CURVE SMOOTH"
);
},
{
closed = 1;
nodes = (
"459 960 LINE",
"378 1059 LINE SMOOTH",
"363 1077 OFFCURVE",
"337 1107 OFFCURVE",
"303 1107 CURVE SMOOTH",
"258 1107 OFFCURVE",
"241 1073 OFFCURVE",
"241 1051 CURVE SMOOTH",
"241 1022 OFFCURVE",
"267 997 OFFCURVE",
"308 977 CURVE SMOOTH",
"426 919 LINE"
);
}
);
width = 817;
}
);
leftKerningGroup = A;
note = Abrevegrave;
rightKerningGroup = A;
unicode = 1EB0;
},
{
glyphname = Abrevehookabove;
lastChange = "2015-10-12 09:09:53 +0000";
layers = (
{
layerId = "797EEC19-8AF9-42AE-A04D-6994BCC84E1F";
name = Bold;
paths = (
{
closed = 1;
nodes = (
"264 0 LINE",
"264 46 LINE",
"241 46 LINE SMOOTH",
"219 46 OFFCURVE",
"190 58 OFFCURVE",
"204 96 CURVE SMOOTH",
"364 517 LINE",
"519 92 LINE SMOOTH",
"530 61 OFFCURVE",
"519 46 OFFCURVE",
"486 46 CURVE SMOOTH",
"463 46 LINE",
"463 0 LINE",
"813 0 LINE",
"813 46 LINE",
"790 46 LINE SMOOTH",
"769 46 OFFCURVE",
"749 54 OFFCURVE",
"738 81 CURVE SMOOTH",
"473 726 LINE",
"327 677 LINE",
"89 84 LINE SMOOTH",
"78 57 OFFCURVE",
"47 46 OFFCURVE",
"21 46 CURVE SMOOTH",
"4 46 LINE",
"4 0 LINE"
);
},
{
closed = 1;
nodes = (
"545 177 LINE",
"545 243 LINE",
"203 243 LINE",
"203 177 LINE"
);
},
{
closed = 1;
nodes = (
"553 775 OFFCURVE",
"580 862 OFFCURVE",
"580 932 CURVE",
"536 932 LINE",
"533 905 OFFCURVE",
"511 854 OFFCURVE",
"409 854 CURVE SMOOTH",
"307 854 OFFCURVE",
"285 905 OFFCURVE",
"283 932 CURVE",
"239 932 LINE",
"239 856 OFFCURVE",
"266 775 OFFCURVE",
"410 775 CURVE SMOOTH"
);
},
{
closed = 1;
nodes = (
"448 945 LINE",
"436 946 OFFCURVE",
"422 949 OFFCURVE",
"422 969 CURVE SMOOTH",
"422 1010 OFFCURVE",
"525 1016 OFFCURVE",
"525 1076 CURVE SMOOTH",
"525 1121 OFFCURVE",
"474 1142 OFFCURVE",
"419 1142 CURVE SMOOTH",
"341 1142 OFFCURVE",
"315 1108 OFFCURVE",
"315 1087 CURVE SMOOTH",
"315 1064 OFFCURVE",
"333 1055 OFFCURVE",
"349 1055 CURVE SMOOTH",
"365 1055 OFFCURVE",
"381 1064 OFFCURVE",
"381 1080 CURVE",
"382 1105 OFFCURVE",
"402 1113 OFFCURVE",
"418 1113 CURVE SMOOTH",
"438 1113 OFFCURVE",
"447 1097 OFFCURVE",
"447 1083 CURVE SMOOTH",
"447 1027 OFFCURVE",
"363 1017 OFFCURVE",
"363 969 CURVE SMOOTH",
"363 939 OFFCURVE",
"399 922 OFFCURVE",
"440 922 CURVE"
);
}
);
width = 817;
}
);
leftKerningGroup = A;
note = Abrevehookabove;
rightKerningGroup = A;
unicode = 1EB2;
},
{
glyphname = Abrevetilde;
lastChange = "2015-10-12 09:09:52 +0000";
layers = (
{
layerId = "797EEC19-8AF9-42AE-A04D-6994BCC84E1F";
name = Bold;
paths = (
{
closed = 1;
nodes = (
"264 0 LINE",
"264 46 LINE",
"241 46 LINE SMOOTH",
"219 46 OFFCURVE",
"190 58 OFFCURVE",
"204 96 CURVE SMOOTH",
"364 517 LINE",
"519 92 LINE SMOOTH",
"530 61 OFFCURVE",
"519 46 OFFCURVE",
"486 46 CURVE SMOOTH",
"463 46 LINE",
"463 0 LINE",
"813 0 LINE",
"813 46 LINE",
"790 46 LINE SMOOTH",
"769 46 OFFCURVE",
"749 54 OFFCURVE",
"738 81 CURVE SMOOTH",
"473 726 LINE",
"327 677 LINE",
"89 84 LINE SMOOTH",
"78 57 OFFCURVE",
"47 46 OFFCURVE",
"21 46 CURVE SMOOTH",
"4 46 LINE",
"4 0 LINE"
);
},
{
closed = 1;
nodes = (
"545 177 LINE",
"545 243 LINE",
"203 243 LINE",
"203 177 LINE"
);
},
{
closed = 1;
nodes = (
"553 775 OFFCURVE",
"580 862 OFFCURVE",
"580 932 CURVE",
"536 932 LINE",
"533 905 OFFCURVE",
"511 854 OFFCURVE",
"409 854 CURVE SMOOTH",
"307 854 OFFCURVE",
"285 905 OFFCURVE",
"283 932 CURVE",
"239 932 LINE",
"239 856 OFFCURVE",
"266 775 OFFCURVE",
"410 775 CURVE SMOOTH"
);
},
{
closed = 1;
nodes = (
"272 1022 OFFCURVE",
"285 1039 OFFCURVE",
"317 1039 CURVE SMOOTH",
"371 1039 OFFCURVE",
"418 994 OFFCURVE",
"471 994 CURVE SMOOTH",
"538 994 OFFCURVE",
"568 1074 OFFCURVE",
"582 1119 CURVE",
"556 1137 LINE",
"537 1096 OFFCURVE",
"525 1079 OFFCURVE",
"493 1079 CURVE SMOOTH",
"439 1079 OFFCURVE",
"391 1124 OFFCURVE",
"339 1124 CURVE SMOOTH",
"272 1124 OFFCURVE",
"242 1045 OFFCURVE",
"227 1000 CURVE",
"254 982 LINE"
);
}
);
width = 817;
}
);
leftKerningGroup = A;
note = Abrevetilde;
rightKerningGroup = A;
unicode = 1EB4;
},
{
glyphname = Acaron;
lastChange = "2015-10-12 09:09:53 +0000";
layers = (
{
layerId = "797EEC19-8AF9-42AE-A04D-6994BCC84E1F";
name = Bold;
paths = (
{
closed = 1;
nodes = (
"264 0 LINE",
"264 46 LINE",
"241 46 LINE SMOOTH",
"219 46 OFFCURVE",
"190 58 OFFCURVE",
"204 96 CURVE SMOOTH",
"364 517 LINE",
"519 92 LINE SMOOTH",
"530 61 OFFCURVE",
"519 46 OFFCURVE",
"486 46 CURVE SMOOTH",
"463 46 LINE",
"463 0 LINE",
"813 0 LINE",
"813 46 LINE",
"790 46 LINE SMOOTH",
"769 46 OFFCURVE",
"749 54 OFFCURVE",
"738 81 CURVE SMOOTH",
"473 726 LINE",
"327 677 LINE",
"89 84 LINE SMOOTH",
"78 57 OFFCURVE",
"47 46 OFFCURVE",
"21 46 CURVE SMOOTH",
"4 46 LINE",
"4 0 LINE"
);
},
{
closed = 1;
nodes = (
"545 177 LINE",
"545 243 LINE",
"203 243 LINE",
"203 177 LINE"
);
},
{
closed = 1;
nodes = (
"459 775 LINE",
"619 955 LINE",
"592 984 LINE",
"454 882 LINE SMOOTH",
"438 870 OFFCURVE",
"423 862 OFFCURVE",
"412 862 CURVE SMOOTH",
"401 862 OFFCURVE",
"386 870 OFFCURVE",
"370 882 CURVE SMOOTH",
"231 984 LINE",
"204 955 LINE",
"365 775 LINE"
);
}
);
width = 817;
}
);
leftKerningGroup = A;
note = Acaron;
rightKerningGroup = A;
unicode = 01CD;
},
{
glyphname = Acircumflex;
lastChange = "2015-10-12 09:09:53 +0000";
layers = (
{
layerId = "797EEC19-8AF9-42AE-A04D-6994BCC84E1F";
name = Bold;
paths = (
{
closed = 1;
nodes = (
"264 0 LINE",
"264 46 LINE",
"241 46 LINE SMOOTH",
"219 46 OFFCURVE",
"190 58 OFFCURVE",
"204 96 CURVE SMOOTH",
"364 517 LINE",
"519 92 LINE SMOOTH",
"530 61 OFFCURVE",
"519 46 OFFCURVE",
"486 46 CURVE SMOOTH",
"463 46 LINE",
"463 0 LINE",
"813 0 LINE",
"813 46 LINE",
"790 46 LINE SMOOTH",
"769 46 OFFCURVE",
"749 54 OFFCURVE",
"738 81 CURVE SMOOTH",
"473 726 LINE",
"327 677 LINE",
"89 84 LINE SMOOTH",
"78 57 OFFCURVE",
"47 46 OFFCURVE",
"21 46 CURVE SMOOTH",
"4 46 LINE",
"4 0 LINE"
);
},
{
closed = 1;
nodes = (
"545 177 LINE",
"545 243 LINE",
"203 243 LINE",
"203 177 LINE"
);
},
{
closed = 1;
nodes = (
"370 877 LINE SMOOTH",
"386 889 OFFCURVE",
"401 897 OFFCURVE",
"412 897 CURVE SMOOTH",
"423 897 OFFCURVE",
"438 889 OFFCURVE",
"454 877 CURVE SMOOTH",
"592 775 LINE",
"619 804 LINE",
"459 984 LINE",
"365 984 LINE",
"204 804 LINE",
"231 775 LINE"
);
}
);
width = 817;
}
);
leftKerningGroup = A;
note = Acircumflex;
rightKerningGroup = A;
unicode = 00C2;
},
{
glyphname = Acircumflexacute;
lastChange = "2015-10-12 09:09:52 +0000";
layers = (
{
layerId = "797EEC19-8AF9-42AE-A04D-6994BCC84E1F";
name = Bold;
paths = (
{
closed = 1;
nodes = (
"264 0 LINE",
"264 46 LINE",
"241 46 LINE SMOOTH",
"219 46 OFFCURVE",
"190 58 OFFCURVE",
"204 96 CURVE SMOOTH",
"364 517 LINE",
"519 92 LINE SMOOTH",
"530 61 OFFCURVE",
"519 46 OFFCURVE",
"486 46 CURVE SMOOTH",
"463 46 LINE",
"463 0 LINE",
"813 0 LINE",
"813 46 LINE",
"790 46 LINE SMOOTH",
"769 46 OFFCURVE",
"749 54 OFFCURVE",
"738 81 CURVE SMOOTH",
"473 726 LINE",
"327 677 LINE",
"89 84 LINE SMOOTH",
"78 57 OFFCURVE",
"47 46 OFFCURVE",
"21 46 CURVE SMOOTH",
"4 46 LINE",
"4 0 LINE"
);
},
{
closed = 1;
nodes = (
"545 177 LINE",
"545 243 LINE",
"203 243 LINE",
"203 177 LINE"
);
},
{
closed = 1;
nodes = (
"375 875 LINE SMOOTH",
"390 887 OFFCURVE",
"405 896 OFFCURVE",
"416 896 CURVE SMOOTH",
"427 896 OFFCURVE",
"441 887 OFFCURVE",
"457 875 CURVE SMOOTH",
"590 774 LINE",
"615 804 LINE",
"462 983 LINE",
"370 983 LINE",
"216 804 LINE",
"242 774 LINE"
);
},
{
closed = 1;
nodes = (
"682 972 LINE SMOOTH",
"722 992 OFFCURVE",
"751 1018 OFFCURVE",
"751 1047 CURVE SMOOTH",
"751 1071 OFFCURVE",
"733 1103 OFFCURVE",
"690 1103 CURVE SMOOTH",
"654 1103 OFFCURVE",
"627 1073 OFFCURVE",
"612 1054 CURVE SMOOTH",
"534 957 LINE",
"566 916 LINE"
);
}
);
width = 817;
}
);
leftKerningGroup = A;
note = Acircumflexacute;
rightKerningGroup = A;
unicode = 1EA4;
},
{
glyphname = Acircumflexdotbelow;
lastChange = "2015-10-12 09:09:52 +0000";
layers = (
{
layerId = "797EEC19-8AF9-42AE-A04D-6994BCC84E1F";
name = Bold;
paths = (
{
closed = 1;
nodes = (
"264 0 LINE",
"264 46 LINE",
"241 46 LINE SMOOTH",
"219 46 OFFCURVE",
"190 58 OFFCURVE",
"204 96 CURVE SMOOTH",
"364 517 LINE",
"519 92 LINE SMOOTH",
"530 61 OFFCURVE",
"519 46 OFFCURVE",
"486 46 CURVE SMOOTH",
"463 46 LINE",
"463 0 LINE",
"813 0 LINE",
"813 46 LINE",
"790 46 LINE SMOOTH",
"769 46 OFFCURVE",
"749 54 OFFCURVE",
"738 81 CURVE SMOOTH",
"473 726 LINE",
"327 677 LINE",
"89 84 LINE SMOOTH",
"78 57 OFFCURVE",
"47 46 OFFCURVE",
"21 46 CURVE SMOOTH",
"4 46 LINE",
"4 0 LINE"
);
},
{
closed = 1;
nodes = (
"461 -211 OFFCURVE",
"489 -179 OFFCURVE",
"489 -138 CURVE SMOOTH",
"489 -98 OFFCURVE",
"461 -64 OFFCURVE",
"416 -64 CURVE SMOOTH",
"371 -64 OFFCURVE",
"343 -98 OFFCURVE",
"343 -138 CURVE SMOOTH",
"343 -179 OFFCURVE",
"371 -211 OFFCURVE",
"416 -211 CURVE SMOOTH"
);
},
{
closed = 1;
nodes = (
"545 177 LINE",
"545 243 LINE",
"203 243 LINE",
"203 177 LINE"
);
},
{
closed = 1;
nodes = (
"372 876 LINE SMOOTH",
"388 888 OFFCURVE",
"403 896 OFFCURVE",
"414 896 CURVE SMOOTH",
"425 896 OFFCURVE",
"440 888 OFFCURVE",
"456 876 CURVE SMOOTH",
"594 774 LINE",
"621 803 LINE",
"461 983 LINE",
"367 983 LINE",
"206 803 LINE",
"233 774 LINE"
);
}
);
width = 817;
}
);
leftKerningGroup = A;
note = Acircumflexdotbelow;
rightKerningGroup = A;
unicode = 1EAC;
},
{
glyphname = Acircumflexgrave;
lastChange = "2015-10-12 09:09:52 +0000";
layers = (
{
layerId = "797EEC19-8AF9-42AE-A04D-6994BCC84E1F";
name = Bold;
paths = (
{
closed = 1;
nodes = (
"264 0 LINE",
"264 46 LINE",
"241 46 LINE SMOOTH",
"219 46 OFFCURVE",
"190 58 OFFCURVE",
"204 96 CURVE SMOOTH",
"364 517 LINE",
"519 92 LINE SMOOTH",
"530 61 OFFCURVE",
"519 46 OFFCURVE",
"486 46 CURVE SMOOTH",
"463 46 LINE",
"463 0 LINE",
"813 0 LINE",
"813 46 LINE",
"790 46 LINE SMOOTH",
"769 46 OFFCURVE",
"749 54 OFFCURVE",
"738 81 CURVE SMOOTH",
"473 726 LINE",
"327 677 LINE",
"89 84 LINE SMOOTH",
"78 57 OFFCURVE",
"47 46 OFFCURVE",
"21 46 CURVE SMOOTH",
"4 46 LINE",
"4 0 LINE"
);
},
{
closed = 1;
nodes = (
"545 177 LINE",
"545 243 LINE",
"203 243 LINE",
"203 177 LINE"
);
},
{
closed = 1;
nodes = (
"298 957 LINE",
"218 1056 LINE SMOOTH",
"203 1074 OFFCURVE",
"177 1104 OFFCURVE",
"143 1104 CURVE SMOOTH",
"98 1104 OFFCURVE",
"81 1070 OFFCURVE",
"81 1048 CURVE SMOOTH",
"81 1019 OFFCURVE",
"107 994 OFFCURVE",
"148 974 CURVE SMOOTH",
"266 916 LINE"
);
},
{
closed = 1;
nodes = (
"375 875 LINE SMOOTH",
"390 887 OFFCURVE",
"405 896 OFFCURVE",
"416 896 CURVE SMOOTH",
"427 896 OFFCURVE",
"441 887 OFFCURVE",
"457 875 CURVE SMOOTH",
"590 774 LINE",
"615 804 LINE",
"462 983 LINE",
"370 983 LINE",
"216 804 LINE",
"242 774 LINE"
);
}
);
width = 817;
}
);
leftKerningGroup = A;
note = Acircumflexgrave;
rightKerningGroup = A;
unicode = 1EA6;
},
{
glyphname = Acircumflexhookabove;
lastChange = "2015-10-12 09:09:52 +0000";
layers = (
{
layerId = "797EEC19-8AF9-42AE-A04D-6994BCC84E1F";
name = Bold;
paths = (
{
closed = 1;
nodes = (
"264 0 LINE",
"264 46 LINE",
"241 46 LINE SMOOTH",
"219 46 OFFCURVE",
"190 58 OFFCURVE",
"204 96 CURVE SMOOTH",
"364 517 LINE",
"519 92 LINE SMOOTH",
"530 61 OFFCURVE",
"519 46 OFFCURVE",
"486 46 CURVE SMOOTH",
"463 46 LINE",
"463 0 LINE",
"813 0 LINE",
"813 46 LINE",
"790 46 LINE SMOOTH",
"769 46 OFFCURVE",
"749 54 OFFCURVE",
"738 81 CURVE SMOOTH",
"473 726 LINE",
"327 677 LINE",
"89 84 LINE SMOOTH",
"78 57 OFFCURVE",
"47 46 OFFCURVE",
"21 46 CURVE SMOOTH",
"4 46 LINE",
"4 0 LINE"
);
},
{
closed = 1;
nodes = (
"545 177 LINE",
"545 243 LINE",
"203 243 LINE",
"203 177 LINE"
);
},
{
closed = 1;
nodes = (
"375 874 LINE SMOOTH",
"390 886 OFFCURVE",
"405 895 OFFCURVE",
"416 895 CURVE SMOOTH",
"427 895 OFFCURVE",
"441 886 OFFCURVE",
"457 874 CURVE SMOOTH",
"590 774 LINE",
"615 803 LINE",
"462 983 LINE",
"370 983 LINE",
"216 803 LINE",
"242 774 LINE"
);
},
{
closed = 1;
nodes = (
"625 941 LINE",
"613 942 OFFCURVE",
"600 945 OFFCURVE",
"600 964 CURVE SMOOTH",
"600 1006 OFFCURVE",
"703 1012 OFFCURVE",
"703 1072 CURVE SMOOTH",
"703 1117 OFFCURVE",
"652 1138 OFFCURVE",
"596 1138 CURVE SMOOTH",
"519 1138 OFFCURVE",
"493 1104 OFFCURVE",
"493 1083 CURVE SMOOTH",
"493 1060 OFFCURVE",
"510 1050 OFFCURVE",
"526 1050 CURVE SMOOTH",
"570 1050 OFFCURVE",
"550 1109 OFFCURVE",
"595 1109 CURVE SMOOTH",
"615 1109 OFFCURVE",
"624 1092 OFFCURVE",
"624 1079 CURVE SMOOTH",
"624 1023 OFFCURVE",
"540 1012 OFFCURVE",
"540 965 CURVE SMOOTH",
"540 935 OFFCURVE",
"576 918 OFFCURVE",
"618 918 CURVE"
);
}
);
width = 817;
}
);
leftKerningGroup = A;
note = Acircumflexhookabove;
rightKerningGroup = A;
unicode = 1EA8;
},
{
glyphname = Acircumflextilde;
lastChange = "2015-10-12 09:09:52 +0000";
layers = (
{
layerId = "797EEC19-8AF9-42AE-A04D-6994BCC84E1F";
name = Bold;
paths = (
{
closed = 1;
nodes = (
"264 0 LINE",
"264 46 LINE",
"241 46 LINE SMOOTH",
"219 46 OFFCURVE",
"190 58 OFFCURVE",
"204 96 CURVE SMOOTH",
"364 517 LINE",
"519 92 LINE SMOOTH",
"530 61 OFFCURVE",
"519 46 OFFCURVE",
"486 46 CURVE SMOOTH",
"463 46 LINE",
"463 0 LINE",
"813 0 LINE",
"813 46 LINE",
"790 46 LINE SMOOTH",
"769 46 OFFCURVE",
"749 54 OFFCURVE",
"738 81 CURVE SMOOTH",
"473 726 LINE",
"327 677 LINE",
"89 84 LINE SMOOTH",
"78 57 OFFCURVE",
"47 46 OFFCURVE",
"21 46 CURVE SMOOTH",
"4 46 LINE",
"4 0 LINE"
);
},
{
closed = 1;
nodes = (
"545 177 LINE",
"545 243 LINE",
"203 243 LINE",
"203 177 LINE"
);
},
{
closed = 1;
nodes = (
"375 874 LINE SMOOTH",
"390 886 OFFCURVE",
"405 895 OFFCURVE",
"416 895 CURVE SMOOTH",
"427 895 OFFCURVE",
"441 886 OFFCURVE",
"457 874 CURVE SMOOTH",
"590 774 LINE",
"615 803 LINE",
"462 983 LINE",
"370 983 LINE",
"216 803 LINE",
"242 774 LINE"
);
},
{
closed = 1;
nodes = (
"269 1037 OFFCURVE",
"284 1055 OFFCURVE",
"319 1055 CURVE SMOOTH",
"378 1055 OFFCURVE",
"430 1010 OFFCURVE",
"487 1010 CURVE SMOOTH",
"561 1010 OFFCURVE",
"594 1089 OFFCURVE",
"610 1134 CURVE",
"581 1152 LINE",
"561 1111 OFFCURVE",
"547 1095 OFFCURVE",
"512 1095 CURVE SMOOTH",
"453 1095 OFFCURVE",
"400 1139 OFFCURVE",
"343 1139 CURVE SMOOTH",
"269 1139 OFFCURVE",
"236 1060 OFFCURVE",
"220 1016 CURVE",
"250 997 LINE"
);
}
);
width = 817;
}
);
leftKerningGroup = A;
note = Acircumflextilde;
rightKerningGroup = A;
unicode = 1EAA;
},
{
glyphname = Adieresis;
lastChange = "2015-10-12 09:09:53 +0000";
layers = (
{
layerId = "797EEC19-8AF9-42AE-A04D-6994BCC84E1F";
name = Bold;
paths = (
{
closed = 1;
nodes = (
"264 0 LINE",
"264 46 LINE",
"241 46 LINE SMOOTH",
"219 46 OFFCURVE",
"190 58 OFFCURVE",
"204 96 CURVE SMOOTH",
"364 517 LINE",
"519 92 LINE SMOOTH",
"530 61 OFFCURVE",
"519 46 OFFCURVE",
"486 46 CURVE SMOOTH",
"463 46 LINE",
"463 0 LINE",
"813 0 LINE",
"813 46 LINE",
"790 46 LINE SMOOTH",
"769 46 OFFCURVE",
"749 54 OFFCURVE",
"738 81 CURVE SMOOTH",
"473 726 LINE",
"327 677 LINE",
"89 84 LINE SMOOTH",
"78 57 OFFCURVE",
"47 46 OFFCURVE",
"21 46 CURVE SMOOTH",
"4 46 LINE",
"4 0 LINE"
);
},
{
closed = 1;
nodes = (
"545 177 LINE",
"545 243 LINE",
"203 243 LINE",
"203 177 LINE"
);
},
{
closed = 1;
nodes = (
"314 775 OFFCURVE",
"342 807 OFFCURVE",
"342 847 CURVE SMOOTH",
"342 888 OFFCURVE",
"314 921 OFFCURVE",
"268 921 CURVE SMOOTH",
"223 921 OFFCURVE",
"196 888 OFFCURVE",
"196 847 CURVE SMOOTH",
"196 807 OFFCURVE",
"223 775 OFFCURVE",
"268 775 CURVE SMOOTH"
);
},
{
closed = 1;
nodes = (
"559 775 OFFCURVE",
"587 807 OFFCURVE",
"587 847 CURVE SMOOTH",
"587 888 OFFCURVE",
"559 921 OFFCURVE",
"514 921 CURVE SMOOTH",
"468 921 OFFCURVE",
"441 888 OFFCURVE",
"441 847 CURVE SMOOTH",
"441 807 OFFCURVE",
"468 775 OFFCURVE",
"514 775 CURVE SMOOTH"
);
}
);
width = 817;
}
);
leftKerningGroup = A;
note = Adieresis;
rightKerningGroup = A;
unicode = 00C4;
},
{
glyphname = Adotbelow;
lastChange = "2015-10-12 09:09:53 +0000";
layers = (
{
layerId = "797EEC19-8AF9-42AE-A04D-6994BCC84E1F";
name = Bold;
paths = (
{
closed = 1;
nodes = (
"264 0 LINE",
"264 46 LINE",
"241 46 LINE SMOOTH",
"219 46 OFFCURVE",
"190 58 OFFCURVE",
"204 96 CURVE SMOOTH",
"364 517 LINE",
"519 92 LINE SMOOTH",
"530 61 OFFCURVE",
"519 46 OFFCURVE",
"486 46 CURVE SMOOTH",
"463 46 LINE",
"463 0 LINE",
"813 0 LINE",
"813 46 LINE",
"790 46 LINE SMOOTH",
"769 46 OFFCURVE",
"749 54 OFFCURVE",
"738 81 CURVE SMOOTH",
"473 726 LINE",
"327 677 LINE",
"89 84 LINE SMOOTH",
"78 57 OFFCURVE",
"47 46 OFFCURVE",
"21 46 CURVE SMOOTH",
"4 46 LINE",
"4 0 LINE"
);
},
{
closed = 1;
nodes = (
"458 -211 OFFCURVE",
"486 -179 OFFCURVE",
"486 -138 CURVE SMOOTH",
"486 -98 OFFCURVE",
"458 -64 OFFCURVE",
"413 -64 CURVE SMOOTH",
"368 -64 OFFCURVE",
"340 -98 OFFCURVE",
"340 -138 CURVE SMOOTH",
"340 -179 OFFCURVE",
"368 -211 OFFCURVE",
"413 -211 CURVE SMOOTH"
);
},
{
closed = 1;
nodes = (
"545 177 LINE",
"545 243 LINE",
"203 243 LINE",
"203 177 LINE"
);
}
);
width = 817;
}
);
leftKerningGroup = A;
note = Adotbelow;
rightKerningGroup = A;
unicode = 1EA0;
},
{
glyphname = Agrave;
lastChange = "2015-10-12 09:09:53 +0000";
layers = (
{
layerId = "797EEC19-8AF9-42AE-A04D-6994BCC84E1F";
name = Bold;
paths = (
{
closed = 1;
nodes = (
"264 0 LINE",
"264 46 LINE",
"241 46 LINE SMOOTH",
"219 46 OFFCURVE",
"190 58 OFFCURVE",
"204 96 CURVE SMOOTH",
"364 517 LINE",
"519 92 LINE SMOOTH",
"530 61 OFFCURVE",
"519 46 OFFCURVE",
"486 46 CURVE SMOOTH",
"463 46 LINE",
"463 0 LINE",
"813 0 LINE",
"813 46 LINE",
"790 46 LINE SMOOTH",
"769 46 OFFCURVE",
"749 54 OFFCURVE",
"738 81 CURVE SMOOTH",
"473 726 LINE",
"327 677 LINE",
"89 84 LINE SMOOTH",
"78 57 OFFCURVE",
"47 46 OFFCURVE",
"21 46 CURVE SMOOTH",
"4 46 LINE",
"4 0 LINE"
);
},
{
closed = 1;
nodes = (
"545 177 LINE",
"545 243 LINE",
"203 243 LINE",
"203 177 LINE"
);
},
{
closed = 1;
nodes = (
"545 821 LINE",
"420 957 LINE",
"413 964 OFFCURVE",
"383 998 OFFCURVE",
"344 998 CURVE SMOOTH",
"300 998 OFFCURVE",
"283 969 OFFCURVE",
"283 946 CURVE SMOOTH",
"283 917 OFFCURVE",
"304 895 OFFCURVE",
"341 873 CURVE SMOOTH",
"511 774 LINE"
);
}
);
width = 817;
}
);
leftKerningGroup = A;
note = Agrave;
rightKerningGroup = A;
unicode = 00C0;
},
{
glyphname = Ahookabove;
lastChange = "2015-10-12 09:09:53 +0000";
layers = (
{
layerId = "797EEC19-8AF9-42AE-A04D-6994BCC84E1F";
name = Bold;
paths = (
{
closed = 1;
nodes = (
"264 0 LINE",
"264 46 LINE",
"241 46 LINE SMOOTH",
"219 46 OFFCURVE",
"190 58 OFFCURVE",
"204 96 CURVE SMOOTH",
"364 517 LINE",
"519 92 LINE SMOOTH",
"530 61 OFFCURVE",
"519 46 OFFCURVE",
"486 46 CURVE SMOOTH",
"463 46 LINE",
"463 0 LINE",
"813 0 LINE",
"813 46 LINE",
"790 46 LINE SMOOTH",
"769 46 OFFCURVE",
"749 54 OFFCURVE",
"738 81 CURVE SMOOTH",
"473 726 LINE",
"327 677 LINE",
"89 84 LINE SMOOTH",
"78 57 OFFCURVE",
"47 46 OFFCURVE",
"21 46 CURVE SMOOTH",
"4 46 LINE",
"4 0 LINE"
);
},
{
closed = 1;
nodes = (
"545 177 LINE",
"545 243 LINE",
"203 243 LINE",
"203 177 LINE"
);
},
{
closed = 1;
nodes = (
"468 801 LINE",
"455 802 OFFCURVE",
"439 805 OFFCURVE",
"439 827 CURVE SMOOTH",
"439 875 OFFCURVE",
"558 882 OFFCURVE",
"558 952 CURVE SMOOTH",
"558 1005 OFFCURVE",
"500 1030 OFFCURVE",
"436 1030 CURVE SMOOTH",
"344 1030 OFFCURVE",
"316 989 OFFCURVE",
"316 964 CURVE SMOOTH",
"316 938 OFFCURVE",
"335 927 OFFCURVE",
"354 927 CURVE SMOOTH",
"375 927 OFFCURVE",
"391 940 OFFCURVE",
"392 958 CURVE",
"392 987 OFFCURVE",
"417 994 OFFCURVE",
"434 994 CURVE SMOOTH",
"457 994 OFFCURVE",
"467 977 OFFCURVE",
"467 960 CURVE SMOOTH",
"467 896 OFFCURVE",
"371 883 OFFCURVE",
"371 829 CURVE SMOOTH",
"371 794 OFFCURVE",
"412 775 OFFCURVE",
"460 775 CURVE"
);
}
);
width = 817;
}
);
leftKerningGroup = A;
note = Ahookabove;
rightKerningGroup = A;
unicode = 1EA2;
},
{
glyphname = Amacron;
lastChange = "2015-10-12 09:09:52 +0000";
layers = (
{
layerId = "797EEC19-8AF9-42AE-A04D-6994BCC84E1F";
name = Bold;
paths = (
{
closed = 1;
nodes = (
"264 0 LINE",
"264 46 LINE",
"241 46 LINE SMOOTH",
"219 46 OFFCURVE",
"190 58 OFFCURVE",
"204 96 CURVE SMOOTH",
"364 517 LINE",
"519 92 LINE SMOOTH",
"530 61 OFFCURVE",
"519 46 OFFCURVE",
"486 46 CURVE SMOOTH",
"463 46 LINE",
"463 0 LINE",
"813 0 LINE",
"813 46 LINE",
"790 46 LINE SMOOTH",
"769 46 OFFCURVE",
"749 54 OFFCURVE",
"738 81 CURVE SMOOTH",
"473 726 LINE",
"327 677 LINE",
"89 84 LINE SMOOTH",
"78 57 OFFCURVE",
"47 46 OFFCURVE",
"21 46 CURVE SMOOTH",
"4 46 LINE",
"4 0 LINE"
);
},
{
closed = 1;
nodes = (
"545 177 LINE",
"545 243 LINE",
"203 243 LINE",
"203 177 LINE"
);
},
{
closed = 1;
nodes = (
"625 775 LINE",
"625 847 LINE",
"205 847 LINE",
"205 775 LINE"
);
}
);
width = 817;
}
);
leftKerningGroup = A;
note = Amacron;
rightKerningGroup = A;
unicode = 0100;
},
{
glyphname = Aogonek;
lastChange = "2015-10-12 09:09:52 +0000";
layers = (
{
layerId = "797EEC19-8AF9-42AE-A04D-6994BCC84E1F";
name = Bold;
paths = (
{
closed = 1;
nodes = (
"264 0 LINE",
"264 46 LINE",
"241 46 LINE SMOOTH",
"219 46 OFFCURVE",
"190 58 OFFCURVE",
"204 96 CURVE SMOOTH",
"364 517 LINE",
"519 92 LINE SMOOTH",
"530 61 OFFCURVE",
"519 46 OFFCURVE",
"486 46 CURVE SMOOTH",
"463 46 LINE",
"463 0 LINE",
"813 0 LINE",
"813 46 LINE",
"790 46 LINE SMOOTH",
"769 46 OFFCURVE",
"749 54 OFFCURVE",
"738 81 CURVE SMOOTH",
"473 726 LINE",
"327 677 LINE",
"89 84 LINE SMOOTH",
"78 57 OFFCURVE",
"47 46 OFFCURVE",
"21 46 CURVE SMOOTH",
"4 46 LINE",
"4 0 LINE"
);
},
{
closed = 1;
nodes = (
"545 177 LINE",
"545 243 LINE",
"203 243 LINE",
"203 177 LINE"
);
},
{
closed = 1;
nodes = (
"775 -239 OFFCURVE",
"818 -225 OFFCURVE",
"855 -195 CURVE",
"840 -168 LINE",
"827 -175 OFFCURVE",
"805 -181 OFFCURVE",
"790 -181 CURVE SMOOTH",
"756 -181 OFFCURVE",
"731 -161 OFFCURVE",
"730 -119 CURVE",
"730 -78 OFFCURVE",
"752 -33 OFFCURVE",
"807 12 CURVE",
"743 12 LINE",
"676 -23 OFFCURVE",
"619 -78 OFFCURVE",
"619 -138 CURVE SMOOTH",
"619 -175 OFFCURVE",
"640 -239 OFFCURVE",
"744 -239 CURVE SMOOTH"
);
}
);
width = 817;
}
);
leftKerningGroup = A;
note = Aogonek;
rightKerningGroup = A;
unicode = 0104;
},
{
glyphname = Aring;
lastChange = "2015-10-12 09:09:53 +0000";
layers = (
{
layerId = "797EEC19-8AF9-42AE-A04D-6994BCC84E1F";
name = Bold;
paths = (
{
closed = 1;
nodes = (
"264 0 LINE",
"264 46 LINE",
"241 46 LINE SMOOTH",
"219 46 OFFCURVE",
"190 58 OFFCURVE",
"204 96 CURVE SMOOTH",
"364 517 LINE",
"519 92 LINE SMOOTH",
"530 61 OFFCURVE",
"519 46 OFFCURVE",
"486 46 CURVE SMOOTH",
"463 46 LINE",
"463 0 LINE",
"813 0 LINE",
"813 46 LINE",
"790 46 LINE SMOOTH",
"769 46 OFFCURVE",
"749 54 OFFCURVE",
"738 81 CURVE SMOOTH",
"473 726 LINE",
"327 677 LINE",
"89 84 LINE SMOOTH",
"78 57 OFFCURVE",
"47 46 OFFCURVE",
"21 46 CURVE SMOOTH",
"4 46 LINE",
"4 0 LINE"
);
},
{
closed = 1;
nodes = (
"545 177 LINE",
"545 243 LINE",
"203 243 LINE",
"203 177 LINE"
);
},
{
closed = 1;
nodes = (
"482 740 OFFCURVE",
"529 785 OFFCURVE",
"529 851 CURVE SMOOTH",
"529 917 OFFCURVE",
"482 962 OFFCURVE",
"410 962 CURVE SMOOTH",
"338 962 OFFCURVE",
"290 917 OFFCURVE",
"290 851 CURVE SMOOTH",
"290 785 OFFCURVE",
"338 740 OFFCURVE",
"410 740 CURVE SMOOTH"
);
},
{
closed = 1;
nodes = (
"381 799 OFFCURVE",
"357 820 OFFCURVE",
"357 851 CURVE SMOOTH",
"357 882 OFFCURVE",
"381 902 OFFCURVE",
"410 902 CURVE SMOOTH",
"439 902 OFFCURVE",
"463 882 OFFCURVE",
"463 851 CURVE SMOOTH",
"463 820 OFFCURVE",
"439 799 OFFCURVE",
"410 799 CURVE SMOOTH"
);
}
);
width = 817;
}
);
leftKerningGroup = A;
note = Aring;
rightKerningGroup = A;
unicode = 00C5;
},
{
glyphname = Aringacute;
lastChange = "2015-10-12 09:09:53 +0000";
layers = (
{
layerId = "797EEC19-8AF9-42AE-A04D-6994BCC84E1F";
name = Bold;
paths = (
{
closed = 1;
nodes = (
"264 0 LINE",
"264 46 LINE",
"241 46 LINE SMOOTH",
"219 46 OFFCURVE",
"190 58 OFFCURVE",
"204 96 CURVE SMOOTH",
"364 517 LINE",
"519 92 LINE SMOOTH",
"530 61 OFFCURVE",
"519 46 OFFCURVE",
"486 46 CURVE SMOOTH",
"463 46 LINE",
"463 0 LINE",
"813 0 LINE",
"813 46 LINE",
"790 46 LINE SMOOTH",
"769 46 OFFCURVE",
"749 54 OFFCURVE",
"738 81 CURVE SMOOTH",
"473 726 LINE",
"327 677 LINE",
"89 84 LINE SMOOTH",
"78 57 OFFCURVE",
"47 46 OFFCURVE",
"21 46 CURVE SMOOTH",
"4 46 LINE",
"4 0 LINE"
);
},
{
closed = 1;
nodes = (
"545 177 LINE",
"545 243 LINE",
"203 243 LINE",
"203 177 LINE"
);
},
{
closed = 1;
nodes = (
"482 740 OFFCURVE",
"529 785 OFFCURVE",
"529 851 CURVE SMOOTH",
"529 917 OFFCURVE",
"482 962 OFFCURVE",
"410 962 CURVE SMOOTH",
"338 962 OFFCURVE",
"290 917 OFFCURVE",
"290 851 CURVE SMOOTH",
"290 785 OFFCURVE",
"338 740 OFFCURVE",
"410 740 CURVE SMOOTH"
);
},
{
closed = 1;
nodes = (
"381 799 OFFCURVE",
"357 820 OFFCURVE",
"357 851 CURVE SMOOTH",
"357 882 OFFCURVE",
"381 902 OFFCURVE",
"410 902 CURVE SMOOTH",
"439 902 OFFCURVE",
"463 882 OFFCURVE",
"463 851 CURVE SMOOTH",
"463 820 OFFCURVE",
"439 799 OFFCURVE",
"410 799 CURVE SMOOTH"
);
},
{
closed = 1;
nodes = (
"484 1078 LINE SMOOTH",
"521 1100 OFFCURVE",
"543 1122 OFFCURVE",
"543 1150 CURVE SMOOTH",
"543 1174 OFFCURVE",
"526 1203 OFFCURVE",
"481 1203 CURVE SMOOTH",
"442 1203 OFFCURVE",
"413 1169 OFFCURVE",
"407 1162 CURVE",
"281 1026 LINE",
"315 979 LINE"
);
}
);
width = 817;
}
);
leftKerningGroup = A;
note = Aringacute;
rightKerningGroup = A;
unicode = 01FA;
},
{
glyphname = Atilde;
lastChange = "2015-10-12 09:09:53 +0000";
layers = (
{
layerId = "797EEC19-8AF9-42AE-A04D-6994BCC84E1F";
name = Bold;
paths = (
{
closed = 1;
nodes = (
"264 0 LINE",
"264 46 LINE",
"241 46 LINE SMOOTH",
"219 46 OFFCURVE",
"190 58 OFFCURVE",
"204 96 CURVE SMOOTH",
"364 517 LINE",
"519 92 LINE SMOOTH",
"530 61 OFFCURVE",
"519 46 OFFCURVE",
"486 46 CURVE SMOOTH",
"463 46 LINE",
"463 0 LINE",
"813 0 LINE",
"813 46 LINE",
"790 46 LINE SMOOTH",
"769 46 OFFCURVE",
"749 54 OFFCURVE",
"738 81 CURVE SMOOTH",
"473 726 LINE",
"327 677 LINE",
"89 84 LINE SMOOTH",
"78 57 OFFCURVE",
"47 46 OFFCURVE",
"21 46 CURVE SMOOTH",
"4 46 LINE",
"4 0 LINE"
);
},
{
closed = 1;
nodes = (
"545 177 LINE",
"545 243 LINE",
"203 243 LINE",
"203 177 LINE"
);
},
{
closed = 1;
nodes = (
"260 811 OFFCURVE",
"277 828 OFFCURVE",
"315 828 CURVE SMOOTH",
"380 828 OFFCURVE",
"438 783 OFFCURVE",
"501 783 CURVE SMOOTH",
"583 783 OFFCURVE",
"620 862 OFFCURVE",
"637 907 CURVE",
"605 925 LINE",
"583 885 OFFCURVE",
"567 868 OFFCURVE",
"528 868 CURVE SMOOTH",
"463 868 OFFCURVE",
"406 913 OFFCURVE",
"342 913 CURVE SMOOTH",
"260 913 OFFCURVE",
"224 834 OFFCURVE",
"205 789 CURVE",
"238 771 LINE"
);
}
);
width = 817;
}
);
leftKerningGroup = A;
note = Atilde;
rightKerningGroup = A;
unicode = 00C3;
},
{
glyphname = AE;
lastChange = "2015-10-12 09:09:53 +0000";
layers = (
{
layerId = "797EEC19-8AF9-42AE-A04D-6994BCC84E1F";
name = Bold;
paths = (
{
closed = 1;
nodes = (
"276 0 LINE",
"276 46 LINE",
"253 46 LINE SMOOTH",
"238 46 OFFCURVE",
"203 57 OFFCURVE",
"213 86 CURVE",
"219 108 OFFCURVE",
"245 149 OFFCURVE",
"261 177 CURVE",
"473 177 LINE",
"473 85 LINE SMOOTH",
"473 59 OFFCURVE",
"456 46 OFFCURVE",
"419 46 CURVE SMOOTH",
"388 46 LINE",
"388 0 LINE",
"1005 0 LINE",
"1026 200 LINE",
"980 200 LINE",
"968 127 OFFCURVE",
"947 65 OFFCURVE",
"874 65 CURVE SMOOTH",
"670 65 LINE",
"670 329 LINE",
"794 329 LINE SMOOTH",
"839 329 OFFCURVE",
"845 284 OFFCURVE",
"849 241 CURVE",
"886 241 LINE",
"886 482 LINE",
"849 482 LINE",
"845 439 OFFCURVE",
"839 394 OFFCURVE",
"794 394 CURVE SMOOTH",
"670 394 LINE",
"670 634 LINE",
"843 634 LINE SMOOTH",
"943 634 OFFCURVE",
"955 537 OFFCURVE",
"959 499 CURVE",
"1006 499 LINE",
"1006 700 LINE",
"371 700 LINE",
"371 654 LINE",
"404 654 LINE SMOOTH",
"418 654 OFFCURVE",
"422 642 OFFCURVE",
"418 631 CURVE",
"418 628 OFFCURVE",
"417 625 OFFCURVE",
"416 623 CURVE",
"102 87 LINE SMOOTH",
"87 61 OFFCURVE",
"61 46 OFFCURVE",
"33 46 CURVE SMOOTH",
"16 46 LINE",
"16 0 LINE"
);
},
{
closed = 1;
nodes = (
"473 548 LINE",
"473 243 LINE",
"298 243 LINE"
);
}
);
width = 1057;
}
);
leftKerningGroup = A;
note = AE;
unicode = 00C6;
},
{
glyphname = AEacute;
lastChange = "2015-10-12 09:09:53 +0000";
layers = (
{
layerId = "797EEC19-8AF9-42AE-A04D-6994BCC84E1F";
name = Bold;
paths = (
{
closed = 1;
nodes = (
"276 0 LINE",
"276 46 LINE",
"253 46 LINE SMOOTH",
"238 46 OFFCURVE",
"203 57 OFFCURVE",
"213 86 CURVE",
"219 108 OFFCURVE",
"245 149 OFFCURVE",
"261 177 CURVE",
"473 177 LINE",
"473 85 LINE SMOOTH",
"473 59 OFFCURVE",
"456 46 OFFCURVE",
"419 46 CURVE SMOOTH",
"388 46 LINE",
"388 0 LINE",
"1005 0 LINE",
"1026 200 LINE",
"980 200 LINE",
"968 127 OFFCURVE",
"947 65 OFFCURVE",
"874 65 CURVE SMOOTH",
"670 65 LINE",
"670 329 LINE",
"794 329 LINE SMOOTH",
"839 329 OFFCURVE",
"845 284 OFFCURVE",
"849 241 CURVE",
"886 241 LINE",
"886 482 LINE",
"849 482 LINE",
"845 439 OFFCURVE",
"839 394 OFFCURVE",
"794 394 CURVE SMOOTH",
"670 394 LINE",
"670 634 LINE",
"843 634 LINE SMOOTH",
"943 634 OFFCURVE",
"955 537 OFFCURVE",
"959 499 CURVE",
"1006 499 LINE",
"1006 700 LINE",
"371 700 LINE",
"371 654 LINE",
"404 654 LINE SMOOTH",
"418 654 OFFCURVE",
"422 642 OFFCURVE",
"418 631 CURVE",
"418 628 OFFCURVE",
"417 625 OFFCURVE",
"416 623 CURVE",
"102 87 LINE SMOOTH",
"87 61 OFFCURVE",
"61 46 OFFCURVE",
"33 46 CURVE SMOOTH",
"16 46 LINE",
"16 0 LINE"
);
},
{
closed = 1;
nodes = (
"473 548 LINE",
"473 243 LINE",
"298 243 LINE"
);
},
{
closed = 1;
nodes = (
"784 873 LINE SMOOTH",
"821 895 OFFCURVE",
"843 917 OFFCURVE",
"843 945 CURVE SMOOTH",
"843 969 OFFCURVE",
"826 998 OFFCURVE",
"781 998 CURVE SMOOTH",
"742 998 OFFCURVE",
"713 964 OFFCURVE",
"707 957 CURVE",
"581 821 LINE",
"615 774 LINE"
);
}
);
width = 1057;
}
);
leftKerningGroup = A;
note = AEacute;
unicode = 01FC;
},
{
glyphname = B;
lastChange = "2015-10-12 09:09:53 +0000";
layers = (
{
layerId = "797EEC19-8AF9-42AE-A04D-6994BCC84E1F";
name = Bold;
paths = (
{
closed = 1;
nodes = (
"421 0 LINE SMOOTH",
"607 0 OFFCURVE",
"673 78 OFFCURVE",
"673 194 CURVE SMOOTH",
"673 260 OFFCURVE",
"634 346 OFFCURVE",
"497 370 CURVE",
"588 391 OFFCURVE",
"634 461 OFFCURVE",
"634 535 CURVE SMOOTH",
"634 641 OFFCURVE",
"569 700 OFFCURVE",
"382 700 CURVE SMOOTH",
"11 700 LINE",
"11 654 LINE",
"43 654 LINE SMOOTH",
"81 654 OFFCURVE",
"98 640 OFFCURVE",
"98 614 CURVE SMOOTH",
"98 85 LINE SMOOTH",
"98 59 OFFCURVE",
"81 46 OFFCURVE",
"43 46 CURVE SMOOTH",
"11 46 LINE",
"11 0 LINE"
);
},
{
closed = 1;
nodes = (
"295 335 LINE",
"353 335 LINE SMOOTH",
"431 335 OFFCURVE",
"477 292 OFFCURVE",
"477 204 CURVE SMOOTH",
"477 115 OFFCURVE",
"438 65 OFFCURVE",
"366 65 CURVE SMOOTH",
"295 65 LINE"
);
},
{
closed = 1;
nodes = (
"295 634 LINE",
"338 634 LINE SMOOTH",
"402 634 OFFCURVE",
"436 600 OFFCURVE",
"436 524 CURVE SMOOTH",
"436 449 OFFCURVE",
"408 399 OFFCURVE",
"345 399 CURVE SMOOTH",
"295 399 LINE"
);
}
);
width = 694;
}
);
note = B;
unicode = 0042;
},
{
glyphname = C;
lastChange = "2015-10-12 09:09:51 +0000";
layers = (
{
layerId = "797EEC19-8AF9-42AE-A04D-6994BCC84E1F";
name = Bold;
paths = (
{
closed = 1;
nodes = (
"574 -10 OFFCURVE",
"677 75 OFFCURVE",
"700 175 CURVE",
"636 175 LINE",
"591 82 OFFCURVE",
"505 58 OFFCURVE",
"424 58 CURVE SMOOTH",
"301 58 OFFCURVE",
"232 164 OFFCURVE",
"232 350 CURVE SMOOTH",
"232 534 OFFCURVE",
"315 642 OFFCURVE",
"442 642 CURVE SMOOTH",
"523 642 OFFCURVE",
"617 605 OFFCURVE",
"633 488 CURVE",
"687 488 LINE",
"687 705 LINE",
"625 705 LINE",
"625 659 LINE SMOOTH",
"625 652 OFFCURVE",
"621 650 OFFCURVE",
"617 650 CURVE SMOOTH",
"613 650 OFFCURVE",
"609 652 OFFCURVE",
"608 653 CURVE",
"565 681 OFFCURVE",
"497 710 OFFCURVE",
"396 710 CURVE SMOOTH",
"151 710 OFFCURVE",
"32 563 OFFCURVE",
"32 350 CURVE SMOOTH",
"32 136 OFFCURVE",
"150 -10 OFFCURVE",
"400 -10 CURVE SMOOTH"
);
}
);
width = 733;
}
);
leftKerningGroup = C;
note = C;
unicode = 0043;
},
{
glyphname = Cacute;
lastChange = "2015-10-12 09:09:53 +0000";
layers = (
{
layerId = "797EEC19-8AF9-42AE-A04D-6994BCC84E1F";
name = Bold;
paths = (
{
closed = 1;
nodes = (
"574 -10 OFFCURVE",
"677 75 OFFCURVE",
"700 175 CURVE",
"636 175 LINE",
"591 82 OFFCURVE",
"505 58 OFFCURVE",
"424 58 CURVE SMOOTH",
"301 58 OFFCURVE",
"232 164 OFFCURVE",
"232 350 CURVE SMOOTH",
"232 534 OFFCURVE",
"315 642 OFFCURVE",
"442 642 CURVE SMOOTH",
"523 642 OFFCURVE",
"617 605 OFFCURVE",
"633 488 CURVE",
"687 488 LINE",
"687 705 LINE",
"625 705 LINE",
"625 659 LINE SMOOTH",
"625 652 OFFCURVE",
"621 650 OFFCURVE",
"617 650 CURVE SMOOTH",
"613 650 OFFCURVE",
"609 652 OFFCURVE",
"608 653 CURVE",
"565 681 OFFCURVE",
"497 710 OFFCURVE",
"396 710 CURVE SMOOTH",
"151 710 OFFCURVE",
"32 563 OFFCURVE",
"32 350 CURVE SMOOTH",
"32 136 OFFCURVE",
"150 -10 OFFCURVE",
"400 -10 CURVE SMOOTH"
);
},
{
closed = 1;
nodes = (
"526 873 LINE SMOOTH",
"563 895 OFFCURVE",
"585 917 OFFCURVE",
"585 945 CURVE SMOOTH",
"585 969 OFFCURVE",
"568 998 OFFCURVE",
"523 998 CURVE SMOOTH",
"484 998 OFFCURVE",
"455 964 OFFCURVE",
"449 957 CURVE",
"323 821 LINE",
"357 774 LINE"
);
}
);
width = 733;
}
);
leftKerningGroup = C;
note = Cacute;
unicode = 0106;
},
{
glyphname = Ccaron;
lastChange = "2015-10-12 09:09:52 +0000";
layers = (
{
layerId = "797EEC19-8AF9-42AE-A04D-6994BCC84E1F";
name = Bold;
paths = (
{
closed = 1;
nodes = (
"574 -10 OFFCURVE",
"677 75 OFFCURVE",
"700 175 CURVE",
"636 175 LINE",
"591 82 OFFCURVE",
"505 58 OFFCURVE",
"424 58 CURVE SMOOTH",
"301 58 OFFCURVE",
"232 164 OFFCURVE",
"232 350 CURVE SMOOTH",
"232 534 OFFCURVE",
"315 642 OFFCURVE",
"442 642 CURVE SMOOTH",
"523 642 OFFCURVE",
"617 605 OFFCURVE",
"633 488 CURVE",
"687 488 LINE",
"687 705 LINE",
"625 705 LINE",
"625 659 LINE SMOOTH",
"625 652 OFFCURVE",
"621 650 OFFCURVE",
"617 650 CURVE SMOOTH",
"613 650 OFFCURVE",
"609 652 OFFCURVE",
"608 653 CURVE",
"565 681 OFFCURVE",
"497 710 OFFCURVE",
"396 710 CURVE SMOOTH",
"151 710 OFFCURVE",
"32 563 OFFCURVE",
"32 350 CURVE SMOOTH",
"32 136 OFFCURVE",
"150 -10 OFFCURVE",
"400 -10 CURVE SMOOTH"
);
},
{
closed = 1;
nodes = (
"470 775 LINE",
"630 955 LINE",
"603 984 LINE",
"465 882 LINE SMOOTH",
"449 870 OFFCURVE",
"434 862 OFFCURVE",
"423 862 CURVE SMOOTH",
"412 862 OFFCURVE",
"397 870 OFFCURVE",
"381 882 CURVE SMOOTH",
"242 984 LINE",
"215 955 LINE",
"376 775 LINE"
);
}
);
width = 733;
}
);
leftKerningGroup = C;
note = Ccaron;
unicode = 010C;
},
{
glyphname = Ccedilla;
lastChange = "2015-10-12 09:09:53 +0000";
layers = (
{
layerId = "797EEC19-8AF9-42AE-A04D-6994BCC84E1F";
name = Bold;
paths = (
{
closed = 1;
nodes = (
"574 -10 OFFCURVE",
"677 75 OFFCURVE",
"700 175 CURVE",
"636 175 LINE",
"591 82 OFFCURVE",
"505 58 OFFCURVE",
"424 58 CURVE SMOOTH",
"301 58 OFFCURVE",
"232 164 OFFCURVE",
"232 350 CURVE SMOOTH",
"232 534 OFFCURVE",
"315 642 OFFCURVE",
"442 642 CURVE SMOOTH",
"523 642 OFFCURVE",
"617 605 OFFCURVE",
"633 488 CURVE",
"687 488 LINE",
"687 705 LINE",
"625 705 LINE",
"625 659 LINE SMOOTH",
"625 652 OFFCURVE",
"621 650 OFFCURVE",
"617 650 CURVE SMOOTH",
"613 650 OFFCURVE",
"609 652 OFFCURVE",
"608 653 CURVE",
"565 681 OFFCURVE",
"497 710 OFFCURVE",
"396 710 CURVE SMOOTH",
"151 710 OFFCURVE",
"32 563 OFFCURVE",
"32 350 CURVE SMOOTH",
"32 136 OFFCURVE",
"150 -10 OFFCURVE",
"400 -10 CURVE SMOOTH"
);
},
{
closed = 1;
nodes = (
"375 -262 OFFCURVE",
"501 -252 OFFCURVE",
"501 -141 CURVE SMOOTH",
"501 -67 OFFCURVE",
"418 -46 OFFCURVE",
"382 -41 CURVE",
"427 27 LINE",
"361 27 LINE",
"290 -81 LINE",
"298 -93 LINE",
"321 -94 OFFCURVE",
"384 -106 OFFCURVE",
"384 -151 CURVE SMOOTH",
"384 -206 OFFCURVE",
"325 -218 OFFCURVE",
"256 -218 CURVE",
"256 -258 LINE",
"277 -261 OFFCURVE",
"291 -262 OFFCURVE",
"316 -262 CURVE SMOOTH"
);
}
);
width = 733;
}
);
leftKerningGroup = C;
note = Ccedilla;
unicode = 00C7;
},
{
glyphname = Ccircumflex;
lastChange = "2015-10-12 09:09:53 +0000";
layers = (
{
layerId = "797EEC19-8AF9-42AE-A04D-6994BCC84E1F";
name = Bold;
paths = (
{
closed = 1;
nodes = (
"574 -10 OFFCURVE",
"677 75 OFFCURVE",
"700 175 CURVE",
"636 175 LINE",
"591 82 OFFCURVE",
"505 58 OFFCURVE",
"424 58 CURVE SMOOTH",
"301 58 OFFCURVE",
"232 164 OFFCURVE",
"232 350 CURVE SMOOTH",
"232 534 OFFCURVE",
"315 642 OFFCURVE",
"442 642 CURVE SMOOTH",
"523 642 OFFCURVE",
"617 605 OFFCURVE",
"633 488 CURVE",
"687 488 LINE",
"687 705 LINE",
"625 705 LINE",
"625 659 LINE SMOOTH",
"625 652 OFFCURVE",
"621 650 OFFCURVE",
"617 650 CURVE SMOOTH",
"613 650 OFFCURVE",
"609 652 OFFCURVE",
"608 653 CURVE",
"565 681 OFFCURVE",
"497 710 OFFCURVE",
"396 710 CURVE SMOOTH",
"151 710 OFFCURVE",
"32 563 OFFCURVE",
"32 350 CURVE SMOOTH",
"32 136 OFFCURVE",
"150 -10 OFFCURVE",
"400 -10 CURVE SMOOTH"
);
},
{
closed = 1;
nodes = (
"370 877 LINE SMOOTH",
"386 889 OFFCURVE",
"401 897 OFFCURVE",
"412 897 CURVE SMOOTH",
"423 897 OFFCURVE",
"438 889 OFFCURVE",
"454 877 CURVE SMOOTH",
"592 775 LINE",
"619 804 LINE",
"459 984 LINE",
"365 984 LINE",
"204 804 LINE",
"231 775 LINE"
);
}
);
width = 733;
}
);
leftKerningGroup = C;
note = Ccircumflex;
unicode = 0108;
},
{
glyphname = Cdotaccent;
lastChange = "2015-10-12 09:09:53 +0000";
layers = (
{
layerId = "797EEC19-8AF9-42AE-A04D-6994BCC84E1F";
name = Bold;
paths = (
{
closed = 1;
nodes = (
"574 -10 OFFCURVE",
"677 75 OFFCURVE",
"700 175 CURVE",
"636 175 LINE",
"591 82 OFFCURVE",
"505 58 OFFCURVE",
"424 58 CURVE SMOOTH",
"301 58 OFFCURVE",
"232 164 OFFCURVE",
"232 350 CURVE SMOOTH",
"232 534 OFFCURVE",
"315 642 OFFCURVE",
"442 642 CURVE SMOOTH",
"523 642 OFFCURVE",
"617 605 OFFCURVE",
"633 488 CURVE",
"687 488 LINE",
"687 705 LINE",
"625 705 LINE",
"625 659 LINE SMOOTH",
"625 652 OFFCURVE",
"621 650 OFFCURVE",
"617 650 CURVE SMOOTH",
"613 650 OFFCURVE",
"609 652 OFFCURVE",
"608 653 CURVE",
"565 681 OFFCURVE",
"497 710 OFFCURVE",
"396 710 CURVE SMOOTH",
"151 710 OFFCURVE",
"32 563 OFFCURVE",
"32 350 CURVE SMOOTH",
"32 136 OFFCURVE",
"150 -10 OFFCURVE",
"400 -10 CURVE SMOOTH"
);
},
{
closed = 1;
nodes = (
"475 774 OFFCURVE",
"503 805 OFFCURVE",
"503 846 CURVE SMOOTH",
"503 886 OFFCURVE",
"475 919 OFFCURVE",
"430 919 CURVE SMOOTH",
"385 919 OFFCURVE",
"358 886 OFFCURVE",
"358 846 CURVE SMOOTH",
"358 805 OFFCURVE",
"385 774 OFFCURVE",
"430 774 CURVE SMOOTH"
);
}
);
width = 733;
}
);
leftKerningGroup = C;
note = Cdotaccent;
unicode = 010A;
},
{
glyphname = D;
lastChange = "2015-10-12 09:09:53 +0000";
layers = (
{
layerId = "797EEC19-8AF9-42AE-A04D-6994BCC84E1F";
name = Bold;
paths = (
{
closed = 1;
nodes = (
"374 0 LINE SMOOTH",
"627 0 OFFCURVE",
"738 114 OFFCURVE",
"738 350 CURVE SMOOTH",
"738 583 OFFCURVE",
"628 700 OFFCURVE",
"375 700 CURVE SMOOTH",
"10 700 LINE",
"10 654 LINE",
"42 654 LINE SMOOTH",
"80 654 OFFCURVE",
"97 640 OFFCURVE",
"97 614 CURVE SMOOTH",
"97 85 LINE SMOOTH",
"97 59 OFFCURVE",
"80 46 OFFCURVE",
"42 46 CURVE SMOOTH",
"10 46 LINE",
"10 0 LINE"
);
},
{
closed = 1;
nodes = (
"294 635 LINE",
"374 635 LINE SMOOTH",
"479 635 OFFCURVE",
"538 538 OFFCURVE",
"538 350 CURVE SMOOTH",
"538 158 OFFCURVE",
"476 65 OFFCURVE",
"373 65 CURVE SMOOTH",
"294 65 LINE"
);
}
);
width = 779;
}
);
note = D;
rightKerningGroup = D;
unicode = 0044;
},
{
glyphname = Dcaron;
lastChange = "2015-10-12 09:09:53 +0000";
layers = (
{
layerId = "797EEC19-8AF9-42AE-A04D-6994BCC84E1F";
name = Bold;
paths = (
{
closed = 1;
nodes = (
"374 0 LINE SMOOTH",
"627 0 OFFCURVE",
"738 114 OFFCURVE",
"738 350 CURVE SMOOTH",
"738 583 OFFCURVE",
"628 700 OFFCURVE",
"375 700 CURVE SMOOTH",
"10 700 LINE",
"10 654 LINE",
"42 654 LINE SMOOTH",
"80 654 OFFCURVE",
"97 640 OFFCURVE",
"97 614 CURVE SMOOTH",
"97 85 LINE SMOOTH",
"97 59 OFFCURVE",
"80 46 OFFCURVE",
"42 46 CURVE SMOOTH",
"10 46 LINE",
"10 0 LINE"
);
},
{
closed = 1;
nodes = (
"294 635 LINE",
"374 635 LINE SMOOTH",
"479 635 OFFCURVE",
"538 538 OFFCURVE",
"538 350 CURVE SMOOTH",
"538 158 OFFCURVE",
"476 65 OFFCURVE",
"373 65 CURVE SMOOTH",
"294 65 LINE"
);
},
{
closed = 1;
nodes = (
"399 776 LINE",
"559 956 LINE",
"532 985 LINE",
"394 883 LINE SMOOTH",
"378 871 OFFCURVE",
"363 863 OFFCURVE",
"352 863 CURVE SMOOTH",
"341 863 OFFCURVE",
"326 871 OFFCURVE",
"310 883 CURVE SMOOTH",
"171 985 LINE",
"144 956 LINE",
"305 776 LINE"
);
}
);
width = 779;
}
);
note = Dcaron;
rightKerningGroup = D;
unicode = 010E;
},
{
glyphname = Dcroat;
lastChange = "2015-10-12 09:09:53 +0000";
layers = (
{
layerId = "797EEC19-8AF9-42AE-A04D-6994BCC84E1F";
name = Bold;
paths = (
{
closed = 1;
nodes = (
"374 0 LINE SMOOTH",
"627 0 OFFCURVE",
"738 114 OFFCURVE",
"738 350 CURVE SMOOTH",
"738 583 OFFCURVE",
"628 700 OFFCURVE",
"375 700 CURVE SMOOTH",
"10 700 LINE",
"10 654 LINE",
"42 654 LINE SMOOTH",
"80 654 OFFCURVE",
"97 640 OFFCURVE",
"97 614 CURVE SMOOTH",
"97 85 LINE SMOOTH",
"97 59 OFFCURVE",
"80 46 OFFCURVE",
"42 46 CURVE SMOOTH",
"10 46 LINE",
"10 0 LINE"
);
},
{
closed = 1;
nodes = (
"479 294 LINE",
"479 377 LINE",
"12 377 LINE",
"12 294 LINE"
);
},
{
closed = 1;
nodes = (
"294 635 LINE",
"374 635 LINE SMOOTH",
"479 635 OFFCURVE",
"538 538 OFFCURVE",
"538 350 CURVE SMOOTH",
"538 158 OFFCURVE",
"476 65 OFFCURVE",
"373 65 CURVE SMOOTH",
"294 65 LINE"
);
}
);
width = 779;
}
);
note = Dcroat;
rightKerningGroup = D;
unicode = 0110;
},
{
glyphname = Ddotbelow;
lastChange = "2015-10-12 09:09:52 +0000";
layers = (
{
layerId = "797EEC19-8AF9-42AE-A04D-6994BCC84E1F";
name = Bold;
paths = (
{
closed = 1;
nodes = (
"374 0 LINE SMOOTH",
"627 0 OFFCURVE",
"738 114 OFFCURVE",
"738 350 CURVE SMOOTH",
"738 583 OFFCURVE",
"628 700 OFFCURVE",
"375 700 CURVE SMOOTH",
"10 700 LINE",
"10 654 LINE",
"42 654 LINE SMOOTH",
"80 654 OFFCURVE",
"97 640 OFFCURVE",
"97 614 CURVE SMOOTH",
"97 85 LINE SMOOTH",
"97 59 OFFCURVE",
"80 46 OFFCURVE",
"42 46 CURVE SMOOTH",
"10 46 LINE",
"10 0 LINE"
);
},
{
closed = 1;
nodes = (
"431 -211 OFFCURVE",
"459 -179 OFFCURVE",
"459 -138 CURVE SMOOTH",
"459 -98 OFFCURVE",
"431 -64 OFFCURVE",
"386 -64 CURVE SMOOTH",
"341 -64 OFFCURVE",
"313 -98 OFFCURVE",
"313 -138 CURVE SMOOTH",
"313 -179 OFFCURVE",
"341 -211 OFFCURVE",
"386 -211 CURVE SMOOTH"
);
},
{
closed = 1;
nodes = (
"294 635 LINE",
"374 635 LINE SMOOTH",
"479 635 OFFCURVE",
"538 538 OFFCURVE",
"538 350 CURVE SMOOTH",
"538 158 OFFCURVE",
"476 65 OFFCURVE",
"373 65 CURVE SMOOTH",
"294 65 LINE"
);
}
);
width = 779;
}
);
note = Ddotbelow;
rightKerningGroup = D;
unicode = 1E0C;
},
{
glyphname = Dlinebelow;
lastChange = "2015-10-12 09:09:53 +0000";
layers = (
{
layerId = "797EEC19-8AF9-42AE-A04D-6994BCC84E1F";
name = Bold;
paths = (
{
closed = 1;
nodes = (
"374 0 LINE SMOOTH",
"627 0 OFFCURVE",
"738 114 OFFCURVE",
"738 350 CURVE SMOOTH",
"738 583 OFFCURVE",
"628 700 OFFCURVE",
"375 700 CURVE SMOOTH",
"10 700 LINE",
"10 654 LINE",
"42 654 LINE SMOOTH",
"80 654 OFFCURVE",
"97 640 OFFCURVE",
"97 614 CURVE SMOOTH",
"97 85 LINE SMOOTH",
"97 59 OFFCURVE",
"80 46 OFFCURVE",
"42 46 CURVE SMOOTH",
"10 46 LINE",
"10 0 LINE"
);
},
{
closed = 1;
nodes = (
"577 -128 LINE",
"577 -65 LINE",
"157 -65 LINE",
"157 -128 LINE"
);
},
{
closed = 1;
nodes = (
"294 635 LINE",
"374 635 LINE SMOOTH",
"479 635 OFFCURVE",
"538 538 OFFCURVE",
"538 350 CURVE SMOOTH",
"538 158 OFFCURVE",
"476 65 OFFCURVE",
"373 65 CURVE SMOOTH",
"294 65 LINE"
);
}
);
width = 779;
}
);
note = Dlinebelow;
rightKerningGroup = D;
unicode = 1E0E;
},
{
glyphname = E;
lastChange = "2015-10-12 09:09:52 +0000";
layers = (
{
layerId = "797EEC19-8AF9-42AE-A04D-6994BCC84E1F";
name = Bold;
paths = (
{
closed = 1;
nodes = (
"630 0 LINE",
"652 200 LINE",
"605 200 LINE",
"594 127 OFFCURVE",
"573 65 OFFCURVE",
"500 65 CURVE SMOOTH",
"293 65 LINE",
"293 634 LINE",
"471 634 LINE SMOOTH",
"568 634 OFFCURVE",
"581 535 OFFCURVE",
"584 499 CURVE",
"631 499 LINE",
"631 700 LINE",
"10 700 LINE",
"10 654 LINE",
"42 654 LINE SMOOTH",
"80 654 OFFCURVE",
"96 640 OFFCURVE",
"96 614 CURVE SMOOTH",
"96 85 LINE SMOOTH",
"96 59 OFFCURVE",
"80 46 OFFCURVE",
"42 46 CURVE SMOOTH",
"10 46 LINE",
"10 0 LINE"
);
},
{
closed = 1;
nodes = (
"511 241 LINE",
"511 482 LINE",
"474 482 LINE",
"470 439 OFFCURVE",
"464 394 OFFCURVE",
"419 394 CURVE SMOOTH",
"215 394 LINE",
"215 329 LINE",
"419 329 LINE SMOOTH",
"464 329 OFFCURVE",
"470 284 OFFCURVE",
"474 241 CURVE"
);
}
);
width = 682;
}
);
note = E;
unicode = 0045;
},
{
glyphname = Eacute;
lastChange = "2015-10-12 09:09:53 +0000";
layers = (
{
layerId = "797EEC19-8AF9-42AE-A04D-6994BCC84E1F";
name = Bold;
paths = (
{
closed = 1;
nodes = (
"630 0 LINE",
"652 200 LINE",
"605 200 LINE",
"594 127 OFFCURVE",
"573 65 OFFCURVE",
"500 65 CURVE SMOOTH",
"293 65 LINE",
"293 634 LINE",
"471 634 LINE SMOOTH",
"568 634 OFFCURVE",
"581 535 OFFCURVE",
"584 499 CURVE",
"631 499 LINE",
"631 700 LINE",
"10 700 LINE",
"10 654 LINE",
"42 654 LINE SMOOTH",
"80 654 OFFCURVE",
"96 640 OFFCURVE",
"96 614 CURVE SMOOTH",
"96 85 LINE SMOOTH",
"96 59 OFFCURVE",
"80 46 OFFCURVE",
"42 46 CURVE SMOOTH",
"10 46 LINE",
"10 0 LINE"
);
},
{
closed = 1;
nodes = (
"511 241 LINE",
"511 482 LINE",
"474 482 LINE",
"470 439 OFFCURVE",
"464 394 OFFCURVE",
"419 394 CURVE SMOOTH",
"215 394 LINE",
"215 329 LINE",
"419 329 LINE SMOOTH",
"464 329 OFFCURVE",
"470 284 OFFCURVE",
"474 241 CURVE"
);
},
{
closed = 1;
nodes = (
"470 873 LINE SMOOTH",
"507 895 OFFCURVE",
"529 917 OFFCURVE",
"529 945 CURVE SMOOTH",
"529 969 OFFCURVE",
"512 998 OFFCURVE",
"467 998 CURVE SMOOTH",
"428 998 OFFCURVE",
"399 964 OFFCURVE",
"393 957 CURVE",
"267 821 LINE",
"301 774 LINE"
);
}
);
width = 682;
}
);
note = Eacute;
unicode = 00C9;
},
{
glyphname = Ebreve;
lastChange = "2015-10-12 09:09:53 +0000";
layers = (
{
layerId = "797EEC19-8AF9-42AE-A04D-6994BCC84E1F";
name = Bold;
paths = (
{
closed = 1;
nodes = (
"630 0 LINE",
"652 200 LINE",
"605 200 LINE",
"594 127 OFFCURVE",
"573 65 OFFCURVE",
"500 65 CURVE SMOOTH",
"293 65 LINE",
"293 634 LINE",
"471 634 LINE SMOOTH",
"568 634 OFFCURVE",
"581 535 OFFCURVE",
"584 499 CURVE",
"631 499 LINE",
"631 700 LINE",
"10 700 LINE",
"10 654 LINE",
"42 654 LINE SMOOTH",
"80 654 OFFCURVE",
"96 640 OFFCURVE",
"96 614 CURVE SMOOTH",
"96 85 LINE SMOOTH",
"96 59 OFFCURVE",
"80 46 OFFCURVE",
"42 46 CURVE SMOOTH",
"10 46 LINE",
"10 0 LINE"
);
},
{
closed = 1;
nodes = (
"511 241 LINE",
"511 482 LINE",
"474 482 LINE",
"470 439 OFFCURVE",
"464 394 OFFCURVE",
"419 394 CURVE SMOOTH",
"215 394 LINE",
"215 329 LINE",
"419 329 LINE SMOOTH",
"464 329 OFFCURVE",
"470 284 OFFCURVE",
"474 241 CURVE"
);
},
{
closed = 1;
nodes = (
"534 777 OFFCURVE",
"561 863 OFFCURVE",
"561 934 CURVE",
"516 934 LINE",
"514 906 OFFCURVE",
"492 856 OFFCURVE",
"390 856 CURVE SMOOTH",
"289 856 OFFCURVE",
"266 906 OFFCURVE",
"263 934 CURVE",
"219 934 LINE",
"220 858 OFFCURVE",
"247 777 OFFCURVE",
"391 777 CURVE SMOOTH"
);
}
);
width = 682;
}
);
note = Ebreve;
unicode = 0114;
},
{
glyphname = Ecaron;
lastChange = "2015-10-12 09:09:53 +0000";
layers = (
{
layerId = "797EEC19-8AF9-42AE-A04D-6994BCC84E1F";
name = Bold;
paths = (
{
closed = 1;
nodes = (
"630 0 LINE",
"652 200 LINE",
"605 200 LINE",
"594 127 OFFCURVE",
"573 65 OFFCURVE",
"500 65 CURVE SMOOTH",
"293 65 LINE",
"293 634 LINE",
"471 634 LINE SMOOTH",
"568 634 OFFCURVE",
"581 535 OFFCURVE",
"584 499 CURVE",
"631 499 LINE",
"631 700 LINE",
"10 700 LINE",
"10 654 LINE",
"42 654 LINE SMOOTH",
"80 654 OFFCURVE",
"96 640 OFFCURVE",
"96 614 CURVE SMOOTH",
"96 85 LINE SMOOTH",
"96 59 OFFCURVE",
"80 46 OFFCURVE",
"42 46 CURVE SMOOTH",
"10 46 LINE",
"10 0 LINE"
);
},
{
closed = 1;
nodes = (
"511 241 LINE",
"511 482 LINE",
"474 482 LINE",
"470 439 OFFCURVE",
"464 394 OFFCURVE",
"419 394 CURVE SMOOTH",
"215 394 LINE",
"215 329 LINE",
"419 329 LINE SMOOTH",
"464 329 OFFCURVE",
"470 284 OFFCURVE",
"474 241 CURVE"
);
},
{
closed = 1;
nodes = (
"434 775 LINE",
"594 955 LINE",
"567 984 LINE",
"429 882 LINE SMOOTH",
"413 870 OFFCURVE",
"398 862 OFFCURVE",
"387 862 CURVE SMOOTH",
"376 862 OFFCURVE",
"361 870 OFFCURVE",
"345 882 CURVE SMOOTH",
"206 984 LINE",
"179 955 LINE",
"340 775 LINE"
);
}
);
width = 682;
}
);
note = Ecaron;
unicode = 011A;
},
{
glyphname = Ecircumflex;
lastChange = "2015-10-12 09:09:53 +0000";
layers = (
{
layerId = "797EEC19-8AF9-42AE-A04D-6994BCC84E1F";
name = Bold;
paths = (
{
closed = 1;
nodes = (
"630 0 LINE",
"652 200 LINE",
"605 200 LINE",
"594 127 OFFCURVE",
"573 65 OFFCURVE",
"500 65 CURVE SMOOTH",
"293 65 LINE",
"293 634 LINE",
"471 634 LINE SMOOTH",
"568 634 OFFCURVE",
"581 535 OFFCURVE",
"584 499 CURVE",
"631 499 LINE",
"631 700 LINE",
"10 700 LINE",
"10 654 LINE",
"42 654 LINE SMOOTH",
"80 654 OFFCURVE",
"96 640 OFFCURVE",
"96 614 CURVE SMOOTH",
"96 85 LINE SMOOTH",
"96 59 OFFCURVE",
"80 46 OFFCURVE",
"42 46 CURVE SMOOTH",
"10 46 LINE",
"10 0 LINE"
);
},
{
closed = 1;
nodes = (
"511 241 LINE",
"511 482 LINE",
"474 482 LINE",
"470 439 OFFCURVE",
"464 394 OFFCURVE",
"419 394 CURVE SMOOTH",
"215 394 LINE",
"215 329 LINE",
"419 329 LINE SMOOTH",
"464 329 OFFCURVE",
"470 284 OFFCURVE",
"474 241 CURVE"
);
},
{
closed = 1;
nodes = (
"339 877 LINE SMOOTH",
"355 889 OFFCURVE",
"370 897 OFFCURVE",
"381 897 CURVE SMOOTH",
"392 897 OFFCURVE",
"407 889 OFFCURVE",
"423 877 CURVE SMOOTH",
"561 775 LINE",
"588 804 LINE",
"428 984 LINE",
"334 984 LINE",
"173 804 LINE",
"200 775 LINE"
);
}
);
width = 682;
}
);
note = Ecircumflex;
unicode = 00CA;
},
{
glyphname = Ecircumflexacute;
lastChange = "2015-10-12 09:09:53 +0000";
layers = (
{
layerId = "797EEC19-8AF9-42AE-A04D-6994BCC84E1F";
name = Bold;
paths = (
{
closed = 1;
nodes = (
"630 0 LINE",
"652 200 LINE",
"605 200 LINE",
"594 127 OFFCURVE",
"573 65 OFFCURVE",
"500 65 CURVE SMOOTH",
"293 65 LINE",
"293 634 LINE",
"471 634 LINE SMOOTH",
"568 634 OFFCURVE",
"581 535 OFFCURVE",
"584 499 CURVE",
"631 499 LINE",
"631 700 LINE",
"10 700 LINE",
"10 654 LINE",
"42 654 LINE SMOOTH",
"80 654 OFFCURVE",
"96 640 OFFCURVE",
"96 614 CURVE SMOOTH",
"96 85 LINE SMOOTH",
"96 59 OFFCURVE",
"80 46 OFFCURVE",
"42 46 CURVE SMOOTH",
"10 46 LINE",
"10 0 LINE"
);
},
{
closed = 1;
nodes = (
"511 241 LINE",
"511 482 LINE",
"474 482 LINE",
"470 439 OFFCURVE",
"464 394 OFFCURVE",
"419 394 CURVE SMOOTH",
"215 394 LINE",
"215 329 LINE",
"419 329 LINE SMOOTH",
"464 329 OFFCURVE",
"470 284 OFFCURVE",
"474 241 CURVE"
);
},
{
closed = 1;
nodes = (
"315 875 LINE SMOOTH",
"330 887 OFFCURVE",
"345 896 OFFCURVE",
"356 896 CURVE SMOOTH",
"367 896 OFFCURVE",
"381 887 OFFCURVE",
"397 875 CURVE SMOOTH",
"530 774 LINE",
"555 804 LINE",
"402 983 LINE",
"310 983 LINE",
"156 804 LINE",
"182 774 LINE"
);
},
{
closed = 1;
nodes = (
"622 972 LINE SMOOTH",
"662 992 OFFCURVE",
"691 1018 OFFCURVE",
"691 1047 CURVE SMOOTH",
"691 1071 OFFCURVE",
"673 1103 OFFCURVE",
"630 1103 CURVE SMOOTH",
"594 1103 OFFCURVE",
"567 1073 OFFCURVE",
"552 1054 CURVE SMOOTH",
"474 957 LINE",
"506 916 LINE"
);
}
);
width = 682;
}
);
note = Ecircumflexacute;
unicode = 1EBE;
},
{
glyphname = Ecircumflexdotbelow;
lastChange = "2015-10-12 09:09:53 +0000";
layers = (
{
layerId = "797EEC19-8AF9-42AE-A04D-6994BCC84E1F";
name = Bold;
paths = (
{
closed = 1;
nodes = (
"630 0 LINE",
"652 200 LINE",
"605 200 LINE",
"594 127 OFFCURVE",
"573 65 OFFCURVE",
"500 65 CURVE SMOOTH",
"293 65 LINE",
"293 634 LINE",
"471 634 LINE SMOOTH",
"568 634 OFFCURVE",
"581 535 OFFCURVE",
"584 499 CURVE",
"631 499 LINE",
"631 700 LINE",
"10 700 LINE",
"10 654 LINE",
"42 654 LINE SMOOTH",
"80 654 OFFCURVE",
"96 640 OFFCURVE",
"96 614 CURVE SMOOTH",
"96 85 LINE SMOOTH",
"96 59 OFFCURVE",
"80 46 OFFCURVE",
"42 46 CURVE SMOOTH",
"10 46 LINE",
"10 0 LINE"
);
},
{
closed = 1;
nodes = (
"404 -211 OFFCURVE",
"432 -179 OFFCURVE",
"432 -138 CURVE SMOOTH",
"432 -98 OFFCURVE",
"404 -64 OFFCURVE",
"359 -64 CURVE SMOOTH",
"314 -64 OFFCURVE",
"286 -98 OFFCURVE",
"286 -138 CURVE SMOOTH",
"286 -179 OFFCURVE",
"314 -211 OFFCURVE",
"359 -211 CURVE SMOOTH"
);
},
{
closed = 1;
nodes = (
"511 241 LINE",
"511 482 LINE",
"474 482 LINE",
"470 439 OFFCURVE",
"464 394 OFFCURVE",
"419 394 CURVE SMOOTH",
"215 394 LINE",
"215 329 LINE",
"419 329 LINE SMOOTH",
"464 329 OFFCURVE",
"470 284 OFFCURVE",
"474 241 CURVE"
);
},
{
closed = 1;
nodes = (
"312 877 LINE SMOOTH",
"328 889 OFFCURVE",
"343 897 OFFCURVE",
"354 897 CURVE SMOOTH",
"365 897 OFFCURVE",
"380 889 OFFCURVE",
"396 877 CURVE SMOOTH",
"534 775 LINE",
"561 804 LINE",
"401 984 LINE",
"307 984 LINE",
"146 804 LINE",
"173 775 LINE"
);
}
);
width = 682;
}
);
note = Ecircumflexdotbelow;
unicode = 1EC6;
},
{
glyphname = Ecircumflexgrave;
lastChange = "2015-10-12 09:09:53 +0000";
layers = (
{
layerId = "797EEC19-8AF9-42AE-A04D-6994BCC84E1F";
name = Bold;
paths = (
{
closed = 1;
nodes = (
"630 0 LINE",
"652 200 LINE",
"605 200 LINE",
"594 127 OFFCURVE",
"573 65 OFFCURVE",
"500 65 CURVE SMOOTH",
"293 65 LINE",
"293 634 LINE",
"471 634 LINE SMOOTH",
"568 634 OFFCURVE",
"581 535 OFFCURVE",
"584 499 CURVE",
"631 499 LINE",
"631 700 LINE",
"10 700 LINE",
"10 654 LINE",
"42 654 LINE SMOOTH",
"80 654 OFFCURVE",
"96 640 OFFCURVE",
"96 614 CURVE SMOOTH",
"96 85 LINE SMOOTH",
"96 59 OFFCURVE",
"80 46 OFFCURVE",
"42 46 CURVE SMOOTH",
"10 46 LINE",
"10 0 LINE"
);
},
{
closed = 1;
nodes = (
"511 241 LINE",
"511 482 LINE",
"474 482 LINE",
"470 439 OFFCURVE",
"464 394 OFFCURVE",
"419 394 CURVE SMOOTH",
"215 394 LINE",
"215 329 LINE",
"419 329 LINE SMOOTH",
"464 329 OFFCURVE",
"470 284 OFFCURVE",
"474 241 CURVE"
);
},
{
closed = 1;
nodes = (
"238 957 LINE",
"158 1056 LINE SMOOTH",
"143 1074 OFFCURVE",
"117 1104 OFFCURVE",
"83 1104 CURVE SMOOTH",
"38 1104 OFFCURVE",
"21 1070 OFFCURVE",
"21 1048 CURVE SMOOTH",
"21 1019 OFFCURVE",
"47 994 OFFCURVE",
"88 974 CURVE SMOOTH",
"206 916 LINE"
);
},
{
closed = 1;
nodes = (
"315 875 LINE SMOOTH",
"330 887 OFFCURVE",
"345 896 OFFCURVE",
"356 896 CURVE SMOOTH",
"367 896 OFFCURVE",
"381 887 OFFCURVE",
"397 875 CURVE SMOOTH",
"530 774 LINE",
"555 804 LINE",
"402 983 LINE",
"310 983 LINE",
"156 804 LINE",
"182 774 LINE"
);
}
);
width = 682;
}
);
note = Ecircumflexgrave;
unicode = 1EC0;
},
{
glyphname = Ecircumflexhookabove;
lastChange = "2015-10-12 09:09:53 +0000";
layers = (
{
layerId = "797EEC19-8AF9-42AE-A04D-6994BCC84E1F";
name = Bold;
paths = (
{
closed = 1;
nodes = (
"630 0 LINE",
"652 200 LINE",
"605 200 LINE",
"594 127 OFFCURVE",
"573 65 OFFCURVE",
"500 65 CURVE SMOOTH",
"293 65 LINE",
"293 634 LINE",
"471 634 LINE SMOOTH",
"568 634 OFFCURVE",
"581 535 OFFCURVE",
"584 499 CURVE",
"631 499 LINE",
"631 700 LINE",
"10 700 LINE",
"10 654 LINE",
"42 654 LINE SMOOTH",
"80 654 OFFCURVE",
"96 640 OFFCURVE",
"96 614 CURVE SMOOTH",
"96 85 LINE SMOOTH",
"96 59 OFFCURVE",
"80 46 OFFCURVE",
"42 46 CURVE SMOOTH",
"10 46 LINE",
"10 0 LINE"
);
},
{
closed = 1;
nodes = (
"511 241 LINE",
"511 482 LINE",
"474 482 LINE",
"470 439 OFFCURVE",
"464 394 OFFCURVE",
"419 394 CURVE SMOOTH",
"215 394 LINE",
"215 329 LINE",
"419 329 LINE SMOOTH",
"464 329 OFFCURVE",
"470 284 OFFCURVE",
"474 241 CURVE"
);
},
{
closed = 1;
nodes = (
"315 875 LINE SMOOTH",
"330 887 OFFCURVE",
"345 896 OFFCURVE",
"356 896 CURVE SMOOTH",
"367 896 OFFCURVE",
"381 887 OFFCURVE",
"397 875 CURVE SMOOTH",
"530 775 LINE",
"555 804 LINE",
"402 984 LINE",
"310 984 LINE",
"156 804 LINE",
"182 775 LINE"
);
},
{
closed = 1;
nodes = (
"565 942 LINE",
"553 943 OFFCURVE",
"540 946 OFFCURVE",
"540 965 CURVE SMOOTH",
"540 1007 OFFCURVE",
"643 1013 OFFCURVE",
"643 1073 CURVE SMOOTH",
"643 1118 OFFCURVE",
"592 1139 OFFCURVE",
"536 1139 CURVE SMOOTH",
"459 1139 OFFCURVE",
"433 1105 OFFCURVE",
"433 1084 CURVE SMOOTH",
"433 1061 OFFCURVE",
"450 1051 OFFCURVE",
"466 1051 CURVE SMOOTH",
"510 1051 OFFCURVE",
"490 1110 OFFCURVE",
"535 1110 CURVE SMOOTH",
"555 1110 OFFCURVE",
"564 1093 OFFCURVE",
"564 1080 CURVE SMOOTH",
"564 1024 OFFCURVE",
"480 1013 OFFCURVE",
"480 966 CURVE SMOOTH",
"480 936 OFFCURVE",
"516 919 OFFCURVE",
"558 919 CURVE"
);
}
);
width = 682;
}
);
note = Ecircumflexhookabove;
unicode = 1EC2;
},
{
glyphname = Ecircumflextilde;
lastChange = "2015-10-12 09:09:53 +0000";
layers = (
{
layerId = "797EEC19-8AF9-42AE-A04D-6994BCC84E1F";
name = Bold;
paths = (
{
closed = 1;
nodes = (
"630 0 LINE",
"652 200 LINE",
"605 200 LINE",
"594 127 OFFCURVE",
"573 65 OFFCURVE",
"500 65 CURVE SMOOTH",
"293 65 LINE",
"293 634 LINE",
"471 634 LINE SMOOTH",
"568 634 OFFCURVE",
"581 535 OFFCURVE",
"584 499 CURVE",
"631 499 LINE",
"631 700 LINE",
"10 700 LINE",
"10 654 LINE",
"42 654 LINE SMOOTH",
"80 654 OFFCURVE",
"96 640 OFFCURVE",
"96 614 CURVE SMOOTH",
"96 85 LINE SMOOTH",
"96 59 OFFCURVE",
"80 46 OFFCURVE",
"42 46 CURVE SMOOTH",
"10 46 LINE",
"10 0 LINE"
);
},
{
closed = 1;
nodes = (
"511 241 LINE",
"511 482 LINE",
"474 482 LINE",
"470 439 OFFCURVE",
"464 394 OFFCURVE",
"419 394 CURVE SMOOTH",
"215 394 LINE",
"215 329 LINE",
"419 329 LINE SMOOTH",
"464 329 OFFCURVE",
"470 284 OFFCURVE",
"474 241 CURVE"
);
},
{
closed = 1;
nodes = (
"315 875 LINE SMOOTH",
"330 887 OFFCURVE",
"345 896 OFFCURVE",
"356 896 CURVE SMOOTH",
"367 896 OFFCURVE",
"381 887 OFFCURVE",
"397 875 CURVE SMOOTH",
"530 775 LINE",
"555 804 LINE",
"402 984 LINE",
"310 984 LINE",
"156 804 LINE",
"182 775 LINE"
);
},
{
closed = 1;
nodes = (
"209 1038 OFFCURVE",
"224 1056 OFFCURVE",
"259 1056 CURVE SMOOTH",
"318 1056 OFFCURVE",
"370 1011 OFFCURVE",
"427 1011 CURVE SMOOTH",
"501 1011 OFFCURVE",
"534 1090 OFFCURVE",
"550 1135 CURVE",
"521 1153 LINE",
"501 1112 OFFCURVE",
"487 1096 OFFCURVE",
"452 1096 CURVE SMOOTH",
"393 1096 OFFCURVE",
"340 1140 OFFCURVE",
"283 1140 CURVE SMOOTH",
"209 1140 OFFCURVE",
"176 1061 OFFCURVE",
"160 1017 CURVE",
"190 998 LINE"
);
}
);
width = 682;
}
);
note = Ecircumflextilde;
unicode = 1EC4;
},
{
glyphname = Edieresis;
lastChange = "2015-10-12 09:09:53 +0000";
layers = (
{
layerId = "797EEC19-8AF9-42AE-A04D-6994BCC84E1F";
name = Bold;
paths = (
{
closed = 1;
nodes = (
"630 0 LINE",
"652 200 LINE",
"605 200 LINE",
"594 127 OFFCURVE",
"573 65 OFFCURVE",
"500 65 CURVE SMOOTH",
"293 65 LINE",
"293 634 LINE",
"471 634 LINE SMOOTH",
"568 634 OFFCURVE",
"581 535 OFFCURVE",
"584 499 CURVE",
"631 499 LINE",
"631 700 LINE",
"10 700 LINE",
"10 654 LINE",
"42 654 LINE SMOOTH",
"80 654 OFFCURVE",
"96 640 OFFCURVE",
"96 614 CURVE SMOOTH",
"96 85 LINE SMOOTH",
"96 59 OFFCURVE",
"80 46 OFFCURVE",
"42 46 CURVE SMOOTH",
"10 46 LINE",
"10 0 LINE"
);
},
{
closed = 1;
nodes = (
"511 241 LINE",
"511 482 LINE",
"474 482 LINE",
"470 439 OFFCURVE",
"464 394 OFFCURVE",
"419 394 CURVE SMOOTH",
"215 394 LINE",
"215 329 LINE",
"419 329 LINE SMOOTH",
"464 329 OFFCURVE",
"470 284 OFFCURVE",
"474 241 CURVE"
);
},
{
closed = 1;
nodes = (
"318 775 OFFCURVE",
"346 807 OFFCURVE",
"346 847 CURVE SMOOTH",
"346 888 OFFCURVE",
"318 921 OFFCURVE",
"272 921 CURVE SMOOTH",
"227 921 OFFCURVE",
"200 888 OFFCURVE",
"200 847 CURVE SMOOTH",
"200 807 OFFCURVE",
"227 775 OFFCURVE",
"272 775 CURVE SMOOTH"
);
},
{
closed = 1;
nodes = (
"563 775 OFFCURVE",
"591 807 OFFCURVE",
"591 847 CURVE SMOOTH",
"591 888 OFFCURVE",
"563 921 OFFCURVE",
"518 921 CURVE SMOOTH",
"472 921 OFFCURVE",
"445 888 OFFCURVE",
"445 847 CURVE SMOOTH",
"445 807 OFFCURVE",
"472 775 OFFCURVE",
"518 775 CURVE SMOOTH"
);
}
);
width = 682;
}
);
note = Edieresis;
unicode = 00CB;
},
{
glyphname = Edotaccent;
lastChange = "2015-10-12 09:09:53 +0000";
layers = (
{
layerId = "797EEC19-8AF9-42AE-A04D-6994BCC84E1F";
name = Bold;
paths = (
{
closed = 1;
nodes = (
"630 0 LINE",
"652 200 LINE",
"605 200 LINE",
"594 127 OFFCURVE",
"573 65 OFFCURVE",
"500 65 CURVE SMOOTH",
"293 65 LINE",
"293 634 LINE",
"471 634 LINE SMOOTH",
"568 634 OFFCURVE",
"581 535 OFFCURVE",
"584 499 CURVE",
"631 499 LINE",
"631 700 LINE",
"10 700 LINE",
"10 654 LINE",
"42 654 LINE SMOOTH",
"80 654 OFFCURVE",
"96 640 OFFCURVE",
"96 614 CURVE SMOOTH",
"96 85 LINE SMOOTH",
"96 59 OFFCURVE",
"80 46 OFFCURVE",
"42 46 CURVE SMOOTH",
"10 46 LINE",
"10 0 LINE"
);
},
{
closed = 1;
nodes = (
"511 241 LINE",
"511 482 LINE",
"474 482 LINE",
"470 439 OFFCURVE",
"464 394 OFFCURVE",
"419 394 CURVE SMOOTH",
"215 394 LINE",
"215 329 LINE",
"419 329 LINE SMOOTH",
"464 329 OFFCURVE",
"470 284 OFFCURVE",
"474 241 CURVE"
);
},
{
closed = 1;
nodes = (
"440 774 OFFCURVE",
"468 805 OFFCURVE",
"468 846 CURVE SMOOTH",
"468 886 OFFCURVE",
"440 919 OFFCURVE",
"395 919 CURVE SMOOTH",
"350 919 OFFCURVE",
"323 886 OFFCURVE",
"323 846 CURVE SMOOTH",
"323 805 OFFCURVE",
"350 774 OFFCURVE",
"395 774 CURVE SMOOTH"
);
}
);
width = 682;
}
);
note = Edotaccent;
unicode = 0116;
},
{
glyphname = Edotbelow;
lastChange = "2015-10-12 09:09:53 +0000";
layers = (
{
layerId = "797EEC19-8AF9-42AE-A04D-6994BCC84E1F";
name = Bold;
paths = (
{
closed = 1;
nodes = (
"630 0 LINE",
"652 200 LINE",
"605 200 LINE",
"594 127 OFFCURVE",
"573 65 OFFCURVE",
"500 65 CURVE SMOOTH",
"293 65 LINE",
"293 634 LINE",
"471 634 LINE SMOOTH",
"568 634 OFFCURVE",
"581 535 OFFCURVE",
"584 499 CURVE",
"631 499 LINE",
"631 700 LINE",
"10 700 LINE",
"10 654 LINE",
"42 654 LINE SMOOTH",
"80 654 OFFCURVE",
"96 640 OFFCURVE",
"96 614 CURVE SMOOTH",
"96 85 LINE SMOOTH",
"96 59 OFFCURVE",
"80 46 OFFCURVE",
"42 46 CURVE SMOOTH",
"10 46 LINE",
"10 0 LINE"
);
},
{
closed = 1;
nodes = (
"388 -211 OFFCURVE",
"416 -179 OFFCURVE",
"416 -138 CURVE SMOOTH",
"416 -98 OFFCURVE",
"388 -64 OFFCURVE",
"343 -64 CURVE SMOOTH",
"298 -64 OFFCURVE",
"270 -98 OFFCURVE",
"270 -138 CURVE SMOOTH",
"270 -179 OFFCURVE",
"298 -211 OFFCURVE",
"343 -211 CURVE SMOOTH"
);
},
{
closed = 1;
nodes = (
"511 241 LINE",
"511 482 LINE",
"474 482 LINE",
"470 439 OFFCURVE",
"464 394 OFFCURVE",
"419 394 CURVE SMOOTH",
"215 394 LINE",
"215 329 LINE",
"419 329 LINE SMOOTH",
"464 329 OFFCURVE",
"470 284 OFFCURVE",
"474 241 CURVE"
);
}
);
width = 682;
}
);
note = Edotbelow;
unicode = 1EB8;
},
{
glyphname = Egrave;
lastChange = "2015-10-12 09:09:53 +0000";
layers = (
{
layerId = "797EEC19-8AF9-42AE-A04D-6994BCC84E1F";
name = Bold;
paths = (
{
closed = 1;
nodes = (
"630 0 LINE",
"652 200 LINE",
"605 200 LINE",
"594 127 OFFCURVE",
"573 65 OFFCURVE",
"500 65 CURVE SMOOTH",
"293 65 LINE",
"293 634 LINE",
"471 634 LINE SMOOTH",
"568 634 OFFCURVE",
"581 535 OFFCURVE",
"584 499 CURVE",
"631 499 LINE",
"631 700 LINE",
"10 700 LINE",
"10 654 LINE",
"42 654 LINE SMOOTH",
"80 654 OFFCURVE",
"96 640 OFFCURVE",
"96 614 CURVE SMOOTH",
"96 85 LINE SMOOTH",
"96 59 OFFCURVE",
"80 46 OFFCURVE",
"42 46 CURVE SMOOTH",
"10 46 LINE",
"10 0 LINE"
);
},
{
closed = 1;
nodes = (
"511 241 LINE",
"511 482 LINE",
"474 482 LINE",
"470 439 OFFCURVE",
"464 394 OFFCURVE",
"419 394 CURVE SMOOTH",
"215 394 LINE",
"215 329 LINE",
"419 329 LINE SMOOTH",
"464 329 OFFCURVE",
"470 284 OFFCURVE",
"474 241 CURVE"
);
},
{
closed = 1;
nodes = (
"514 821 LINE",
"389 957 LINE",
"382 964 OFFCURVE",
"352 998 OFFCURVE",
"313 998 CURVE SMOOTH",
"269 998 OFFCURVE",
"252 969 OFFCURVE",
"252 946 CURVE SMOOTH",
"252 917 OFFCURVE",
"273 895 OFFCURVE",
"310 873 CURVE SMOOTH",
"480 774 LINE"
);
}
);
width = 682;
}
);
note = Egrave;
unicode = 00C8;
},
{
glyphname = Ehookabove;
lastChange = "2015-10-12 09:09:52 +0000";
layers = (
{
layerId = "797EEC19-8AF9-42AE-A04D-6994BCC84E1F";
name = Bold;
paths = (
{
closed = 1;
nodes = (
"630 0 LINE",
"652 200 LINE",
"605 200 LINE",
"594 127 OFFCURVE",
"573 65 OFFCURVE",
"500 65 CURVE SMOOTH",
"293 65 LINE",
"293 634 LINE",
"471 634 LINE SMOOTH",
"568 634 OFFCURVE",
"581 535 OFFCURVE",
"584 499 CURVE",
"631 499 LINE",
"631 700 LINE",
"10 700 LINE",
"10 654 LINE",
"42 654 LINE SMOOTH",
"80 654 OFFCURVE",
"96 640 OFFCURVE",
"96 614 CURVE SMOOTH",
"96 85 LINE SMOOTH",
"96 59 OFFCURVE",
"80 46 OFFCURVE",
"42 46 CURVE SMOOTH",
"10 46 LINE",
"10 0 LINE"
);
},
{
closed = 1;
nodes = (
"511 241 LINE",
"511 482 LINE",
"474 482 LINE",
"470 439 OFFCURVE",
"464 394 OFFCURVE",
"419 394 CURVE SMOOTH",
"215 394 LINE",
"215 329 LINE",
"419 329 LINE SMOOTH",
"464 329 OFFCURVE",
"470 284 OFFCURVE",
"474 241 CURVE"
);
},
{
closed = 1;
nodes = (
"418 801 LINE",
"405 802 OFFCURVE",
"389 805 OFFCURVE",
"389 827 CURVE SMOOTH",
"389 875 OFFCURVE",
"508 882 OFFCURVE",
"508 952 CURVE SMOOTH",
"508 1005 OFFCURVE",
"450 1030 OFFCURVE",
"386 1030 CURVE SMOOTH",
"294 1030 OFFCURVE",
"266 989 OFFCURVE",
"266 964 CURVE SMOOTH",
"266 938 OFFCURVE",
"285 927 OFFCURVE",
"304 927 CURVE SMOOTH",
"325 927 OFFCURVE",
"341 940 OFFCURVE",
"342 958 CURVE",
"342 987 OFFCURVE",
"367 994 OFFCURVE",
"384 994 CURVE SMOOTH",
"407 994 OFFCURVE",
"417 977 OFFCURVE",
"417 960 CURVE SMOOTH",
"417 896 OFFCURVE",
"321 883 OFFCURVE",
"321 829 CURVE SMOOTH",
"321 794 OFFCURVE",
"362 775 OFFCURVE",
"410 775 CURVE"
);
}
);
width = 682;
}
);
note = Ehookabove;
unicode = 1EBA;
},
{
glyphname = Emacron;
lastChange = "2015-10-12 09:09:53 +0000";
layers = (
{
layerId = "797EEC19-8AF9-42AE-A04D-6994BCC84E1F";
name = Bold;
paths = (
{
closed = 1;
nodes = (
"630 0 LINE",
"652 200 LINE",
"605 200 LINE",
"594 127 OFFCURVE",
"573 65 OFFCURVE",
"500 65 CURVE SMOOTH",
"293 65 LINE",
"293 634 LINE",
"471 634 LINE SMOOTH",
"568 634 OFFCURVE",
"581 535 OFFCURVE",
"584 499 CURVE",
"631 499 LINE",
"631 700 LINE",
"10 700 LINE",
"10 654 LINE",
"42 654 LINE SMOOTH",
"80 654 OFFCURVE",
"96 640 OFFCURVE",
"96 614 CURVE SMOOTH",
"96 85 LINE SMOOTH",
"96 59 OFFCURVE",
"80 46 OFFCURVE",
"42 46 CURVE SMOOTH",
"10 46 LINE",
"10 0 LINE"
);
},
{
closed = 1;
nodes = (
"511 241 LINE",
"511 482 LINE",
"474 482 LINE",
"470 439 OFFCURVE",
"464 394 OFFCURVE",
"419 394 CURVE SMOOTH",
"215 394 LINE",
"215 329 LINE",
"419 329 LINE SMOOTH",
"464 329 OFFCURVE",
"470 284 OFFCURVE",
"474 241 CURVE"
);
},
{
closed = 1;
nodes = (
"593 775 LINE",
"593 847 LINE",
"173 847 LINE",
"173 775 LINE"
);
}
);
width = 682;
}
);
note = Emacron;
unicode = 0112;
},
{
glyphname = Eogonek;
lastChange = "2015-10-12 09:09:52 +0000";
layers = (
{
layerId = "797EEC19-8AF9-42AE-A04D-6994BCC84E1F";
name = Bold;
paths = (
{
closed = 1;
nodes = (
"630 0 LINE",
"652 200 LINE",
"605 200 LINE",
"594 127 OFFCURVE",
"573 65 OFFCURVE",
"500 65 CURVE SMOOTH",
"293 65 LINE",
"293 634 LINE",
"471 634 LINE SMOOTH",
"568 634 OFFCURVE",
"581 535 OFFCURVE",
"584 499 CURVE",
"631 499 LINE",
"631 700 LINE",
"10 700 LINE",
"10 654 LINE",
"42 654 LINE SMOOTH",
"80 654 OFFCURVE",
"96 640 OFFCURVE",
"96 614 CURVE SMOOTH",
"96 85 LINE SMOOTH",
"96 59 OFFCURVE",
"80 46 OFFCURVE",
"42 46 CURVE SMOOTH",
"10 46 LINE",
"10 0 LINE"
);
},
{
closed = 1;
nodes = (
"569 -239 OFFCURVE",
"612 -225 OFFCURVE",
"649 -195 CURVE",
"634 -168 LINE",
"621 -175 OFFCURVE",
"599 -181 OFFCURVE",
"584 -181 CURVE SMOOTH",
"550 -181 OFFCURVE",
"525 -161 OFFCURVE",
"524 -119 CURVE",
"524 -78 OFFCURVE",
"546 -33 OFFCURVE",
"601 12 CURVE",
"537 12 LINE",
"470 -23 OFFCURVE",
"413 -78 OFFCURVE",
"413 -138 CURVE SMOOTH",
"413 -175 OFFCURVE",
"434 -239 OFFCURVE",
"538 -239 CURVE SMOOTH"
);
},
{
closed = 1;
nodes = (
"511 241 LINE",
"511 482 LINE",
"474 482 LINE",
"470 439 OFFCURVE",
"464 394 OFFCURVE",
"419 394 CURVE SMOOTH",
"215 394 LINE",
"215 329 LINE",
"419 329 LINE SMOOTH",
"464 329 OFFCURVE",
"470 284 OFFCURVE",
"474 241 CURVE"
);
}
);
width = 682;
}
);
note = Eogonek;
unicode = 0118;
},
{
glyphname = Etilde;
lastChange = "2015-10-12 09:09:53 +0000";
layers = (
{
layerId = "797EEC19-8AF9-42AE-A04D-6994BCC84E1F";
name = Bold;
paths = (
{
closed = 1;
nodes = (
"630 0 LINE",
"652 200 LINE",
"605 200 LINE",
"594 127 OFFCURVE",
"573 65 OFFCURVE",
"500 65 CURVE SMOOTH",
"293 65 LINE",
"293 634 LINE",
"471 634 LINE SMOOTH",
"568 634 OFFCURVE",
"581 535 OFFCURVE",
"584 499 CURVE",
"631 499 LINE",
"631 700 LINE",
"10 700 LINE",
"10 654 LINE",
"42 654 LINE SMOOTH",
"80 654 OFFCURVE",
"96 640 OFFCURVE",
"96 614 CURVE SMOOTH",
"96 85 LINE SMOOTH",
"96 59 OFFCURVE",
"80 46 OFFCURVE",
"42 46 CURVE SMOOTH",
"10 46 LINE",
"10 0 LINE"
);
},
{
closed = 1;
nodes = (
"511 241 LINE",
"511 482 LINE",
"474 482 LINE",
"470 439 OFFCURVE",
"464 394 OFFCURVE",
"419 394 CURVE SMOOTH",
"215 394 LINE",
"215 329 LINE",
"419 329 LINE SMOOTH",
"464 329 OFFCURVE",
"470 284 OFFCURVE",
"474 241 CURVE"
);
},
{
closed = 1;
nodes = (
"218 811 OFFCURVE",
"235 828 OFFCURVE",
"273 828 CURVE SMOOTH",
"338 828 OFFCURVE",
"396 783 OFFCURVE",
"459 783 CURVE SMOOTH",
"541 783 OFFCURVE",
"578 862 OFFCURVE",
"595 907 CURVE",
"563 925 LINE",
"541 885 OFFCURVE",
"525 868 OFFCURVE",
"486 868 CURVE SMOOTH",
"421 868 OFFCURVE",
"364 913 OFFCURVE",
"300 913 CURVE SMOOTH",
"218 913 OFFCURVE",
"182 834 OFFCURVE",
"163 789 CURVE",
"196 771 LINE"
);
}
);
width = 682;
}
);
note = Etilde;
unicode = 1EBC;
},
{
glyphname = F;
lastChange = "2015-10-12 09:09:53 +0000";
layers = (
{
layerId = "797EEC19-8AF9-42AE-A04D-6994BCC84E1F";
name = Bold;
paths = (
{
closed = 1;
nodes = (
"379 0 LINE",
"379 46 LINE",
"348 46 LINE SMOOTH",
"310 46 OFFCURVE",
"293 59 OFFCURVE",
"293 85 CURVE SMOOTH",
"293 634 LINE",
"471 634 LINE SMOOTH",
"568 634 OFFCURVE",
"580 535 OFFCURVE",
"584 499 CURVE",
"631 499 LINE",
"631 700 LINE",
"10 700 LINE",
"10 654 LINE",
"42 654 LINE SMOOTH",
"80 654 OFFCURVE",
"96 640 OFFCURVE",
"96 614 CURVE SMOOTH",
"96 85 LINE SMOOTH",
"96 59 OFFCURVE",
"80 46 OFFCURVE",
"42 46 CURVE SMOOTH",
"10 46 LINE",
"10 0 LINE"
);
},
{
closed = 1;
nodes = (
"512 205 LINE",
"512 446 LINE",
"474 446 LINE",
"470 403 OFFCURVE",
"464 358 OFFCURVE",
"419 358 CURVE SMOOTH",
"217 358 LINE",
"217 293 LINE",
"419 293 LINE SMOOTH",
"464 293 OFFCURVE",
"470 247 OFFCURVE",
"474 205 CURVE"
);
}
);
width = 674;
}
);
note = F;
unicode = 0046;
},
{
glyphname = G;
lastChange = "2015-10-12 09:09:51 +0000";
layers = (
{
layerId = "797EEC19-8AF9-42AE-A04D-6994BCC84E1F";
name = Bold;
paths = (
{
closed = 1;
nodes = (
"506 -10 OFFCURVE",
"597 -1 OFFCURVE",
"709 64 CURVE",
"709 242 LINE SMOOTH",
"709 301 OFFCURVE",
"721 318 OFFCURVE",
"777 318 CURVE",
"777 348 LINE",
"440 348 LINE",
"440 311 LINE",
"455 311 LINE SMOOTH",
"508 311 OFFCURVE",
"519 284 OFFCURVE",
"519 261 CURVE SMOOTH",
"519 72 LINE",
"489 61 OFFCURVE",
"455 58 OFFCURVE",
"424 58 CURVE SMOOTH",
"301 58 OFFCURVE",
"232 164 OFFCURVE",
"232 350 CURVE SMOOTH",
"232 534 OFFCURVE",
"320 642 OFFCURVE",
"446 642 CURVE SMOOTH",
"528 642 OFFCURVE",
"627 605 OFFCURVE",
"642 488 CURVE",
"696 488 LINE",
"696 705 LINE",
"634 705 LINE",
"634 659 LINE SMOOTH",
"634 653 OFFCURVE",
"630 650 OFFCURVE",
"626 650 CURVE SMOOTH",
"622 650 OFFCURVE",
"618 652 OFFCURVE",
"617 653 CURVE",
"573 683 OFFCURVE",
"498 710 OFFCURVE",
"400 710 CURVE SMOOTH",
"156 710 OFFCURVE",
"32 563 OFFCURVE",
"32 350 CURVE SMOOTH",
"32 136 OFFCURVE",
"150 -10 OFFCURVE",
"400 -10 CURVE SMOOTH"
);
}
);
width = 783;
}
);
leftKerningGroup = G;
note = G;
unicode = 0047;
},
{
glyphname = Gbreve;
lastChange = "2015-10-12 09:09:53 +0000";
layers = (
{
layerId = "797EEC19-8AF9-42AE-A04D-6994BCC84E1F";
name = Bold;
paths = (
{
closed = 1;
nodes = (
"506 -10 OFFCURVE",
"597 -1 OFFCURVE",
"709 64 CURVE",
"709 242 LINE SMOOTH",
"709 301 OFFCURVE",
"721 318 OFFCURVE",
"777 318 CURVE",
"777 348 LINE",
"440 348 LINE",
"440 311 LINE",
"455 311 LINE SMOOTH",
"508 311 OFFCURVE",
"519 284 OFFCURVE",
"519 261 CURVE SMOOTH",
"519 72 LINE",
"489 61 OFFCURVE",
"455 58 OFFCURVE",
"424 58 CURVE SMOOTH",
"301 58 OFFCURVE",
"232 164 OFFCURVE",
"232 350 CURVE SMOOTH",
"232 534 OFFCURVE",
"320 642 OFFCURVE",
"446 642 CURVE SMOOTH",
"528 642 OFFCURVE",
"627 605 OFFCURVE",
"642 488 CURVE",
"696 488 LINE",
"696 705 LINE",
"634 705 LINE",
"634 659 LINE SMOOTH",
"634 653 OFFCURVE",
"630 650 OFFCURVE",
"626 650 CURVE SMOOTH",
"622 650 OFFCURVE",
"618 652 OFFCURVE",
"617 653 CURVE",
"573 683 OFFCURVE",
"498 710 OFFCURVE",
"400 710 CURVE SMOOTH",
"156 710 OFFCURVE",
"32 563 OFFCURVE",
"32 350 CURVE SMOOTH",
"32 136 OFFCURVE",
"150 -10 OFFCURVE",
"400 -10 CURVE SMOOTH"
);
},
{
closed = 1;
nodes = (
"552 778 OFFCURVE",
"579 864 OFFCURVE",
"579 935 CURVE",
"534 935 LINE",
"532 907 OFFCURVE",
"510 857 OFFCURVE",
"408 857 CURVE SMOOTH",
"307 857 OFFCURVE",
"284 907 OFFCURVE",
"281 935 CURVE",
"237 935 LINE",
"238 859 OFFCURVE",
"265 778 OFFCURVE",
"409 778 CURVE SMOOTH"
);
}
);
width = 783;
}
);
leftKerningGroup = G;
note = Gbreve;
unicode = 011E;
},
{
glyphname = Gcaron;
lastChange = "2015-10-12 09:09:53 +0000";
layers = (
{
layerId = "797EEC19-8AF9-42AE-A04D-6994BCC84E1F";
name = Bold;
paths = (
{
closed = 1;
nodes = (
"506 -10 OFFCURVE",
"597 -1 OFFCURVE",
"709 64 CURVE",
"709 242 LINE SMOOTH",
"709 301 OFFCURVE",
"721 318 OFFCURVE",
"777 318 CURVE",
"777 348 LINE",
"440 348 LINE",
"440 311 LINE",
"455 311 LINE SMOOTH",
"508 311 OFFCURVE",
"519 284 OFFCURVE",
"519 261 CURVE SMOOTH",
"519 72 LINE",
"489 61 OFFCURVE",
"455 58 OFFCURVE",
"424 58 CURVE SMOOTH",
"301 58 OFFCURVE",
"232 164 OFFCURVE",
"232 350 CURVE SMOOTH",
"232 534 OFFCURVE",
"320 642 OFFCURVE",
"446 642 CURVE SMOOTH",
"528 642 OFFCURVE",
"627 605 OFFCURVE",
"642 488 CURVE",
"696 488 LINE",
"696 705 LINE",
"634 705 LINE",
"634 659 LINE SMOOTH",
"634 653 OFFCURVE",
"630 650 OFFCURVE",
"626 650 CURVE SMOOTH",
"622 650 OFFCURVE",
"618 652 OFFCURVE",
"617 653 CURVE",
"573 683 OFFCURVE",
"498 710 OFFCURVE",
"400 710 CURVE SMOOTH",
"156 710 OFFCURVE",
"32 563 OFFCURVE",
"32 350 CURVE SMOOTH",
"32 136 OFFCURVE",
"150 -10 OFFCURVE",
"400 -10 CURVE SMOOTH"
);
},
{
closed = 1;
nodes = (
"475 775 LINE",
"635 955 LINE",
"608 984 LINE",
"470 882 LINE SMOOTH",
"454 870 OFFCURVE",
"439 862 OFFCURVE",
"428 862 CURVE SMOOTH",
"417 862 OFFCURVE",
"402 870 OFFCURVE",
"386 882 CURVE SMOOTH",
"247 984 LINE",
"220 955 LINE",
"381 775 LINE"
);
}
);
width = 783;
}
);
leftKerningGroup = G;
note = Gcaron;
unicode = 01E6;
},
{
glyphname = Gcircumflex;
lastChange = "2015-10-12 09:09:53 +0000";
layers = (
{
layerId = "797EEC19-8AF9-42AE-A04D-6994BCC84E1F";
name = Bold;
paths = (
{
closed = 1;
nodes = (
"506 -10 OFFCURVE",
"597 -1 OFFCURVE",
"709 64 CURVE",
"709 242 LINE SMOOTH",
"709 301 OFFCURVE",
"721 318 OFFCURVE",
"777 318 CURVE",
"777 348 LINE",
"440 348 LINE",
"440 311 LINE",
"455 311 LINE SMOOTH",
"508 311 OFFCURVE",
"519 284 OFFCURVE",
"519 261 CURVE SMOOTH",
"519 72 LINE",
"489 61 OFFCURVE",
"455 58 OFFCURVE",
"424 58 CURVE SMOOTH",
"301 58 OFFCURVE",
"232 164 OFFCURVE",
"232 350 CURVE SMOOTH",
"232 534 OFFCURVE",
"320 642 OFFCURVE",
"446 642 CURVE SMOOTH",
"528 642 OFFCURVE",
"627 605 OFFCURVE",
"642 488 CURVE",
"696 488 LINE",
"696 705 LINE",
"634 705 LINE",
"634 659 LINE SMOOTH",
"634 653 OFFCURVE",
"630 650 OFFCURVE",
"626 650 CURVE SMOOTH",
"622 650 OFFCURVE",
"618 652 OFFCURVE",
"617 653 CURVE",
"573 683 OFFCURVE",
"498 710 OFFCURVE",
"400 710 CURVE SMOOTH",
"156 710 OFFCURVE",
"32 563 OFFCURVE",
"32 350 CURVE SMOOTH",
"32 136 OFFCURVE",
"150 -10 OFFCURVE",
"400 -10 CURVE SMOOTH"
);
},
{
closed = 1;
nodes = (
"379 878 LINE SMOOTH",
"395 890 OFFCURVE",
"410 898 OFFCURVE",
"421 898 CURVE SMOOTH",
"432 898 OFFCURVE",
"447 890 OFFCURVE",
"463 878 CURVE SMOOTH",
"601 776 LINE",
"628 805 LINE",
"468 985 LINE",
"374 985 LINE",
"213 805 LINE",
"240 776 LINE"
);
}
);
width = 783;
}
);
leftKerningGroup = G;
note = Gcircumflex;
unicode = 011C;
},
{
glyphname = Gcommaaccent;
lastChange = "2015-10-12 09:09:52 +0000";
layers = (
{
layerId = "797EEC19-8AF9-42AE-A04D-6994BCC84E1F";
name = Bold;
paths = (
{
closed = 1;
nodes = (
"506 -10 OFFCURVE",
"597 -1 OFFCURVE",
"709 64 CURVE",
"709 242 LINE SMOOTH",
"709 301 OFFCURVE",
"721 318 OFFCURVE",
"777 318 CURVE",
"777 348 LINE",
"440 348 LINE",
"440 311 LINE",
"455 311 LINE SMOOTH",
"508 311 OFFCURVE",
"519 284 OFFCURVE",
"519 261 CURVE SMOOTH",
"519 72 LINE",
"489 61 OFFCURVE",
"455 58 OFFCURVE",
"424 58 CURVE SMOOTH",
"301 58 OFFCURVE",
"232 164 OFFCURVE",
"232 350 CURVE SMOOTH",
"232 534 OFFCURVE",
"320 642 OFFCURVE",
"446 642 CURVE SMOOTH",
"528 642 OFFCURVE",
"627 605 OFFCURVE",
"642 488 CURVE",
"696 488 LINE",
"696 705 LINE",
"634 705 LINE",
"634 659 LINE SMOOTH",
"634 653 OFFCURVE",
"630 650 OFFCURVE",
"626 650 CURVE SMOOTH",
"622 650 OFFCURVE",
"618 652 OFFCURVE",
"617 653 CURVE",
"573 683 OFFCURVE",
"498 710 OFFCURVE",
"400 710 CURVE SMOOTH",
"156 710 OFFCURVE",
"32 563 OFFCURVE",
"32 350 CURVE SMOOTH",
"32 136 OFFCURVE",
"150 -10 OFFCURVE",
"400 -10 CURVE SMOOTH"
);
},
{
closed = 1;
nodes = (
"426 -354 OFFCURVE",
"507 -268 OFFCURVE",
"507 -182 CURVE SMOOTH",
"507 -115 OFFCURVE",
"468 -76 OFFCURVE",
"419 -76 CURVE SMOOTH",
"372 -76 OFFCURVE",
"343 -108 OFFCURVE",
"343 -143 CURVE SMOOTH",
"343 -187 OFFCURVE",
"388 -205 OFFCURVE",
"388 -250 CURVE SMOOTH",
"388 -295 OFFCURVE",
"363 -335 OFFCURVE",
"328 -371 CURVE",
"357 -398 LINE"
);
}
);
width = 783;
}
);
leftKerningGroup = G;
note = Gcommaaccent;
unicode = 0122;
},
{
glyphname = Gdotaccent;
lastChange = "2015-10-12 09:09:52 +0000";
layers = (
{
layerId = "797EEC19-8AF9-42AE-A04D-6994BCC84E1F";
name = Bold;
paths = (
{
closed = 1;
nodes = (
"506 -10 OFFCURVE",
"597 -1 OFFCURVE",
"709 64 CURVE",
"709 242 LINE SMOOTH",
"709 301 OFFCURVE",
"721 318 OFFCURVE",
"777 318 CURVE",
"777 348 LINE",
"440 348 LINE",
"440 311 LINE",
"455 311 LINE SMOOTH",
"508 311 OFFCURVE",
"519 284 OFFCURVE",
"519 261 CURVE SMOOTH",
"519 72 LINE",
"489 61 OFFCURVE",
"455 58 OFFCURVE",
"424 58 CURVE SMOOTH",
"301 58 OFFCURVE",
"232 164 OFFCURVE",
"232 350 CURVE SMOOTH",
"232 534 OFFCURVE",
"320 642 OFFCURVE",
"446 642 CURVE SMOOTH",
"528 642 OFFCURVE",
"627 605 OFFCURVE",
"642 488 CURVE",
"696 488 LINE",
"696 705 LINE",
"634 705 LINE",
"634 659 LINE SMOOTH",
"634 653 OFFCURVE",
"630 650 OFFCURVE",
"626 650 CURVE SMOOTH",
"622 650 OFFCURVE",
"618 652 OFFCURVE",
"617 653 CURVE",
"573 683 OFFCURVE",
"498 710 OFFCURVE",
"400 710 CURVE SMOOTH",
"156 710 OFFCURVE",
"32 563 OFFCURVE",
"32 350 CURVE SMOOTH",
"32 136 OFFCURVE",
"150 -10 OFFCURVE",
"400 -10 CURVE SMOOTH"
);
},
{
closed = 1;
nodes = (
"472 775 OFFCURVE",
"500 806 OFFCURVE",
"500 847 CURVE SMOOTH",
"500 887 OFFCURVE",
"472 920 OFFCURVE",
"427 920 CURVE SMOOTH",
"382 920 OFFCURVE",
"355 887 OFFCURVE",
"355 847 CURVE SMOOTH",
"355 806 OFFCURVE",
"382 775 OFFCURVE",
"427 775 CURVE SMOOTH"
);
}
);
width = 783;
}
);
leftKerningGroup = G;
note = Gdotaccent;
unicode = 0120;
},
{
glyphname = Gmacron;
lastChange = "2015-10-12 09:09:53 +0000";
layers = (
{
layerId = "797EEC19-8AF9-42AE-A04D-6994BCC84E1F";
name = Bold;
paths = (
{
closed = 1;
nodes = (
"506 -10 OFFCURVE",
"597 -1 OFFCURVE",
"709 64 CURVE",
"709 242 LINE SMOOTH",
"709 301 OFFCURVE",
"721 318 OFFCURVE",
"777 318 CURVE",
"777 348 LINE",
"440 348 LINE",
"440 311 LINE",
"455 311 LINE SMOOTH",
"508 311 OFFCURVE",
"519 284 OFFCURVE",
"519 261 CURVE SMOOTH",
"519 72 LINE",
"489 61 OFFCURVE",
"455 58 OFFCURVE",
"424 58 CURVE SMOOTH",
"301 58 OFFCURVE",
"232 164 OFFCURVE",
"232 350 CURVE SMOOTH",
"232 534 OFFCURVE",
"320 642 OFFCURVE",
"446 642 CURVE SMOOTH",
"528 642 OFFCURVE",
"627 605 OFFCURVE",
"642 488 CURVE",
"696 488 LINE",
"696 705 LINE",
"634 705 LINE",
"634 659 LINE SMOOTH",
"634 653 OFFCURVE",
"630 650 OFFCURVE",
"626 650 CURVE SMOOTH",
"622 650 OFFCURVE",
"618 652 OFFCURVE",
"617 653 CURVE",
"573 683 OFFCURVE",
"498 710 OFFCURVE",
"400 710 CURVE SMOOTH",
"156 710 OFFCURVE",
"32 563 OFFCURVE",
"32 350 CURVE SMOOTH",
"32 136 OFFCURVE",
"150 -10 OFFCURVE",
"400 -10 CURVE SMOOTH"
);
},
{
closed = 1;
nodes = (
"603 801 LINE",
"603 873 LINE",
"183 873 LINE",
"183 801 LINE"
);
}
);
width = 783;
}
);
leftKerningGroup = G;
note = Gmacron;
unicode = 1E20;
},
{
glyphname = H;
lastChange = "2015-10-12 09:09:53 +0000";
layers = (
{
layerId = "797EEC19-8AF9-42AE-A04D-6994BCC84E1F";
name = Bold;
paths = (
{
closed = 1;
nodes = (
"838 0 LINE",
"838 46 LINE",
"806 46 LINE SMOOTH",
"768 46 OFFCURVE",
"752 59 OFFCURVE",
"752 85 CURVE SMOOTH",
"752 614 LINE SMOOTH",
"752 640 OFFCURVE",
"768 654 OFFCURVE",
"806 654 CURVE SMOOTH",
"838 654 LINE",
"838 700 LINE",
"469 700 LINE",
"469 654 LINE",
"500 654 LINE SMOOTH",
"539 654 OFFCURVE",
"555 640 OFFCURVE",
"555 614 CURVE SMOOTH",
"555 85 LINE SMOOTH",
"555 59 OFFCURVE",
"539 46 OFFCURVE",
"500 46 CURVE SMOOTH",
"469 46 LINE",
"469 0 LINE"
);
},
{
closed = 1;
nodes = (
"380 0 LINE",
"380 46 LINE",
"348 46 LINE SMOOTH",
"310 46 OFFCURVE",
"294 59 OFFCURVE",
"294 85 CURVE SMOOTH",
"294 614 LINE SMOOTH",
"294 640 OFFCURVE",
"310 654 OFFCURVE",
"348 654 CURVE SMOOTH",
"380 654 LINE",
"380 700 LINE",
"11 700 LINE",
"11 654 LINE",
"43 654 LINE SMOOTH",
"81 654 OFFCURVE",
"97 640 OFFCURVE",
"97 614 CURVE SMOOTH",
"97 85 LINE SMOOTH",
"97 59 OFFCURVE",
"81 46 OFFCURVE",
"43 46 CURVE SMOOTH",
"11 46 LINE",
"11 0 LINE"
);
},
{
closed = 1;
nodes = (
"640 323 LINE",
"640 389 LINE",
"196 389 LINE",
"196 323 LINE"
);
}
);
width = 849;
}
);
note = H;
unicode = 0048;
},
{
glyphname = Hbar;
lastChange = "2015-10-12 09:09:53 +0000";
layers = (
{
layerId = "797EEC19-8AF9-42AE-A04D-6994BCC84E1F";
name = Bold;
paths = (
{
closed = 1;
nodes = (
"838 0 LINE",
"838 46 LINE",
"806 46 LINE SMOOTH",
"768 46 OFFCURVE",
"752 59 OFFCURVE",
"752 85 CURVE SMOOTH",
"752 614 LINE SMOOTH",
"752 640 OFFCURVE",
"768 654 OFFCURVE",
"806 654 CURVE SMOOTH",
"838 654 LINE",
"838 700 LINE",
"469 700 LINE",
"469 654 LINE",
"500 654 LINE SMOOTH",
"539 654 OFFCURVE",
"555 640 OFFCURVE",
"555 614 CURVE SMOOTH",
"555 85 LINE SMOOTH",
"555 59 OFFCURVE",
"539 46 OFFCURVE",
"500 46 CURVE SMOOTH",
"469 46 LINE",
"469 0 LINE"
);
},
{
closed = 1;
nodes = (
"380 0 LINE",
"380 46 LINE",
"348 46 LINE SMOOTH",
"310 46 OFFCURVE",
"294 59 OFFCURVE",
"294 85 CURVE SMOOTH",
"294 614 LINE SMOOTH",
"294 640 OFFCURVE",
"310 654 OFFCURVE",
"348 654 CURVE SMOOTH",
"380 654 LINE",
"380 700 LINE",
"11 700 LINE",
"11 654 LINE",
"43 654 LINE SMOOTH",
"81 654 OFFCURVE",
"97 640 OFFCURVE",
"97 614 CURVE SMOOTH",
"97 85 LINE SMOOTH",
"97 59 OFFCURVE",
"81 46 OFFCURVE",
"43 46 CURVE SMOOTH",
"11 46 LINE",
"11 0 LINE"
);
},
{
closed = 1;
nodes = (
"640 323 LINE",
"640 389 LINE",
"196 389 LINE",
"196 323 LINE"
);
},
{
closed = 1;
nodes = (
"813 482 LINE",
"813 547 LINE",
"35 547 LINE",
"35 482 LINE"
);
}
);
width = 849;
}
);
note = Hbar;
unicode = 0126;
},
{
glyphname = Hbrevebelow;
lastChange = "2015-10-12 09:09:53 +0000";
layers = (
{
layerId = "797EEC19-8AF9-42AE-A04D-6994BCC84E1F";
name = Bold;
paths = (
{
closed = 1;
nodes = (
"838 0 LINE",
"838 46 LINE",
"806 46 LINE SMOOTH",
"768 46 OFFCURVE",
"752 59 OFFCURVE",
"752 85 CURVE SMOOTH",
"752 614 LINE SMOOTH",
"752 640 OFFCURVE",
"768 654 OFFCURVE",
"806 654 CURVE SMOOTH",
"838 654 LINE",
"838 700 LINE",
"469 700 LINE",
"469 654 LINE",
"500 654 LINE SMOOTH",
"539 654 OFFCURVE",
"555 640 OFFCURVE",
"555 614 CURVE SMOOTH",
"555 85 LINE SMOOTH",
"555 59 OFFCURVE",
"539 46 OFFCURVE",
"500 46 CURVE SMOOTH",
"469 46 LINE",
"469 0 LINE"
);
},
{
closed = 1;
nodes = (
"563 -210 OFFCURVE",
"590 -124 OFFCURVE",
"590 -53 CURVE",
"545 -53 LINE",
"543 -81 OFFCURVE",
"521 -131 OFFCURVE",
"419 -131 CURVE SMOOTH",
"318 -131 OFFCURVE",
"295 -81 OFFCURVE",
"292 -53 CURVE",
"248 -53 LINE",
"249 -129 OFFCURVE",
"276 -210 OFFCURVE",
"420 -210 CURVE SMOOTH"
);
},
{
closed = 1;
nodes = (
"380 0 LINE",
"380 46 LINE",
"348 46 LINE SMOOTH",
"310 46 OFFCURVE",
"294 59 OFFCURVE",
"294 85 CURVE SMOOTH",
"294 614 LINE SMOOTH",
"294 640 OFFCURVE",
"310 654 OFFCURVE",
"348 654 CURVE SMOOTH",
"380 654 LINE",
"380 700 LINE",
"11 700 LINE",
"11 654 LINE",
"43 654 LINE SMOOTH",
"81 654 OFFCURVE",
"97 640 OFFCURVE",
"97 614 CURVE SMOOTH",
"97 85 LINE SMOOTH",
"97 59 OFFCURVE",
"81 46 OFFCURVE",
"43 46 CURVE SMOOTH",
"11 46 LINE",
"11 0 LINE"
);
},
{
closed = 1;
nodes = (
"640 323 LINE",
"640 389 LINE",
"196 389 LINE",
"196 323 LINE"
);
}
);
width = 849;
}
);
note = Hbrevebelow;
unicode = 1E2A;
},
{
glyphname = Hcircumflex;
lastChange = "2015-10-12 09:09:52 +0000";
layers = (
{
layerId = "797EEC19-8AF9-42AE-A04D-6994BCC84E1F";
name = Bold;
paths = (
{
closed = 1;
nodes = (
"838 0 LINE",
"838 46 LINE",
"806 46 LINE SMOOTH",
"768 46 OFFCURVE",
"752 59 OFFCURVE",
"752 85 CURVE SMOOTH",
"752 614 LINE SMOOTH",
"752 640 OFFCURVE",
"768 654 OFFCURVE",
"806 654 CURVE SMOOTH",
"838 654 LINE",
"838 700 LINE",
"469 700 LINE",
"469 654 LINE",
"500 654 LINE SMOOTH",
"539 654 OFFCURVE",
"555 640 OFFCURVE",
"555 614 CURVE SMOOTH",
"555 85 LINE SMOOTH",
"555 59 OFFCURVE",
"539 46 OFFCURVE",
"500 46 CURVE SMOOTH",
"469 46 LINE",
"469 0 LINE"
);
},
{
closed = 1;
nodes = (
"380 0 LINE",
"380 46 LINE",
"348 46 LINE SMOOTH",
"310 46 OFFCURVE",
"294 59 OFFCURVE",
"294 85 CURVE SMOOTH",
"294 614 LINE SMOOTH",
"294 640 OFFCURVE",
"310 654 OFFCURVE",
"348 654 CURVE SMOOTH",
"380 654 LINE",
"380 700 LINE",
"11 700 LINE",
"11 654 LINE",
"43 654 LINE SMOOTH",
"81 654 OFFCURVE",
"97 640 OFFCURVE",
"97 614 CURVE SMOOTH",
"97 85 LINE SMOOTH",
"97 59 OFFCURVE",
"81 46 OFFCURVE",
"43 46 CURVE SMOOTH",
"11 46 LINE",
"11 0 LINE"
);
},
{
closed = 1;
nodes = (
"640 323 LINE",
"640 389 LINE",
"196 389 LINE",
"196 323 LINE"
);
},
{
closed = 1;
nodes = (
"382 877 LINE SMOOTH",
"398 889 OFFCURVE",
"413 897 OFFCURVE",
"424 897 CURVE SMOOTH",
"435 897 OFFCURVE",
"450 889 OFFCURVE",
"466 877 CURVE SMOOTH",
"604 775 LINE",
"631 804 LINE",
"471 984 LINE",
"377 984 LINE",
"216 804 LINE",
"243 775 LINE"
);
}
);
width = 849;
}
);
note = Hcircumflex;
unicode = 0124;
},
{
glyphname = Hdotbelow;
lastChange = "2015-10-12 09:09:52 +0000";
layers = (
{
layerId = "797EEC19-8AF9-42AE-A04D-6994BCC84E1F";
name = Bold;
paths = (
{
closed = 1;
nodes = (
"838 0 LINE",
"838 46 LINE",
"806 46 LINE SMOOTH",
"768 46 OFFCURVE",
"752 59 OFFCURVE",
"752 85 CURVE SMOOTH",
"752 614 LINE SMOOTH",
"752 640 OFFCURVE",
"768 654 OFFCURVE",
"806 654 CURVE SMOOTH",
"838 654 LINE",
"838 700 LINE",
"469 700 LINE",
"469 654 LINE",
"500 654 LINE SMOOTH",
"539 654 OFFCURVE",
"555 640 OFFCURVE",
"555 614 CURVE SMOOTH",
"555 85 LINE SMOOTH",
"555 59 OFFCURVE",
"539 46 OFFCURVE",
"500 46 CURVE SMOOTH",
"469 46 LINE",
"469 0 LINE"
);
},
{
closed = 1;
nodes = (
"467 -211 OFFCURVE",
"495 -179 OFFCURVE",
"495 -138 CURVE SMOOTH",
"495 -98 OFFCURVE",
"467 -64 OFFCURVE",
"422 -64 CURVE SMOOTH",
"377 -64 OFFCURVE",
"349 -98 OFFCURVE",
"349 -138 CURVE SMOOTH",
"349 -179 OFFCURVE",
"377 -211 OFFCURVE",
"422 -211 CURVE SMOOTH"
);
},
{
closed = 1;
nodes = (
"380 0 LINE",
"380 46 LINE",
"348 46 LINE SMOOTH",
"310 46 OFFCURVE",
"294 59 OFFCURVE",
"294 85 CURVE SMOOTH",
"294 614 LINE SMOOTH",
"294 640 OFFCURVE",
"310 654 OFFCURVE",
"348 654 CURVE SMOOTH",
"380 654 LINE",
"380 700 LINE",
"11 700 LINE",
"11 654 LINE",
"43 654 LINE SMOOTH",
"81 654 OFFCURVE",
"97 640 OFFCURVE",
"97 614 CURVE SMOOTH",
"97 85 LINE SMOOTH",
"97 59 OFFCURVE",
"81 46 OFFCURVE",
"43 46 CURVE SMOOTH",
"11 46 LINE",
"11 0 LINE"
);
},
{
closed = 1;
nodes = (
"640 323 LINE",
"640 389 LINE",
"196 389 LINE",
"196 323 LINE"
);
}
);
width = 849;
}
);
note = Hdotbelow;
unicode = 1E24;
},
{
glyphname = I;
lastChange = "2015-10-12 09:09:51 +0000";
layers = (
{
layerId = "797EEC19-8AF9-42AE-A04D-6994BCC84E1F";
name = Bold;
paths = (
{
closed = 1;
nodes = (
"386 0 LINE",
"386 46 LINE",
"354 46 LINE SMOOTH",
"316 46 OFFCURVE",
"300 59 OFFCURVE",
"300 85 CURVE SMOOTH",
"300 614 LINE SMOOTH",
"300 640 OFFCURVE",
"316 654 OFFCURVE",
"354 654 CURVE SMOOTH",
"386 654 LINE",
"386 700 LINE",
"17 700 LINE",
"17 654 LINE",
"48 654 LINE SMOOTH",
"86 654 OFFCURVE",
"103 640 OFFCURVE",
"103 614 CURVE SMOOTH",
"103 85 LINE SMOOTH",
"103 59 OFFCURVE",
"86 46 OFFCURVE",
"48 46 CURVE SMOOTH",
"17 46 LINE",
"17 0 LINE"
);
}
);
width = 403;
}
);
note = I;
unicode = 0049;
},
{
glyphname = IJ;
lastChange = "2015-10-12 09:09:53 +0000";
layers = (
{
layerId = "797EEC19-8AF9-42AE-A04D-6994BCC84E1F";
name = Bold;
paths = (
{
closed = 1;
nodes = (
"624 -114 OFFCURVE",
"753 -40 OFFCURVE",
"753 137 CURVE SMOOTH",
"753 614 LINE SMOOTH",
"753 640 OFFCURVE",
"769 654 OFFCURVE",
"807 654 CURVE SMOOTH",
"839 654 LINE",
"839 700 LINE",
"470 700 LINE",
"470 654 LINE",
"502 654 LINE SMOOTH",
"540 654 OFFCURVE",
"556 640 OFFCURVE",
"556 614 CURVE SMOOTH",
"556 140 LINE SMOOTH",
"556 35 OFFCURVE",
"544 -53 OFFCURVE",
"439 -84 CURVE",
"445 -114 LINE"
);
},
{
closed = 1;
nodes = (
"386 0 LINE",
"386 46 LINE",
"354 46 LINE SMOOTH",
"316 46 OFFCURVE",
"300 59 OFFCURVE",
"300 85 CURVE SMOOTH",
"300 614 LINE SMOOTH",
"300 640 OFFCURVE",
"316 654 OFFCURVE",
"354 654 CURVE SMOOTH",
"386 654 LINE",
"386 700 LINE",
"17 700 LINE",
"17 654 LINE",
"48 654 LINE SMOOTH",
"86 654 OFFCURVE",
"103 640 OFFCURVE",
"103 614 CURVE SMOOTH",
"103 85 LINE SMOOTH",
"103 59 OFFCURVE",
"86 46 OFFCURVE",
"48 46 CURVE SMOOTH",
"17 46 LINE",
"17 0 LINE"
);
}
);
width = 857;
}
);
note = IJ;
rightKerningGroup = J;
unicode = 0132;
},
{
glyphname = Iacute;
lastChange = "2015-10-12 09:09:53 +0000";
layers = (
{
layerId = "797EEC19-8AF9-42AE-A04D-6994BCC84E1F";
name = Bold;
paths = (
{
closed = 1;
nodes = (
"386 0 LINE",
"386 46 LINE",
"354 46 LINE SMOOTH",
"316 46 OFFCURVE",
"300 59 OFFCURVE",
"300 85 CURVE SMOOTH",
"300 614 LINE SMOOTH",
"300 640 OFFCURVE",
"316 654 OFFCURVE",
"354 654 CURVE SMOOTH",
"386 654 LINE",
"386 700 LINE",
"17 700 LINE",
"17 654 LINE",
"48 654 LINE SMOOTH",
"86 654 OFFCURVE",
"103 640 OFFCURVE",
"103 614 CURVE SMOOTH",
"103 85 LINE SMOOTH",
"103 59 OFFCURVE",
"86 46 OFFCURVE",
"48 46 CURVE SMOOTH",
"17 46 LINE",
"17 0 LINE"
);
},
{
closed = 1;
nodes = (
"273 873 LINE SMOOTH",
"310 895 OFFCURVE",
"332 917 OFFCURVE",
"332 945 CURVE SMOOTH",
"332 969 OFFCURVE",
"315 998 OFFCURVE",
"270 998 CURVE SMOOTH",
"231 998 OFFCURVE",
"202 964 OFFCURVE",
"196 957 CURVE",
"70 821 LINE",
"104 774 LINE"
);
}
);
width = 403;
}
);
note = Iacute;
unicode = 00CD;
},
{
glyphname = Ibreve;
lastChange = "2015-10-12 09:09:53 +0000";
layers = (
{
layerId = "797EEC19-8AF9-42AE-A04D-6994BCC84E1F";
name = Bold;
paths = (
{
closed = 1;
nodes = (
"386 0 LINE",
"386 46 LINE",
"354 46 LINE SMOOTH",
"316 46 OFFCURVE",
"300 59 OFFCURVE",
"300 85 CURVE SMOOTH",
"300 614 LINE SMOOTH",
"300 640 OFFCURVE",
"316 654 OFFCURVE",
"354 654 CURVE SMOOTH",
"386 654 LINE",
"386 700 LINE",
"17 700 LINE",
"17 654 LINE",
"48 654 LINE SMOOTH",
"86 654 OFFCURVE",
"103 640 OFFCURVE",
"103 614 CURVE SMOOTH",
"103 85 LINE SMOOTH",
"103 59 OFFCURVE",
"86 46 OFFCURVE",
"48 46 CURVE SMOOTH",
"17 46 LINE",
"17 0 LINE"
);
},
{
closed = 1;
nodes = (
"344 777 OFFCURVE",
"371 863 OFFCURVE",
"371 934 CURVE",
"326 934 LINE",
"324 906 OFFCURVE",
"302 856 OFFCURVE",
"200 856 CURVE SMOOTH",
"99 856 OFFCURVE",
"76 906 OFFCURVE",
"73 934 CURVE",
"29 934 LINE",
"30 858 OFFCURVE",
"57 777 OFFCURVE",
"201 777 CURVE SMOOTH"
);
}
);
width = 403;
}
);
note = Ibreve;
unicode = 012C;
},
{
glyphname = Icaron;
lastChange = "2015-10-12 09:09:53 +0000";
layers = (
{
layerId = "797EEC19-8AF9-42AE-A04D-6994BCC84E1F";
name = Bold;
paths = (
{
closed = 1;
nodes = (
"386 0 LINE",
"386 46 LINE",
"354 46 LINE SMOOTH",
"316 46 OFFCURVE",
"300 59 OFFCURVE",
"300 85 CURVE SMOOTH",
"300 614 LINE SMOOTH",
"300 640 OFFCURVE",
"316 654 OFFCURVE",
"354 654 CURVE SMOOTH",
"386 654 LINE",
"386 700 LINE",
"17 700 LINE",
"17 654 LINE",
"48 654 LINE SMOOTH",
"86 654 OFFCURVE",
"103 640 OFFCURVE",
"103 614 CURVE SMOOTH",
"103 85 LINE SMOOTH",
"103 59 OFFCURVE",
"86 46 OFFCURVE",
"48 46 CURVE SMOOTH",
"17 46 LINE",
"17 0 LINE"
);
},
{
closed = 1;
nodes = (
"248 775 LINE",
"408 955 LINE",
"381 984 LINE",
"243 882 LINE SMOOTH",
"227 870 OFFCURVE",
"212 862 OFFCURVE",
"201 862 CURVE SMOOTH",
"190 862 OFFCURVE",
"175 870 OFFCURVE",
"159 882 CURVE SMOOTH",
"20 984 LINE",
"-7 955 LINE",
"154 775 LINE"
);
}
);
width = 403;
}
);
note = Icaron;
unicode = 01CF;
},
{
glyphname = Icircumflex;
lastChange = "2015-10-12 09:09:52 +0000";
layers = (
{
layerId = "797EEC19-8AF9-42AE-A04D-6994BCC84E1F";
name = Bold;
paths = (
{
closed = 1;
nodes = (
"386 0 LINE",
"386 46 LINE",
"354 46 LINE SMOOTH",
"316 46 OFFCURVE",
"300 59 OFFCURVE",
"300 85 CURVE SMOOTH",
"300 614 LINE SMOOTH",
"300 640 OFFCURVE",
"316 654 OFFCURVE",
"354 654 CURVE SMOOTH",
"386 654 LINE",
"386 700 LINE",
"17 700 LINE",
"17 654 LINE",
"48 654 LINE SMOOTH",
"86 654 OFFCURVE",
"103 640 OFFCURVE",
"103 614 CURVE SMOOTH",
"103 85 LINE SMOOTH",
"103 59 OFFCURVE",
"86 46 OFFCURVE",
"48 46 CURVE SMOOTH",
"17 46 LINE",
"17 0 LINE"
);
},
{
closed = 1;
nodes = (
"159 877 LINE SMOOTH",
"175 889 OFFCURVE",
"190 897 OFFCURVE",
"201 897 CURVE SMOOTH",
"212 897 OFFCURVE",
"227 889 OFFCURVE",
"243 877 CURVE SMOOTH",
"381 775 LINE",
"408 804 LINE",
"248 984 LINE",
"154 984 LINE",
"-7 804 LINE",
"20 775 LINE"
);
}
);
width = 403;
}
);
note = Icircumflex;
unicode = 00CE;
},
{
glyphname = Idieresis;
lastChange = "2015-10-12 09:09:52 +0000";
layers = (
{
layerId = "797EEC19-8AF9-42AE-A04D-6994BCC84E1F";
name = Bold;
paths = (
{
closed = 1;
nodes = (
"386 0 LINE",
"386 46 LINE",
"354 46 LINE SMOOTH",
"316 46 OFFCURVE",
"300 59 OFFCURVE",
"300 85 CURVE SMOOTH",
"300 614 LINE SMOOTH",
"300 640 OFFCURVE",
"316 654 OFFCURVE",
"354 654 CURVE SMOOTH",
"386 654 LINE",
"386 700 LINE",
"17 700 LINE",
"17 654 LINE",
"48 654 LINE SMOOTH",
"86 654 OFFCURVE",
"103 640 OFFCURVE",
"103 614 CURVE SMOOTH",
"103 85 LINE SMOOTH",
"103 59 OFFCURVE",
"86 46 OFFCURVE",
"48 46 CURVE SMOOTH",
"17 46 LINE",
"17 0 LINE"
);
},
{
closed = 1;
nodes = (
"123 775 OFFCURVE",
"151 807 OFFCURVE",
"151 847 CURVE SMOOTH",
"151 888 OFFCURVE",
"123 921 OFFCURVE",
"77 921 CURVE SMOOTH",
"32 921 OFFCURVE",
"5 888 OFFCURVE",
"5 847 CURVE SMOOTH",
"5 807 OFFCURVE",
"32 775 OFFCURVE",
"77 775 CURVE SMOOTH"
);
},
{
closed = 1;
nodes = (
"368 775 OFFCURVE",
"396 807 OFFCURVE",
"396 847 CURVE SMOOTH",
"396 888 OFFCURVE",
"368 921 OFFCURVE",
"323 921 CURVE SMOOTH",
"277 921 OFFCURVE",
"250 888 OFFCURVE",
"250 847 CURVE SMOOTH",
"250 807 OFFCURVE",
"277 775 OFFCURVE",
"323 775 CURVE SMOOTH"
);
}
);
width = 403;
}
);
note = Idieresis;
unicode = 00CF;
},
{
glyphname = Idotaccent;
lastChange = "2015-10-12 09:09:52 +0000";
layers = (
{
layerId = "797EEC19-8AF9-42AE-A04D-6994BCC84E1F";
name = Bold;
paths = (
{
closed = 1;
nodes = (
"386 0 LINE",
"386 46 LINE",
"354 46 LINE SMOOTH",
"316 46 OFFCURVE",
"300 59 OFFCURVE",
"300 85 CURVE SMOOTH",
"300 614 LINE SMOOTH",
"300 640 OFFCURVE",
"316 654 OFFCURVE",
"354 654 CURVE SMOOTH",
"386 654 LINE",
"386 700 LINE",
"17 700 LINE",
"17 654 LINE",
"48 654 LINE SMOOTH",
"86 654 OFFCURVE",
"103 640 OFFCURVE",
"103 614 CURVE SMOOTH",
"103 85 LINE SMOOTH",
"103 59 OFFCURVE",
"86 46 OFFCURVE",
"48 46 CURVE SMOOTH",
"17 46 LINE",
"17 0 LINE"
);
},
{
closed = 1;
nodes = (
"245 774 OFFCURVE",
"273 805 OFFCURVE",
"273 846 CURVE SMOOTH",
"273 886 OFFCURVE",
"245 919 OFFCURVE",
"200 919 CURVE SMOOTH",
"155 919 OFFCURVE",
"128 886 OFFCURVE",
"128 846 CURVE SMOOTH",
"128 805 OFFCURVE",
"155 774 OFFCURVE",
"200 774 CURVE SMOOTH"
);
}
);
width = 403;
}
);
note = Idotaccent;
unicode = 0130;
},
{
glyphname = Idotbelow;
lastChange = "2015-10-12 09:09:53 +0000";
layers = (
{
layerId = "797EEC19-8AF9-42AE-A04D-6994BCC84E1F";
name = Bold;
paths = (
{
closed = 1;
nodes = (
"386 0 LINE",
"386 46 LINE",
"354 46 LINE SMOOTH",
"316 46 OFFCURVE",
"300 59 OFFCURVE",
"300 85 CURVE SMOOTH",
"300 614 LINE SMOOTH",
"300 640 OFFCURVE",
"316 654 OFFCURVE",
"354 654 CURVE SMOOTH",
"386 654 LINE",
"386 700 LINE",
"17 700 LINE",
"17 654 LINE",
"48 654 LINE SMOOTH",
"86 654 OFFCURVE",
"103 640 OFFCURVE",
"103 614 CURVE SMOOTH",
"103 85 LINE SMOOTH",
"103 59 OFFCURVE",
"86 46 OFFCURVE",
"48 46 CURVE SMOOTH",
"17 46 LINE",
"17 0 LINE"
);
},
{
closed = 1;
nodes = (
"246 -211 OFFCURVE",
"274 -179 OFFCURVE",
"274 -138 CURVE SMOOTH",
"274 -98 OFFCURVE",
"246 -64 OFFCURVE",
"201 -64 CURVE SMOOTH",
"156 -64 OFFCURVE",
"128 -98 OFFCURVE",
"128 -138 CURVE SMOOTH",
"128 -179 OFFCURVE",
"156 -211 OFFCURVE",
"201 -211 CURVE SMOOTH"
);
}
);
width = 403;
}
);
note = Idotbelow;
unicode = 1ECA;
},
{
glyphname = Igrave;
lastChange = "2015-10-12 09:09:53 +0000";
layers = (
{
layerId = "797EEC19-8AF9-42AE-A04D-6994BCC84E1F";
name = Bold;
paths = (
{
closed = 1;
nodes = (
"386 0 LINE",
"386 46 LINE",
"354 46 LINE SMOOTH",
"316 46 OFFCURVE",
"300 59 OFFCURVE",
"300 85 CURVE SMOOTH",
"300 614 LINE SMOOTH",
"300 640 OFFCURVE",
"316 654 OFFCURVE",
"354 654 CURVE SMOOTH",
"386 654 LINE",
"386 700 LINE",
"17 700 LINE",
"17 654 LINE",
"48 654 LINE SMOOTH",
"86 654 OFFCURVE",
"103 640 OFFCURVE",
"103 614 CURVE SMOOTH",
"103 85 LINE SMOOTH",
"103 59 OFFCURVE",
"86 46 OFFCURVE",
"48 46 CURVE SMOOTH",
"17 46 LINE",
"17 0 LINE"
);
},
{
closed = 1;
nodes = (
"332 821 LINE",
"207 957 LINE",
"200 964 OFFCURVE",
"170 998 OFFCURVE",
"131 998 CURVE SMOOTH",
"87 998 OFFCURVE",
"70 969 OFFCURVE",
"70 946 CURVE SMOOTH",
"70 917 OFFCURVE",
"91 895 OFFCURVE",
"128 873 CURVE SMOOTH",
"298 774 LINE"
);
}
);
width = 403;
}
);
note = Igrave;
unicode = 00CC;
},
{
glyphname = Ihookabove;
lastChange = "2015-10-12 09:09:53 +0000";
layers = (
{
layerId = "797EEC19-8AF9-42AE-A04D-6994BCC84E1F";
name = Bold;
paths = (
{
closed = 1;
nodes = (
"386 0 LINE",
"386 46 LINE",
"354 46 LINE SMOOTH",
"316 46 OFFCURVE",
"300 59 OFFCURVE",
"300 85 CURVE SMOOTH",
"300 614 LINE SMOOTH",
"300 640 OFFCURVE",
"316 654 OFFCURVE",
"354 654 CURVE SMOOTH",
"386 654 LINE",
"386 700 LINE",
"17 700 LINE",
"17 654 LINE",
"48 654 LINE SMOOTH",
"86 654 OFFCURVE",
"103 640 OFFCURVE",
"103 614 CURVE SMOOTH",
"103 85 LINE SMOOTH",
"103 59 OFFCURVE",
"86 46 OFFCURVE",
"48 46 CURVE SMOOTH",
"17 46 LINE",
"17 0 LINE"
);
},
{
closed = 1;
nodes = (
"232 801 LINE",
"219 802 OFFCURVE",
"203 805 OFFCURVE",
"203 827 CURVE SMOOTH",
"203 875 OFFCURVE",
"322 882 OFFCURVE",
"322 952 CURVE SMOOTH",
"322 1005 OFFCURVE",
"264 1030 OFFCURVE",
"200 1030 CURVE SMOOTH",
"108 1030 OFFCURVE",
"80 989 OFFCURVE",
"80 964 CURVE SMOOTH",
"80 938 OFFCURVE",
"99 927 OFFCURVE",
"118 927 CURVE SMOOTH",
"139 927 OFFCURVE",
"155 940 OFFCURVE",
"156 958 CURVE",
"156 987 OFFCURVE",
"181 994 OFFCURVE",
"198 994 CURVE SMOOTH",
"221 994 OFFCURVE",
"231 977 OFFCURVE",
"231 960 CURVE SMOOTH",
"231 896 OFFCURVE",
"135 883 OFFCURVE",
"135 829 CURVE SMOOTH",
"135 794 OFFCURVE",
"176 775 OFFCURVE",
"224 775 CURVE"
);
}
);
width = 403;
}
);
note = Ihookabove;
unicode = 1EC8;
},
{
glyphname = Iogonek;
lastChange = "2015-10-12 09:09:53 +0000";
layers = (
{
layerId = "797EEC19-8AF9-42AE-A04D-6994BCC84E1F";
name = Bold;
paths = (
{
closed = 1;
nodes = (
"386 0 LINE",
"386 46 LINE",
"354 46 LINE SMOOTH",
"316 46 OFFCURVE",
"300 59 OFFCURVE",
"300 85 CURVE SMOOTH",
"300 614 LINE SMOOTH",
"300 640 OFFCURVE",
"316 654 OFFCURVE",
"354 654 CURVE SMOOTH",
"386 654 LINE",
"386 700 LINE",
"17 700 LINE",
"17 654 LINE",
"48 654 LINE SMOOTH",
"86 654 OFFCURVE",
"103 640 OFFCURVE",
"103 614 CURVE SMOOTH",
"103 85 LINE SMOOTH",
"103 59 OFFCURVE",
"86 46 OFFCURVE",
"48 46 CURVE SMOOTH",
"17 46 LINE",
"17 0 LINE"
);
},
{
closed = 1;
nodes = (
"275 -239 OFFCURVE",
"318 -225 OFFCURVE",
"355 -195 CURVE",
"340 -168 LINE",
"327 -175 OFFCURVE",
"305 -181 OFFCURVE",
"290 -181 CURVE SMOOTH",
"256 -181 OFFCURVE",
"231 -161 OFFCURVE",
"230 -119 CURVE",
"230 -78 OFFCURVE",
"252 -33 OFFCURVE",
"307 12 CURVE",
"243 12 LINE",
"176 -23 OFFCURVE",
"119 -78 OFFCURVE",
"119 -138 CURVE SMOOTH",
"119 -175 OFFCURVE",
"140 -239 OFFCURVE",
"244 -239 CURVE SMOOTH"
);
}
);
width = 403;
}
);
note = Iogonek;
unicode = 012E;
},
{
glyphname = Itilde;
lastChange = "2015-10-12 09:09:52 +0000";
layers = (
{
layerId = "797EEC19-8AF9-42AE-A04D-6994BCC84E1F";
name = Bold;
paths = (
{
closed = 1;
nodes = (
"386 0 LINE",
"386 46 LINE",
"354 46 LINE SMOOTH",
"316 46 OFFCURVE",
"300 59 OFFCURVE",
"300 85 CURVE SMOOTH",
"300 614 LINE SMOOTH",
"300 640 OFFCURVE",
"316 654 OFFCURVE",
"354 654 CURVE SMOOTH",
"386 654 LINE",
"386 700 LINE",
"17 700 LINE",
"17 654 LINE",
"48 654 LINE SMOOTH",
"86 654 OFFCURVE",
"103 640 OFFCURVE",
"103 614 CURVE SMOOTH",
"103 85 LINE SMOOTH",
"103 59 OFFCURVE",
"86 46 OFFCURVE",
"48 46 CURVE SMOOTH",
"17 46 LINE",
"17 0 LINE"
);
},
{
closed = 1;
nodes = (
"51 811 OFFCURVE",
"68 828 OFFCURVE",
"106 828 CURVE SMOOTH",
"171 828 OFFCURVE",
"229 783 OFFCURVE",
"292 783 CURVE SMOOTH",
"374 783 OFFCURVE",
"411 862 OFFCURVE",
"428 907 CURVE",
"396 925 LINE",
"374 885 OFFCURVE",
"358 868 OFFCURVE",
"319 868 CURVE SMOOTH",
"254 868 OFFCURVE",
"197 913 OFFCURVE",
"133 913 CURVE SMOOTH",
"51 913 OFFCURVE",
"15 834 OFFCURVE",
"-4 789 CURVE",
"29 771 LINE"
);
}
);
width = 403;
}
);
note = Itilde;
unicode = 0128;
},
{
glyphname = J;
lastChange = "2015-10-12 09:09:51 +0000";
layers = (
{
layerId = "797EEC19-8AF9-42AE-A04D-6994BCC84E1F";
name = Bold;
paths = (
{
closed = 1;
nodes = (
"232 -114 OFFCURVE",
"361 -40 OFFCURVE",
"361 137 CURVE SMOOTH",
"361 614 LINE SMOOTH",
"361 640 OFFCURVE",
"377 654 OFFCURVE",
"415 654 CURVE SMOOTH",
"447 654 LINE",
"447 700 LINE",
"78 700 LINE",
"78 654 LINE",
"110 654 LINE SMOOTH",
"148 654 OFFCURVE",
"164 640 OFFCURVE",
"164 614 CURVE SMOOTH",
"164 140 LINE SMOOTH",
"164 35 OFFCURVE",
"152 -53 OFFCURVE",
"47 -84 CURVE",
"53 -114 LINE"
);
}
);
width = 464;
}
);
leftKerningGroup = J;
note = J;
rightKerningGroup = J;
unicode = 004A;
},
{
glyphname = Jcircumflex;
lastChange = "2015-10-12 09:09:53 +0000";
layers = (
{
layerId = "797EEC19-8AF9-42AE-A04D-6994BCC84E1F";
name = Bold;
paths = (
{
closed = 1;
nodes = (
"232 -114 OFFCURVE",
"361 -40 OFFCURVE",
"361 137 CURVE SMOOTH",
"361 614 LINE SMOOTH",
"361 640 OFFCURVE",
"377 654 OFFCURVE",
"415 654 CURVE SMOOTH",
"447 654 LINE",
"447 700 LINE",
"78 700 LINE",
"78 654 LINE",
"110 654 LINE SMOOTH",
"148 654 OFFCURVE",
"164 640 OFFCURVE",
"164 614 CURVE SMOOTH",
"164 140 LINE SMOOTH",
"164 35 OFFCURVE",
"152 -53 OFFCURVE",
"47 -84 CURVE",
"53 -114 LINE"
);
},
{
closed = 1;
nodes = (
"216 878 LINE SMOOTH",
"232 890 OFFCURVE",
"247 898 OFFCURVE",
"258 898 CURVE SMOOTH",
"269 898 OFFCURVE",
"284 890 OFFCURVE",
"300 878 CURVE SMOOTH",
"438 776 LINE",
"465 805 LINE",
"305 985 LINE",
"211 985 LINE",
"50 805 LINE",
"77 776 LINE"
);
}
);
width = 464;
}
);
leftKerningGroup = J;
note = Jcircumflex;
rightKerningGroup = J;
unicode = 0134;
},
{
glyphname = K;
lastChange = "2015-10-12 09:09:53 +0000";
layers = (
{
layerId = "797EEC19-8AF9-42AE-A04D-6994BCC84E1F";
name = Bold;
paths = (
{
closed = 1;
nodes = (
"380 0 LINE",
"380 46 LINE",
"348 46 LINE SMOOTH",
"310 46 OFFCURVE",
"294 59 OFFCURVE",
"294 85 CURVE SMOOTH",
"294 614 LINE SMOOTH",
"294 640 OFFCURVE",
"310 654 OFFCURVE",
"348 654 CURVE SMOOTH",
"380 654 LINE",
"380 700 LINE",
"11 700 LINE",
"11 654 LINE",
"43 654 LINE SMOOTH",
"81 654 OFFCURVE",
"97 640 OFFCURVE",
"97 614 CURVE SMOOTH",
"97 85 LINE SMOOTH",
"97 59 OFFCURVE",
"81 46 OFFCURVE",
"43 46 CURVE SMOOTH",
"11 46 LINE",
"11 0 LINE"
);
},
{
closed = 1;
nodes = (
"819 0 LINE",
"819 46 LINE",
"787 46 LINE SMOOTH",
"754 46 OFFCURVE",
"717 68 OFFCURVE",
"691 97 CURVE SMOOTH",
"409 404 LINE",
"282 294 LINE",
"558 0 LINE"
);
},
{
closed = 1;
nodes = (
"678 635 LINE SMOOTH",
"690 646 OFFCURVE",
"710 654 OFFCURVE",
"731 654 CURVE SMOOTH",
"760 654 LINE",
"760 700 LINE",
"507 700 LINE",
"507 654 LINE",
"523 654 LINE SMOOTH",
"549 654 OFFCURVE",
"559 646 OFFCURVE",
"559 636 CURVE SMOOTH",
"559 629 OFFCURVE",
"555 623 OFFCURVE",
"549 617 CURVE",
"284 381 LINE",
"284 281 LINE"
);
}
);
width = 825;
}
);
note = K;
rightKerningGroup = K;
unicode = 004B;
},
{
glyphname = Kcommaaccent;
lastChange = "2015-10-12 09:09:53 +0000";
layers = (
{
layerId = "797EEC19-8AF9-42AE-A04D-6994BCC84E1F";
name = Bold;
paths = (
{
closed = 1;
nodes = (
"380 0 LINE",
"380 46 LINE",
"348 46 LINE SMOOTH",
"310 46 OFFCURVE",
"294 59 OFFCURVE",
"294 85 CURVE SMOOTH",
"294 614 LINE SMOOTH",
"294 640 OFFCURVE",
"310 654 OFFCURVE",
"348 654 CURVE SMOOTH",
"380 654 LINE",
"380 700 LINE",
"11 700 LINE",
"11 654 LINE",
"43 654 LINE SMOOTH",
"81 654 OFFCURVE",
"97 640 OFFCURVE",
"97 614 CURVE SMOOTH",
"97 85 LINE SMOOTH",
"97 59 OFFCURVE",
"81 46 OFFCURVE",
"43 46 CURVE SMOOTH",
"11 46 LINE",
"11 0 LINE"
);
},
{
closed = 1;
nodes = (
"431 -354 OFFCURVE",
"512 -268 OFFCURVE",
"512 -182 CURVE SMOOTH",
"512 -115 OFFCURVE",
"473 -76 OFFCURVE",
"424 -76 CURVE SMOOTH",
"377 -76 OFFCURVE",
"348 -108 OFFCURVE",
"348 -143 CURVE SMOOTH",
"348 -187 OFFCURVE",
"393 -205 OFFCURVE",
"393 -250 CURVE SMOOTH",
"393 -295 OFFCURVE",
"368 -335 OFFCURVE",
"333 -371 CURVE",
"362 -398 LINE"
);
},
{
closed = 1;
nodes = (
"819 0 LINE",
"819 46 LINE",
"787 46 LINE SMOOTH",
"754 46 OFFCURVE",
"717 68 OFFCURVE",
"691 97 CURVE SMOOTH",
"409 404 LINE",
"282 294 LINE",
"558 0 LINE"
);
},
{
closed = 1;
nodes = (
"678 635 LINE SMOOTH",
"690 646 OFFCURVE",
"710 654 OFFCURVE",
"731 654 CURVE SMOOTH",
"760 654 LINE",
"760 700 LINE",
"507 700 LINE",
"507 654 LINE",
"523 654 LINE SMOOTH",
"549 654 OFFCURVE",
"559 646 OFFCURVE",
"559 636 CURVE SMOOTH",
"559 629 OFFCURVE",
"555 623 OFFCURVE",
"549 617 CURVE",
"284 381 LINE",
"284 281 LINE"
);
}
);
width = 825;
}
);
note = Kcommaaccent;
rightKerningGroup = K;
unicode = 0136;
},
{
glyphname = L;
lastChange = "2015-10-12 09:09:51 +0000";
layers = (
{
layerId = "797EEC19-8AF9-42AE-A04D-6994BCC84E1F";
name = Bold;
paths = (
{
closed = 1;
nodes = (
"663 0 LINE",
"685 217 LINE",
"634 217 LINE",
"627 175 OFFCURVE",
"598 65 OFFCURVE",
"529 65 CURVE SMOOTH",
"359 65 LINE SMOOTH",
"322 65 OFFCURVE",
"300 81 OFFCURVE",
"300 118 CURVE SMOOTH",
"300 614 LINE SMOOTH",
"300 640 OFFCURVE",
"316 654 OFFCURVE",
"354 654 CURVE SMOOTH",
"386 654 LINE",
"386 700 LINE",
"17 700 LINE",
"17 654 LINE",
"48 654 LINE SMOOTH",
"86 654 OFFCURVE",
"103 640 OFFCURVE",
"103 614 CURVE SMOOTH",
"103 85 LINE SMOOTH",
"103 59 OFFCURVE",
"86 46 OFFCURVE",
"48 46 CURVE SMOOTH",
"17 46 LINE",
"17 0 LINE"
);
}
);
width = 705;
}
);
note = L;
rightKerningGroup = L;
unicode = 004C;
},
{
glyphname = Lacute;
lastChange = "2015-10-12 09:09:53 +0000";
layers = (
{
layerId = "797EEC19-8AF9-42AE-A04D-6994BCC84E1F";
name = Bold;
paths = (
{
closed = 1;
nodes = (
"663 0 LINE",
"685 217 LINE",
"634 217 LINE",
"627 175 OFFCURVE",
"598 65 OFFCURVE",
"529 65 CURVE SMOOTH",
"359 65 LINE SMOOTH",
"322 65 OFFCURVE",
"300 81 OFFCURVE",
"300 118 CURVE SMOOTH",
"300 614 LINE SMOOTH",
"300 640 OFFCURVE",
"316 654 OFFCURVE",
"354 654 CURVE SMOOTH",
"386 654 LINE",
"386 700 LINE",
"17 700 LINE",
"17 654 LINE",
"48 654 LINE SMOOTH",
"86 654 OFFCURVE",
"103 640 OFFCURVE",
"103 614 CURVE SMOOTH",
"103 85 LINE SMOOTH",
"103 59 OFFCURVE",
"86 46 OFFCURVE",
"48 46 CURVE SMOOTH",
"17 46 LINE",
"17 0 LINE"
);
},
{
closed = 1;
nodes = (
"298 873 LINE SMOOTH",
"335 895 OFFCURVE",
"357 917 OFFCURVE",
"357 945 CURVE SMOOTH",
"357 969 OFFCURVE",
"340 998 OFFCURVE",
"295 998 CURVE SMOOTH",
"256 998 OFFCURVE",
"227 964 OFFCURVE",
"221 957 CURVE",
"95 821 LINE",
"129 774 LINE"
);
}
);
width = 705;
}
);
note = Lacute;
rightKerningGroup = L;
unicode = 0139;
},
{
glyphname = Lcaron;
lastChange = "2015-10-12 09:09:53 +0000";
layers = (
{
layerId = "797EEC19-8AF9-42AE-A04D-6994BCC84E1F";
name = Bold;
paths = (
{
closed = 1;
nodes = (
"663 0 LINE",
"685 217 LINE",
"634 217 LINE",
"627 175 OFFCURVE",
"598 65 OFFCURVE",
"529 65 CURVE SMOOTH",
"359 65 LINE SMOOTH",
"322 65 OFFCURVE",
"300 81 OFFCURVE",
"300 118 CURVE SMOOTH",
"300 614 LINE SMOOTH",
"300 640 OFFCURVE",
"316 654 OFFCURVE",
"354 654 CURVE SMOOTH",
"386 654 LINE",
"386 700 LINE",
"17 700 LINE",
"17 654 LINE",
"48 654 LINE SMOOTH",
"86 654 OFFCURVE",
"103 640 OFFCURVE",
"103 614 CURVE SMOOTH",
"103 85 LINE SMOOTH",
"103 59 OFFCURVE",
"86 46 OFFCURVE",
"48 46 CURVE SMOOTH",
"17 46 LINE",
"17 0 LINE"
);
},
{
closed = 1;
nodes = (
"555 432 OFFCURVE",
"636 518 OFFCURVE",
"636 604 CURVE SMOOTH",
"636 671 OFFCURVE",
"598 709 OFFCURVE",
"548 709 CURVE SMOOTH",
"501 709 OFFCURVE",
"473 678 OFFCURVE",
"473 643 CURVE SMOOTH",
"473 599 OFFCURVE",
"517 580 OFFCURVE",
"517 535 CURVE SMOOTH",
"517 490 OFFCURVE",
"492 450 OFFCURVE",
"457 414 CURVE",
"487 387 LINE"
);
}
);
width = 705;
}
);
note = Lcaron;
rightKerningGroup = L;
unicode = 013D;
},
{
glyphname = Lcommaaccent;
lastChange = "2015-10-12 09:09:53 +0000";
layers = (
{
layerId = "797EEC19-8AF9-42AE-A04D-6994BCC84E1F";
name = Bold;
paths = (
{
closed = 1;
nodes = (
"663 0 LINE",
"685 217 LINE",
"634 217 LINE",
"627 175 OFFCURVE",
"598 65 OFFCURVE",
"529 65 CURVE SMOOTH",
"359 65 LINE SMOOTH",
"322 65 OFFCURVE",
"300 81 OFFCURVE",
"300 118 CURVE SMOOTH",
"300 614 LINE SMOOTH",
"300 640 OFFCURVE",
"316 654 OFFCURVE",
"354 654 CURVE SMOOTH",
"386 654 LINE",
"386 700 LINE",
"17 700 LINE",
"17 654 LINE",
"48 654 LINE SMOOTH",
"86 654 OFFCURVE",
"103 640 OFFCURVE",
"103 614 CURVE SMOOTH",
"103 85 LINE SMOOTH",
"103 59 OFFCURVE",
"86 46 OFFCURVE",
"48 46 CURVE SMOOTH",
"17 46 LINE",
"17 0 LINE"
);
},
{
closed = 1;
nodes = (
"352 -354 OFFCURVE",
"433 -268 OFFCURVE",
"433 -182 CURVE SMOOTH",
"433 -115 OFFCURVE",
"394 -76 OFFCURVE",
"345 -76 CURVE SMOOTH",
"298 -76 OFFCURVE",
"269 -108 OFFCURVE",
"269 -143 CURVE SMOOTH",
"269 -187 OFFCURVE",
"314 -205 OFFCURVE",
"314 -250 CURVE SMOOTH",
"314 -295 OFFCURVE",
"289 -335 OFFCURVE",
"254 -371 CURVE",
"283 -398 LINE"
);
}
);
width = 705;
}
);
note = Lcommaaccent;
rightKerningGroup = L;
unicode = 013B;
},
{
glyphname = Ldot;
lastChange = "2015-10-12 09:09:52 +0000";
layers = (
{
layerId = "797EEC19-8AF9-42AE-A04D-6994BCC84E1F";
name = Bold;
paths = (
{
closed = 1;
nodes = (
"663 0 LINE",
"685 217 LINE",
"634 217 LINE",
"627 175 OFFCURVE",
"598 65 OFFCURVE",
"529 65 CURVE SMOOTH",
"359 65 LINE SMOOTH",
"322 65 OFFCURVE",
"300 81 OFFCURVE",
"300 118 CURVE SMOOTH",
"300 614 LINE SMOOTH",
"300 640 OFFCURVE",
"316 654 OFFCURVE",
"354 654 CURVE SMOOTH",
"386 654 LINE",
"386 700 LINE",
"17 700 LINE",
"17 654 LINE",
"48 654 LINE SMOOTH",
"86 654 OFFCURVE",
"103 640 OFFCURVE",
"103 614 CURVE SMOOTH",
"103 85 LINE SMOOTH",
"103 59 OFFCURVE",
"86 46 OFFCURVE",
"48 46 CURVE SMOOTH",
"17 46 LINE",
"17 0 LINE"
);
},
{
closed = 1;
nodes = (
"539 319 OFFCURVE",
"567 351 OFFCURVE",
"567 391 CURVE SMOOTH",
"567 432 OFFCURVE",
"539 464 OFFCURVE",
"493 464 CURVE SMOOTH",
"448 464 OFFCURVE",
"421 432 OFFCURVE",
"421 391 CURVE SMOOTH",
"421 351 OFFCURVE",
"448 319 OFFCURVE",
"493 319 CURVE SMOOTH"
);
}
);
width = 705;
}
);
note = Ldot;
rightKerningGroup = L;
unicode = 013F;
},
{
glyphname = Ldotbelow;
lastChange = "2015-10-12 09:09:52 +0000";
layers = (
{
layerId = "797EEC19-8AF9-42AE-A04D-6994BCC84E1F";
name = Bold;
paths = (
{
closed = 1;
nodes = (
"663 0 LINE",
"685 217 LINE",
"634 217 LINE",
"627 175 OFFCURVE",
"598 65 OFFCURVE",
"529 65 CURVE SMOOTH",
"359 65 LINE SMOOTH",
"322 65 OFFCURVE",
"300 81 OFFCURVE",
"300 118 CURVE SMOOTH",
"300 614 LINE SMOOTH",
"300 640 OFFCURVE",
"316 654 OFFCURVE",
"354 654 CURVE SMOOTH",
"386 654 LINE",
"386 700 LINE",
"17 700 LINE",
"17 654 LINE",
"48 654 LINE SMOOTH",
"86 654 OFFCURVE",
"103 640 OFFCURVE",
"103 614 CURVE SMOOTH",
"103 85 LINE SMOOTH",
"103 59 OFFCURVE",
"86 46 OFFCURVE",
"48 46 CURVE SMOOTH",
"17 46 LINE",
"17 0 LINE"
);
},
{
closed = 1;
nodes = (
"399 -211 OFFCURVE",
"427 -179 OFFCURVE",
"427 -138 CURVE SMOOTH",
"427 -98 OFFCURVE",
"399 -64 OFFCURVE",
"354 -64 CURVE SMOOTH",
"309 -64 OFFCURVE",
"281 -98 OFFCURVE",
"281 -138 CURVE SMOOTH",
"281 -179 OFFCURVE",
"309 -211 OFFCURVE",
"354 -211 CURVE SMOOTH"
);
}
);
width = 705;
}
);
note = Ldotbelow;
rightKerningGroup = L;
unicode = 1E36;
},
{
glyphname = Ldotbelowmacron;
lastChange = "2015-10-12 09:09:53 +0000";
layers = (
{
layerId = "797EEC19-8AF9-42AE-A04D-6994BCC84E1F";
name = Bold;
paths = (
{
closed = 1;
nodes = (
"663 0 LINE",
"685 217 LINE",
"634 217 LINE",
"627 175 OFFCURVE",
"598 65 OFFCURVE",
"529 65 CURVE SMOOTH",
"359 65 LINE SMOOTH",
"322 65 OFFCURVE",
"300 81 OFFCURVE",
"300 118 CURVE SMOOTH",
"300 614 LINE SMOOTH",
"300 640 OFFCURVE",
"316 654 OFFCURVE",
"354 654 CURVE SMOOTH",
"386 654 LINE",
"386 700 LINE",
"17 700 LINE",
"17 654 LINE",
"48 654 LINE SMOOTH",
"86 654 OFFCURVE",
"103 640 OFFCURVE",
"103 614 CURVE SMOOTH",
"103 85 LINE SMOOTH",
"103 59 OFFCURVE",
"86 46 OFFCURVE",
"48 46 CURVE SMOOTH",
"17 46 LINE",
"17 0 LINE"
);
},
{
closed = 1;
nodes = (
"399 -211 OFFCURVE",
"427 -179 OFFCURVE",
"427 -138 CURVE SMOOTH",
"427 -98 OFFCURVE",
"399 -64 OFFCURVE",
"354 -64 CURVE SMOOTH",
"309 -64 OFFCURVE",
"281 -98 OFFCURVE",
"281 -138 CURVE SMOOTH",
"281 -179 OFFCURVE",
"309 -211 OFFCURVE",
"354 -211 CURVE SMOOTH"
);
},
{
closed = 1;
nodes = (
"436 774 LINE",
"436 846 LINE",
"16 846 LINE",
"16 774 LINE"
);
}
);
width = 705;
}
);
note = Ldotbelowmacron;
rightKerningGroup = L;
unicode = 1E38;
},
{
glyphname = Llinebelow;
lastChange = "2015-10-12 09:09:53 +0000";
layers = (
{
layerId = "797EEC19-8AF9-42AE-A04D-6994BCC84E1F";
name = Bold;
paths = (
{
closed = 1;
nodes = (
"663 0 LINE",
"685 217 LINE",
"634 217 LINE",
"627 175 OFFCURVE",
"598 65 OFFCURVE",
"529 65 CURVE SMOOTH",
"359 65 LINE SMOOTH",
"322 65 OFFCURVE",
"300 81 OFFCURVE",
"300 118 CURVE SMOOTH",
"300 614 LINE SMOOTH",
"300 640 OFFCURVE",
"316 654 OFFCURVE",
"354 654 CURVE SMOOTH",
"386 654 LINE",
"386 700 LINE",
"17 700 LINE",
"17 654 LINE",
"48 654 LINE SMOOTH",
"86 654 OFFCURVE",
"103 640 OFFCURVE",
"103 614 CURVE SMOOTH",
"103 85 LINE SMOOTH",
"103 59 OFFCURVE",
"86 46 OFFCURVE",
"48 46 CURVE SMOOTH",
"17 46 LINE",
"17 0 LINE"
);
},
{
closed = 1;
nodes = (
"545 -128 LINE",
"545 -65 LINE",
"125 -65 LINE",
"125 -128 LINE"
);
}
);
width = 705;
}
);
note = Llinebelow;
rightKerningGroup = L;
unicode = 1E3A;
},
{
glyphname = Lslash;
lastChange = "2015-10-12 09:09:53 +0000";
layers = (
{
layerId = "797EEC19-8AF9-42AE-A04D-6994BCC84E1F";
name = Bold;
paths = (
{
closed = 1;
nodes = (
"663 0 LINE",
"685 217 LINE",
"634 217 LINE",
"627 175 OFFCURVE",
"598 65 OFFCURVE",
"529 65 CURVE SMOOTH",
"359 65 LINE SMOOTH",
"322 65 OFFCURVE",
"300 81 OFFCURVE",
"300 118 CURVE SMOOTH",
"300 614 LINE SMOOTH",
"300 640 OFFCURVE",
"316 654 OFFCURVE",
"354 654 CURVE SMOOTH",
"386 654 LINE",
"386 700 LINE",
"17 700 LINE",
"17 654 LINE",
"48 654 LINE SMOOTH",
"86 654 OFFCURVE",
"103 640 OFFCURVE",
"103 614 CURVE SMOOTH",
"103 85 LINE SMOOTH",
"103 59 OFFCURVE",
"86 46 OFFCURVE",
"48 46 CURVE SMOOTH",
"17 46 LINE",
"17 0 LINE"
);
},
{
closed = 1;
nodes = (
"492 371 LINE",
"492 457 LINE",
"35 295 LINE",
"35 208 LINE"
);
}
);
width = 705;
}
);
note = Lslash;
rightKerningGroup = L;
unicode = 0141;
},
{
glyphname = M;
lastChange = "2015-10-12 09:09:51 +0000";
layers = (
{
layerId = "797EEC19-8AF9-42AE-A04D-6994BCC84E1F";
name = Bold;
paths = (
{
closed = 1;
nodes = (
"260 0 LINE",
"260 46 LINE",
"228 46 LINE SMOOTH",
"190 46 OFFCURVE",
"174 59 OFFCURVE",
"174 85 CURVE SMOOTH",
"174 544 LINE",
"373 74 LINE",
"490 74 LINE",
"696 547 LINE",
"696 85 LINE SMOOTH",
"696 59 OFFCURVE",
"679 46 OFFCURVE",
"641 46 CURVE SMOOTH",
"610 46 LINE",
"610 0 LINE",
"979 0 LINE",
"979 46 LINE",
"947 46 LINE SMOOTH",
"909 46 OFFCURVE",
"893 59 OFFCURVE",
"893 85 CURVE SMOOTH",
"893 614 LINE SMOOTH",
"893 640 OFFCURVE",
"909 654 OFFCURVE",
"947 654 CURVE SMOOTH",
"979 654 LINE",
"979 700 LINE",
"683 700 LINE",
"616 541 OFFCURVE",
"548 385 OFFCURVE",
"481 228 CURVE",
"285 700 LINE",
"11 700 LINE",
"11 654 LINE",
"43 654 LINE SMOOTH",
"81 654 OFFCURVE",
"97 640 OFFCURVE",
"97 614 CURVE SMOOTH",
"97 85 LINE SMOOTH",
"97 59 OFFCURVE",
"81 46 OFFCURVE",
"43 46 CURVE SMOOTH",
"11 46 LINE",
"11 0 LINE"
);
}
);
width = 990;
}
);
note = M;
unicode = 004D;
},
{
glyphname = Mdotbelow;
lastChange = "2015-10-12 09:09:53 +0000";
layers = (
{
layerId = "797EEC19-8AF9-42AE-A04D-6994BCC84E1F";
name = Bold;
paths = (
{
closed = 1;
nodes = (
"260 0 LINE",
"260 46 LINE",
"228 46 LINE SMOOTH",
"190 46 OFFCURVE",
"174 59 OFFCURVE",
"174 85 CURVE SMOOTH",
"174 544 LINE",
"373 74 LINE",
"490 74 LINE",
"696 547 LINE",
"696 85 LINE SMOOTH",
"696 59 OFFCURVE",
"679 46 OFFCURVE",
"641 46 CURVE SMOOTH",
"610 46 LINE",
"610 0 LINE",
"979 0 LINE",
"979 46 LINE",
"947 46 LINE SMOOTH",
"909 46 OFFCURVE",
"893 59 OFFCURVE",
"893 85 CURVE SMOOTH",
"893 614 LINE SMOOTH",
"893 640 OFFCURVE",
"909 654 OFFCURVE",
"947 654 CURVE SMOOTH",
"979 654 LINE",
"979 700 LINE",
"683 700 LINE",
"616 541 OFFCURVE",
"548 385 OFFCURVE",
"481 228 CURVE",
"285 700 LINE",
"11 700 LINE",
"11 654 LINE",
"43 654 LINE SMOOTH",
"81 654 OFFCURVE",
"97 640 OFFCURVE",
"97 614 CURVE SMOOTH",
"97 85 LINE SMOOTH",
"97 59 OFFCURVE",
"81 46 OFFCURVE",
"43 46 CURVE SMOOTH",
"11 46 LINE",
"11 0 LINE"
);
},
{
closed = 1;
nodes = (
"539 -211 OFFCURVE",
"567 -179 OFFCURVE",
"567 -138 CURVE SMOOTH",
"567 -98 OFFCURVE",
"539 -64 OFFCURVE",
"494 -64 CURVE SMOOTH",
"449 -64 OFFCURVE",
"421 -98 OFFCURVE",
"421 -138 CURVE SMOOTH",
"421 -179 OFFCURVE",
"449 -211 OFFCURVE",
"494 -211 CURVE SMOOTH"
);
}
);
width = 990;
}
);
note = Mdotbelow;
unicode = 1E42;
},
{
glyphname = N;
lastChange = "2015-10-12 09:09:51 +0000";
layers = (
{
layerId = "797EEC19-8AF9-42AE-A04D-6994BCC84E1F";
name = Bold;
paths = (
{
closed = 1;
nodes = (
"260 0 LINE",
"260 46 LINE",
"228 46 LINE SMOOTH",
"190 46 OFFCURVE",
"174 59 OFFCURVE",
"174 85 CURVE SMOOTH",
"174 587 LINE",
"601 0 LINE",
"701 0 LINE",
"701 614 LINE SMOOTH",
"701 640 OFFCURVE",
"717 654 OFFCURVE",
"755 654 CURVE SMOOTH",
"787 654 LINE",
"787 700 LINE",
"537 700 LINE",
"537 654 LINE",
"569 654 LINE SMOOTH",
"607 654 OFFCURVE",
"624 640 OFFCURVE",
"624 614 CURVE SMOOTH",
"624 238 LINE",
"285 700 LINE",
"11 700 LINE",
"11 654 LINE",
"43 654 LINE SMOOTH",
"81 654 OFFCURVE",
"97 640 OFFCURVE",
"97 614 CURVE SMOOTH",
"97 85 LINE SMOOTH",
"97 59 OFFCURVE",
"81 46 OFFCURVE",
"43 46 CURVE SMOOTH",
"11 46 LINE",
"11 0 LINE"
);
}
);
width = 798;
}
);
note = N;
unicode = 004E;
},
{
glyphname = Nacute;
lastChange = "2015-10-12 09:09:52 +0000";
layers = (
{
layerId = "797EEC19-8AF9-42AE-A04D-6994BCC84E1F";
name = Bold;
paths = (
{
closed = 1;
nodes = (
"260 0 LINE",
"260 46 LINE",
"228 46 LINE SMOOTH",
"190 46 OFFCURVE",
"174 59 OFFCURVE",
"174 85 CURVE SMOOTH",
"174 587 LINE",
"601 0 LINE",
"701 0 LINE",
"701 614 LINE SMOOTH",
"701 640 OFFCURVE",
"717 654 OFFCURVE",
"755 654 CURVE SMOOTH",
"787 654 LINE",
"787 700 LINE",
"537 700 LINE",
"537 654 LINE",
"569 654 LINE SMOOTH",
"607 654 OFFCURVE",
"624 640 OFFCURVE",
"624 614 CURVE SMOOTH",
"624 238 LINE",
"285 700 LINE",
"11 700 LINE",
"11 654 LINE",
"43 654 LINE SMOOTH",
"81 654 OFFCURVE",
"97 640 OFFCURVE",
"97 614 CURVE SMOOTH",
"97 85 LINE SMOOTH",
"97 59 OFFCURVE",
"81 46 OFFCURVE",
"43 46 CURVE SMOOTH",
"11 46 LINE",
"11 0 LINE"
);
},
{
closed = 1;
nodes = (
"505 873 LINE SMOOTH",
"542 895 OFFCURVE",
"564 917 OFFCURVE",
"564 945 CURVE SMOOTH",
"564 969 OFFCURVE",
"547 998 OFFCURVE",
"502 998 CURVE SMOOTH",
"463 998 OFFCURVE",
"434 964 OFFCURVE",
"428 957 CURVE",
"302 821 LINE",
"336 774 LINE"
);
}
);
width = 798;
}
);
note = Nacute;
unicode = 0143;
},
{
glyphname = Ncaron;
lastChange = "2015-10-12 09:09:52 +0000";
layers = (
{
layerId = "797EEC19-8AF9-42AE-A04D-6994BCC84E1F";
name = Bold;
paths = (
{
closed = 1;
nodes = (
"260 0 LINE",
"260 46 LINE",
"228 46 LINE SMOOTH",
"190 46 OFFCURVE",
"174 59 OFFCURVE",
"174 85 CURVE SMOOTH",
"174 587 LINE",
"601 0 LINE",
"701 0 LINE",
"701 614 LINE SMOOTH",
"701 640 OFFCURVE",
"717 654 OFFCURVE",
"755 654 CURVE SMOOTH",
"787 654 LINE",
"787 700 LINE",
"537 700 LINE",
"537 654 LINE",
"569 654 LINE SMOOTH",
"607 654 OFFCURVE",
"624 640 OFFCURVE",
"624 614 CURVE SMOOTH",
"624 238 LINE",
"285 700 LINE",
"11 700 LINE",
"11 654 LINE",
"43 654 LINE SMOOTH",
"81 654 OFFCURVE",
"97 640 OFFCURVE",
"97 614 CURVE SMOOTH",
"97 85 LINE SMOOTH",
"97 59 OFFCURVE",
"81 46 OFFCURVE",
"43 46 CURVE SMOOTH",
"11 46 LINE",
"11 0 LINE"
);
},
{
closed = 1;
nodes = (
"435 775 LINE",
"595 955 LINE",
"568 984 LINE",
"430 882 LINE SMOOTH",
"414 870 OFFCURVE",
"399 862 OFFCURVE",
"388 862 CURVE SMOOTH",
"377 862 OFFCURVE",
"362 870 OFFCURVE",
"346 882 CURVE SMOOTH",
"207 984 LINE",
"180 955 LINE",
"341 775 LINE"
);
}
);
width = 798;
}
);
note = Ncaron;
unicode = 0147;
},
{
glyphname = Ncommaaccent;
lastChange = "2015-10-12 09:09:53 +0000";
layers = (
{
layerId = "797EEC19-8AF9-42AE-A04D-6994BCC84E1F";
name = Bold;
paths = (
{
closed = 1;
nodes = (
"260 0 LINE",
"260 46 LINE",
"228 46 LINE SMOOTH",
"190 46 OFFCURVE",
"174 59 OFFCURVE",
"174 85 CURVE SMOOTH",
"174 587 LINE",
"601 0 LINE",
"701 0 LINE",
"701 614 LINE SMOOTH",
"701 640 OFFCURVE",
"717 654 OFFCURVE",
"755 654 CURVE SMOOTH",
"787 654 LINE",
"787 700 LINE",
"537 700 LINE",
"537 654 LINE",
"569 654 LINE SMOOTH",
"607 654 OFFCURVE",
"624 640 OFFCURVE",
"624 614 CURVE SMOOTH",
"624 238 LINE",
"285 700 LINE",
"11 700 LINE",
"11 654 LINE",
"43 654 LINE SMOOTH",
"81 654 OFFCURVE",
"97 640 OFFCURVE",
"97 614 CURVE SMOOTH",
"97 85 LINE SMOOTH",
"97 59 OFFCURVE",
"81 46 OFFCURVE",
"43 46 CURVE SMOOTH",
"11 46 LINE",
"11 0 LINE"
);
},
{
closed = 1;
nodes = (
"399 -354 OFFCURVE",
"480 -268 OFFCURVE",
"480 -182 CURVE SMOOTH",
"480 -115 OFFCURVE",
"441 -76 OFFCURVE",
"392 -76 CURVE SMOOTH",
"345 -76 OFFCURVE",
"316 -108 OFFCURVE",
"316 -143 CURVE SMOOTH",
"316 -187 OFFCURVE",
"361 -205 OFFCURVE",
"361 -250 CURVE SMOOTH",
"361 -295 OFFCURVE",
"336 -335 OFFCURVE",
"301 -371 CURVE",
"330 -398 LINE"
);
}
);
width = 798;
}
);
note = Ncommaaccent;
unicode = 0145;
},
{
glyphname = Ndotaccent;
lastChange = "2015-10-12 09:09:52 +0000";
layers = (
{
layerId = "797EEC19-8AF9-42AE-A04D-6994BCC84E1F";
name = Bold;
paths = (
{
closed = 1;
nodes = (
"260 0 LINE",
"260 46 LINE",
"228 46 LINE SMOOTH",
"190 46 OFFCURVE",
"174 59 OFFCURVE",
"174 85 CURVE SMOOTH",
"174 587 LINE",
"601 0 LINE",
"701 0 LINE",
"701 614 LINE SMOOTH",
"701 640 OFFCURVE",
"717 654 OFFCURVE",
"755 654 CURVE SMOOTH",
"787 654 LINE",
"787 700 LINE",
"537 700 LINE",
"537 654 LINE",
"569 654 LINE SMOOTH",
"607 654 OFFCURVE",
"624 640 OFFCURVE",
"624 614 CURVE SMOOTH",
"624 238 LINE",
"285 700 LINE",
"11 700 LINE",
"11 654 LINE",
"43 654 LINE SMOOTH",
"81 654 OFFCURVE",
"97 640 OFFCURVE",
"97 614 CURVE SMOOTH",
"97 85 LINE SMOOTH",
"97 59 OFFCURVE",
"81 46 OFFCURVE",
"43 46 CURVE SMOOTH",
"11 46 LINE",
"11 0 LINE"
);
},
{
closed = 1;
nodes = (
"443 774 OFFCURVE",
"471 805 OFFCURVE",
"471 846 CURVE SMOOTH",
"471 886 OFFCURVE",
"443 919 OFFCURVE",
"398 919 CURVE SMOOTH",
"353 919 OFFCURVE",
"326 886 OFFCURVE",
"326 846 CURVE SMOOTH",
"326 805 OFFCURVE",
"353 774 OFFCURVE",
"398 774 CURVE SMOOTH"
);
}
);
width = 798;
}
);
note = Ndotaccent;
unicode = 1E44;
},
{
glyphname = Ndotbelow;
lastChange = "2015-10-12 09:09:53 +0000";
layers = (
{
layerId = "797EEC19-8AF9-42AE-A04D-6994BCC84E1F";
name = Bold;
paths = (
{
closed = 1;
nodes = (
"260 0 LINE",
"260 46 LINE",
"228 46 LINE SMOOTH",
"190 46 OFFCURVE",
"174 59 OFFCURVE",
"174 85 CURVE SMOOTH",
"174 587 LINE",
"601 0 LINE",
"701 0 LINE",
"701 614 LINE SMOOTH",
"701 640 OFFCURVE",
"717 654 OFFCURVE",
"755 654 CURVE SMOOTH",
"787 654 LINE",
"787 700 LINE",
"537 700 LINE",
"537 654 LINE",
"569 654 LINE SMOOTH",
"607 654 OFFCURVE",
"624 640 OFFCURVE",
"624 614 CURVE SMOOTH",
"624 238 LINE",
"285 700 LINE",
"11 700 LINE",
"11 654 LINE",
"43 654 LINE SMOOTH",
"81 654 OFFCURVE",
"97 640 OFFCURVE",
"97 614 CURVE SMOOTH",
"97 85 LINE SMOOTH",
"97 59 OFFCURVE",
"81 46 OFFCURVE",
"43 46 CURVE SMOOTH",
"11 46 LINE",
"11 0 LINE"
);
},
{
closed = 1;
nodes = (
"444 -211 OFFCURVE",
"472 -179 OFFCURVE",
"472 -138 CURVE SMOOTH",
"472 -98 OFFCURVE",
"444 -64 OFFCURVE",
"399 -64 CURVE SMOOTH",
"354 -64 OFFCURVE",
"326 -98 OFFCURVE",
"326 -138 CURVE SMOOTH",
"326 -179 OFFCURVE",
"354 -211 OFFCURVE",
"399 -211 CURVE SMOOTH"
);
}
);
width = 803;
}
);
note = uni1E46;
unicode = 1E46;
},
{
glyphname = Eng;
lastChange = "2015-10-12 09:09:52 +0000";
layers = (
{
layerId = "797EEC19-8AF9-42AE-A04D-6994BCC84E1F";
name = Bold;
paths = (
{
closed = 1;
nodes = (
"572 -316 OFFCURVE",
"701 -240 OFFCURVE",
"701 -62 CURVE SMOOTH",
"701 614 LINE SMOOTH",
"701 640 OFFCURVE",
"717 654 OFFCURVE",
"755 654 CURVE SMOOTH",
"787 654 LINE",
"787 700 LINE",
"537 700 LINE",
"537 654 LINE",
"569 654 LINE SMOOTH",
"607 654 OFFCURVE",
"624 640 OFFCURVE",
"624 614 CURVE SMOOTH",
"624 238 LINE",
"285 700 LINE",
"11 700 LINE",
"11 654 LINE",
"43 654 LINE SMOOTH",
"81 654 OFFCURVE",
"97 640 OFFCURVE",
"97 614 CURVE SMOOTH",
"97 89 LINE SMOOTH",
"97 62 OFFCURVE",
"83 46 OFFCURVE",
"43 46 CURVE SMOOTH",
"11 46 LINE",
"11 0 LINE",
"260 0 LINE",
"260 46 LINE",
"228 46 LINE SMOOTH",
"190 46 OFFCURVE",
"174 59 OFFCURVE",
"174 85 CURVE SMOOTH",
"174 587 LINE",
"601 0 LINE",
"601 -94 LINE SMOOTH",
"601 -199 OFFCURVE",
"496 -280 OFFCURVE",
"387 -280 CURVE",
"393 -318 LINE"
);
}
);
width = 798;
}
);
note = Eng;
unicode = 014A;
},
{
glyphname = Nlinebelow;
lastChange = "2015-10-12 09:09:53 +0000";
layers = (
{
layerId = "797EEC19-8AF9-42AE-A04D-6994BCC84E1F";
name = Bold;
paths = (
{
closed = 1;
nodes = (
"260 0 LINE",
"260 46 LINE",
"228 46 LINE SMOOTH",
"190 46 OFFCURVE",
"174 59 OFFCURVE",
"174 85 CURVE SMOOTH",
"174 587 LINE",
"601 0 LINE",
"701 0 LINE",
"701 614 LINE SMOOTH",
"701 640 OFFCURVE",
"717 654 OFFCURVE",
"755 654 CURVE SMOOTH",
"787 654 LINE",
"787 700 LINE",
"537 700 LINE",
"537 654 LINE",
"569 654 LINE SMOOTH",
"607 654 OFFCURVE",
"624 640 OFFCURVE",
"624 614 CURVE SMOOTH",
"624 238 LINE",
"285 700 LINE",
"11 700 LINE",
"11 654 LINE",
"43 654 LINE SMOOTH",
"81 654 OFFCURVE",
"97 640 OFFCURVE",
"97 614 CURVE SMOOTH",
"97 85 LINE SMOOTH",
"97 59 OFFCURVE",
"81 46 OFFCURVE",
"43 46 CURVE SMOOTH",
"11 46 LINE",
"11 0 LINE"
);
},
{
closed = 1;
nodes = (
"608 -128 LINE",
"608 -65 LINE",
"188 -65 LINE",
"188 -128 LINE"
);
}
);
width = 798;
}
);
note = Nlinebelow;
unicode = 1E48;
},
{
glyphname = Ntilde;
lastChange = "2015-10-12 09:09:52 +0000";
layers = (
{
layerId = "797EEC19-8AF9-42AE-A04D-6994BCC84E1F";
name = Bold;
paths = (
{
closed = 1;
nodes = (
"260 0 LINE",
"260 46 LINE",
"228 46 LINE SMOOTH",
"190 46 OFFCURVE",
"174 59 OFFCURVE",
"174 85 CURVE SMOOTH",
"174 587 LINE",
"601 0 LINE",
"701 0 LINE",
"701 614 LINE SMOOTH",
"701 640 OFFCURVE",
"717 654 OFFCURVE",
"755 654 CURVE SMOOTH",
"787 654 LINE",
"787 700 LINE",
"537 700 LINE",
"537 654 LINE",
"569 654 LINE SMOOTH",
"607 654 OFFCURVE",
"624 640 OFFCURVE",
"624 614 CURVE SMOOTH",
"624 238 LINE",
"285 700 LINE",
"11 700 LINE",
"11 654 LINE",
"43 654 LINE SMOOTH",
"81 654 OFFCURVE",
"97 640 OFFCURVE",
"97 614 CURVE SMOOTH",
"97 85 LINE SMOOTH",
"97 59 OFFCURVE",
"81 46 OFFCURVE",
"43 46 CURVE SMOOTH",
"11 46 LINE",
"11 0 LINE"
);
},
{
closed = 1;
nodes = (
"252 811 OFFCURVE",
"269 828 OFFCURVE",
"307 828 CURVE SMOOTH",
"372 828 OFFCURVE",
"430 783 OFFCURVE",
"493 783 CURVE SMOOTH",
"575 783 OFFCURVE",
"612 862 OFFCURVE",
"629 907 CURVE",
"597 925 LINE",
"575 885 OFFCURVE",
"559 868 OFFCURVE",
"520 868 CURVE SMOOTH",
"455 868 OFFCURVE",
"398 913 OFFCURVE",
"334 913 CURVE SMOOTH",
"252 913 OFFCURVE",
"216 834 OFFCURVE",
"197 789 CURVE",
"230 771 LINE"
);
}
);
width = 798;
}
);
note = Ntilde;
unicode = 00D1;
},
{
glyphname = O;
lastChange = "2015-10-12 09:09:53 +0000";
layers = (
{
layerId = "797EEC19-8AF9-42AE-A04D-6994BCC84E1F";
name = Bold;
paths = (
{
closed = 1;
nodes = (
"685 -10 OFFCURVE",
"801 136 OFFCURVE",
"801 350 CURVE SMOOTH",
"801 563 OFFCURVE",
"685 710 OFFCURVE",
"415 710 CURVE SMOOTH",
"146 710 OFFCURVE",
"30 563 OFFCURVE",
"30 350 CURVE SMOOTH",
"30 136 OFFCURVE",
"146 -10 OFFCURVE",
"415 -10 CURVE SMOOTH"
);
},
{
closed = 1;
nodes = (
"297 59 OFFCURVE",
"230 165 OFFCURVE",
"230 350 CURVE SMOOTH",
"230 534 OFFCURVE",
"297 643 OFFCURVE",
"414 643 CURVE SMOOTH",
"533 643 OFFCURVE",
"601 534 OFFCURVE",
"601 350 CURVE SMOOTH",
"601 165 OFFCURVE",
"533 59 OFFCURVE",
"414 59 CURVE SMOOTH"
);
}
);
width = 831;
}
);
leftKerningGroup = O;
note = O;
rightKerningGroup = O;
unicode = 004F;
},
{
glyphname = Oacute;
lastChange = "2015-10-12 09:09:52 +0000";
layers = (
{
layerId = "797EEC19-8AF9-42AE-A04D-6994BCC84E1F";
name = Bold;
paths = (
{
closed = 1;
nodes = (
"685 -10 OFFCURVE",
"801 136 OFFCURVE",
"801 350 CURVE SMOOTH",
"801 563 OFFCURVE",
"685 710 OFFCURVE",
"415 710 CURVE SMOOTH",
"146 710 OFFCURVE",
"30 563 OFFCURVE",
"30 350 CURVE SMOOTH",
"30 136 OFFCURVE",
"146 -10 OFFCURVE",
"415 -10 CURVE SMOOTH"
);
},
{
closed = 1;
nodes = (
"297 59 OFFCURVE",
"230 165 OFFCURVE",
"230 350 CURVE SMOOTH",
"230 534 OFFCURVE",
"297 643 OFFCURVE",
"414 643 CURVE SMOOTH",
"533 643 OFFCURVE",
"601 534 OFFCURVE",
"601 350 CURVE SMOOTH",
"601 165 OFFCURVE",
"533 59 OFFCURVE",
"414 59 CURVE SMOOTH"
);
},
{
closed = 1;
nodes = (
"487 873 LINE SMOOTH",
"524 895 OFFCURVE",
"546 917 OFFCURVE",
"546 945 CURVE SMOOTH",
"546 969 OFFCURVE",
"529 998 OFFCURVE",
"484 998 CURVE SMOOTH",
"445 998 OFFCURVE",
"416 964 OFFCURVE",
"410 957 CURVE",
"284 821 LINE",
"318 774 LINE"
);
}
);
width = 831;
}
);
leftKerningGroup = O;
note = Oacute;
rightKerningGroup = O;
unicode = 00D3;
},
{
glyphname = Obreve;
lastChange = "2015-10-12 09:09:53 +0000";
layers = (
{
layerId = "797EEC19-8AF9-42AE-A04D-6994BCC84E1F";
name = Bold;
paths = (
{
closed = 1;
nodes = (
"685 -10 OFFCURVE",
"801 136 OFFCURVE",
"801 350 CURVE SMOOTH",
"801 563 OFFCURVE",
"685 710 OFFCURVE",
"415 710 CURVE SMOOTH",
"146 710 OFFCURVE",
"30 563 OFFCURVE",
"30 350 CURVE SMOOTH",
"30 136 OFFCURVE",
"146 -10 OFFCURVE",
"415 -10 CURVE SMOOTH"
);
},
{
closed = 1;
nodes = (
"297 59 OFFCURVE",
"230 165 OFFCURVE",
"230 350 CURVE SMOOTH",
"230 534 OFFCURVE",
"297 643 OFFCURVE",
"414 643 CURVE SMOOTH",
"533 643 OFFCURVE",
"601 534 OFFCURVE",
"601 350 CURVE SMOOTH",
"601 165 OFFCURVE",
"533 59 OFFCURVE",
"414 59 CURVE SMOOTH"
);
},
{
closed = 1;
nodes = (
"558 777 OFFCURVE",
"585 863 OFFCURVE",
"585 934 CURVE",
"540 934 LINE",
"538 906 OFFCURVE",
"516 856 OFFCURVE",
"414 856 CURVE SMOOTH",
"313 856 OFFCURVE",
"290 906 OFFCURVE",
"287 934 CURVE",
"243 934 LINE",
"244 858 OFFCURVE",
"271 777 OFFCURVE",
"415 777 CURVE SMOOTH"
);
}
);
width = 831;
}
);
leftKerningGroup = O;
note = Obreve;
rightKerningGroup = O;
unicode = 014E;
},
{
glyphname = Ocaron;
lastChange = "2015-10-12 09:09:52 +0000";
layers = (
{
layerId = "797EEC19-8AF9-42AE-A04D-6994BCC84E1F";
name = Bold;
paths = (
{
closed = 1;
nodes = (
"685 -10 OFFCURVE",
"801 136 OFFCURVE",
"801 350 CURVE SMOOTH",
"801 563 OFFCURVE",
"685 710 OFFCURVE",
"415 710 CURVE SMOOTH",
"146 710 OFFCURVE",
"30 563 OFFCURVE",
"30 350 CURVE SMOOTH",
"30 136 OFFCURVE",
"146 -10 OFFCURVE",
"415 -10 CURVE SMOOTH"
);
},
{
closed = 1;
nodes = (
"297 59 OFFCURVE",
"230 165 OFFCURVE",
"230 350 CURVE SMOOTH",
"230 534 OFFCURVE",
"297 643 OFFCURVE",
"414 643 CURVE SMOOTH",
"533 643 OFFCURVE",
"601 534 OFFCURVE",
"601 350 CURVE SMOOTH",
"601 165 OFFCURVE",
"533 59 OFFCURVE",
"414 59 CURVE SMOOTH"
);
},
{
closed = 1;
nodes = (
"462 775 LINE",
"622 955 LINE",
"595 984 LINE",
"457 882 LINE SMOOTH",
"441 870 OFFCURVE",
"426 862 OFFCURVE",
"415 862 CURVE SMOOTH",
"404 862 OFFCURVE",
"389 870 OFFCURVE",
"373 882 CURVE SMOOTH",
"234 984 LINE",
"207 955 LINE",
"368 775 LINE"
);
}
);
width = 831;
}
);
leftKerningGroup = O;
note = Ocaron;
rightKerningGroup = O;
unicode = 01D1;
},
{
glyphname = Ocircumflex;
lastChange = "2015-10-12 09:09:53 +0000";
layers = (
{
layerId = "797EEC19-8AF9-42AE-A04D-6994BCC84E1F";
name = Bold;
paths = (
{
closed = 1;
nodes = (
"685 -10 OFFCURVE",
"801 136 OFFCURVE",
"801 350 CURVE SMOOTH",
"801 563 OFFCURVE",
"685 710 OFFCURVE",
"415 710 CURVE SMOOTH",
"146 710 OFFCURVE",
"30 563 OFFCURVE",
"30 350 CURVE SMOOTH",
"30 136 OFFCURVE",
"146 -10 OFFCURVE",
"415 -10 CURVE SMOOTH"
);
},
{
closed = 1;
nodes = (
"297 59 OFFCURVE",
"230 165 OFFCURVE",
"230 350 CURVE SMOOTH",
"230 534 OFFCURVE",
"297 643 OFFCURVE",
"414 643 CURVE SMOOTH",
"533 643 OFFCURVE",
"601 534 OFFCURVE",
"601 350 CURVE SMOOTH",
"601 165 OFFCURVE",
"533 59 OFFCURVE",
"414 59 CURVE SMOOTH"
);
},
{
closed = 1;
nodes = (
"373 877 LINE SMOOTH",
"389 889 OFFCURVE",
"404 897 OFFCURVE",
"415 897 CURVE SMOOTH",
"426 897 OFFCURVE",
"441 889 OFFCURVE",
"457 877 CURVE SMOOTH",
"595 775 LINE",
"622 804 LINE",
"462 984 LINE",
"368 984 LINE",
"207 804 LINE",
"234 775 LINE"
);
}
);
width = 831;
}
);
leftKerningGroup = O;
note = Ocircumflex;
rightKerningGroup = O;
unicode = 00D4;
},
{
glyphname = Ocircumflexacute;
lastChange = "2015-10-12 09:09:53 +0000";
layers = (
{
layerId = "797EEC19-8AF9-42AE-A04D-6994BCC84E1F";
name = Bold;
paths = (
{
closed = 1;
nodes = (
"685 -10 OFFCURVE",
"801 136 OFFCURVE",
"801 350 CURVE SMOOTH",
"801 563 OFFCURVE",
"685 710 OFFCURVE",
"415 710 CURVE SMOOTH",
"146 710 OFFCURVE",
"30 563 OFFCURVE",
"30 350 CURVE SMOOTH",
"30 136 OFFCURVE",
"146 -10 OFFCURVE",
"415 -10 CURVE SMOOTH"
);
},
{
closed = 1;
nodes = (
"297 59 OFFCURVE",
"230 165 OFFCURVE",
"230 350 CURVE SMOOTH",
"230 534 OFFCURVE",
"297 643 OFFCURVE",
"414 643 CURVE SMOOTH",
"533 643 OFFCURVE",
"601 534 OFFCURVE",
"601 350 CURVE SMOOTH",
"601 165 OFFCURVE",
"533 59 OFFCURVE",
"414 59 CURVE SMOOTH"
);
},
{
closed = 1;
nodes = (
"374 874 LINE SMOOTH",
"389 886 OFFCURVE",
"404 895 OFFCURVE",
"415 895 CURVE SMOOTH",
"426 895 OFFCURVE",
"440 886 OFFCURVE",
"456 874 CURVE SMOOTH",
"589 773 LINE",
"614 803 LINE",
"461 982 LINE",
"369 982 LINE",
"215 803 LINE",
"241 773 LINE"
);
},
{
closed = 1;
nodes = (
"681 971 LINE SMOOTH",
"721 991 OFFCURVE",
"750 1017 OFFCURVE",
"750 1046 CURVE SMOOTH",
"750 1070 OFFCURVE",
"732 1102 OFFCURVE",
"689 1102 CURVE SMOOTH",
"653 1102 OFFCURVE",
"626 1072 OFFCURVE",
"611 1053 CURVE SMOOTH",
"533 956 LINE",
"565 915 LINE"
);
}
);
width = 831;
}
);
leftKerningGroup = O;
note = Ocircumflexacute;
rightKerningGroup = O;
unicode = 1ED0;
},
{
glyphname = Ocircumflexdotbelow;
lastChange = "2015-10-12 09:09:53 +0000";
layers = (
{
layerId = "797EEC19-8AF9-42AE-A04D-6994BCC84E1F";
name = Bold;
paths = (
{
closed = 1;
nodes = (
"685 -10 OFFCURVE",
"801 136 OFFCURVE",
"801 350 CURVE SMOOTH",
"801 563 OFFCURVE",
"685 710 OFFCURVE",
"415 710 CURVE SMOOTH",
"146 710 OFFCURVE",
"30 563 OFFCURVE",
"30 350 CURVE SMOOTH",
"30 136 OFFCURVE",
"146 -10 OFFCURVE",
"415 -10 CURVE SMOOTH"
);
},
{
closed = 1;
nodes = (
"439 -211 OFFCURVE",
"467 -179 OFFCURVE",
"467 -138 CURVE SMOOTH",
"467 -98 OFFCURVE",
"439 -64 OFFCURVE",
"394 -64 CURVE SMOOTH",
"349 -64 OFFCURVE",
"321 -98 OFFCURVE",
"321 -138 CURVE SMOOTH",
"321 -179 OFFCURVE",
"349 -211 OFFCURVE",
"394 -211 CURVE SMOOTH"
);
},
{
closed = 1;
nodes = (
"297 59 OFFCURVE",
"230 165 OFFCURVE",
"230 350 CURVE SMOOTH",
"230 534 OFFCURVE",
"297 643 OFFCURVE",
"414 643 CURVE SMOOTH",
"533 643 OFFCURVE",
"601 534 OFFCURVE",
"601 350 CURVE SMOOTH",
"601 165 OFFCURVE",
"533 59 OFFCURVE",
"414 59 CURVE SMOOTH"
);
},
{
closed = 1;
nodes = (
"373 877 LINE SMOOTH",
"389 889 OFFCURVE",
"404 897 OFFCURVE",
"415 897 CURVE SMOOTH",
"426 897 OFFCURVE",
"441 889 OFFCURVE",
"457 877 CURVE SMOOTH",
"595 775 LINE",
"622 804 LINE",
"462 984 LINE",
"368 984 LINE",
"207 804 LINE",
"234 775 LINE"
);
}
);
width = 831;
}
);
leftKerningGroup = O;
note = Ocircumflexdotbelow;
rightKerningGroup = O;
unicode = 1ED8;
},
{
glyphname = Ocircumflexgrave;
lastChange = "2015-10-12 09:09:53 +0000";
layers = (
{
layerId = "797EEC19-8AF9-42AE-A04D-6994BCC84E1F";
name = Bold;
paths = (
{
closed = 1;
nodes = (
"685 -10 OFFCURVE",
"801 136 OFFCURVE",
"801 350 CURVE SMOOTH",
"801 563 OFFCURVE",
"685 710 OFFCURVE",
"415 710 CURVE SMOOTH",
"146 710 OFFCURVE",
"30 563 OFFCURVE",
"30 350 CURVE SMOOTH",
"30 136 OFFCURVE",
"146 -10 OFFCURVE",
"415 -10 CURVE SMOOTH"
);
},
{
closed = 1;
nodes = (
"297 59 OFFCURVE",
"230 165 OFFCURVE",
"230 350 CURVE SMOOTH",
"230 534 OFFCURVE",
"297 643 OFFCURVE",
"414 643 CURVE SMOOTH",
"533 643 OFFCURVE",
"601 534 OFFCURVE",
"601 350 CURVE SMOOTH",
"601 165 OFFCURVE",
"533 59 OFFCURVE",
"414 59 CURVE SMOOTH"
);
},
{
closed = 1;
nodes = (
"297 956 LINE",
"217 1055 LINE SMOOTH",
"202 1073 OFFCURVE",
"176 1103 OFFCURVE",
"142 1103 CURVE SMOOTH",
"97 1103 OFFCURVE",
"80 1069 OFFCURVE",
"80 1047 CURVE SMOOTH",
"80 1018 OFFCURVE",
"106 993 OFFCURVE",
"147 973 CURVE SMOOTH",
"265 915 LINE"
);
},
{
closed = 1;
nodes = (
"374 874 LINE SMOOTH",
"389 886 OFFCURVE",
"404 895 OFFCURVE",
"415 895 CURVE SMOOTH",
"426 895 OFFCURVE",
"440 886 OFFCURVE",
"456 874 CURVE SMOOTH",
"589 773 LINE",
"614 803 LINE",
"461 982 LINE",
"369 982 LINE",
"215 803 LINE",
"241 773 LINE"
);
}
);
width = 831;
}
);
leftKerningGroup = O;
note = Ocircumflexgrave;
rightKerningGroup = O;
unicode = 1ED2;
},
{
glyphname = Ocircumflexhookabove;
lastChange = "2015-10-12 09:09:52 +0000";
layers = (
{
layerId = "797EEC19-8AF9-42AE-A04D-6994BCC84E1F";
name = Bold;
paths = (
{
closed = 1;
nodes = (
"685 -10 OFFCURVE",
"801 136 OFFCURVE",
"801 350 CURVE SMOOTH",
"801 563 OFFCURVE",
"685 710 OFFCURVE",
"415 710 CURVE SMOOTH",
"146 710 OFFCURVE",
"30 563 OFFCURVE",
"30 350 CURVE SMOOTH",
"30 136 OFFCURVE",
"146 -10 OFFCURVE",
"415 -10 CURVE SMOOTH"
);
},
{
closed = 1;
nodes = (
"297 59 OFFCURVE",
"230 165 OFFCURVE",
"230 350 CURVE SMOOTH",
"230 534 OFFCURVE",
"297 643 OFFCURVE",
"414 643 CURVE SMOOTH",
"533 643 OFFCURVE",
"601 534 OFFCURVE",
"601 350 CURVE SMOOTH",
"601 165 OFFCURVE",
"533 59 OFFCURVE",
"414 59 CURVE SMOOTH"
);
},
{
closed = 1;
nodes = (
"374 874 LINE SMOOTH",
"389 886 OFFCURVE",
"404 895 OFFCURVE",
"415 895 CURVE SMOOTH",
"426 895 OFFCURVE",
"440 886 OFFCURVE",
"456 874 CURVE SMOOTH",
"589 774 LINE",
"614 803 LINE",
"461 983 LINE",
"369 983 LINE",
"215 803 LINE",
"241 774 LINE"
);
},
{
closed = 1;
nodes = (
"624 941 LINE",
"612 942 OFFCURVE",
"599 945 OFFCURVE",
"599 964 CURVE SMOOTH",
"599 1006 OFFCURVE",
"702 1012 OFFCURVE",
"702 1072 CURVE SMOOTH",
"702 1117 OFFCURVE",
"651 1138 OFFCURVE",
"595 1138 CURVE SMOOTH",
"518 1138 OFFCURVE",
"492 1104 OFFCURVE",
"492 1083 CURVE SMOOTH",
"492 1060 OFFCURVE",
"509 1050 OFFCURVE",
"525 1050 CURVE SMOOTH",
"569 1050 OFFCURVE",
"549 1109 OFFCURVE",
"594 1109 CURVE SMOOTH",
"614 1109 OFFCURVE",
"623 1092 OFFCURVE",
"623 1079 CURVE SMOOTH",
"623 1023 OFFCURVE",
"539 1012 OFFCURVE",
"539 965 CURVE SMOOTH",
"539 935 OFFCURVE",
"575 918 OFFCURVE",
"617 918 CURVE"
);
}
);
width = 831;
}
);
leftKerningGroup = O;
note = Ocircumflexhookabove;
rightKerningGroup = O;
unicode = 1ED4;
},
{
glyphname = Ocircumflextilde;
lastChange = "2015-10-12 09:09:52 +0000";
layers = (
{
layerId = "797EEC19-8AF9-42AE-A04D-6994BCC84E1F";
name = Bold;
paths = (
{
closed = 1;
nodes = (
"685 -10 OFFCURVE",
"801 136 OFFCURVE",
"801 350 CURVE SMOOTH",
"801 563 OFFCURVE",
"685 710 OFFCURVE",
"415 710 CURVE SMOOTH",
"146 710 OFFCURVE",
"30 563 OFFCURVE",
"30 350 CURVE SMOOTH",
"30 136 OFFCURVE",
"146 -10 OFFCURVE",
"415 -10 CURVE SMOOTH"
);
},
{
closed = 1;
nodes = (
"297 59 OFFCURVE",
"230 165 OFFCURVE",
"230 350 CURVE SMOOTH",
"230 534 OFFCURVE",
"297 643 OFFCURVE",
"414 643 CURVE SMOOTH",
"533 643 OFFCURVE",
"601 534 OFFCURVE",
"601 350 CURVE SMOOTH",
"601 165 OFFCURVE",
"533 59 OFFCURVE",
"414 59 CURVE SMOOTH"
);
},
{
closed = 1;
nodes = (
"374 874 LINE SMOOTH",
"389 886 OFFCURVE",
"404 895 OFFCURVE",
"415 895 CURVE SMOOTH",
"426 895 OFFCURVE",
"440 886 OFFCURVE",
"456 874 CURVE SMOOTH",
"589 774 LINE",
"614 803 LINE",
"461 983 LINE",
"369 983 LINE",
"215 803 LINE",
"241 774 LINE"
);
},
{
closed = 1;
nodes = (
"268 1037 OFFCURVE",
"283 1055 OFFCURVE",
"318 1055 CURVE SMOOTH",
"377 1055 OFFCURVE",
"429 1010 OFFCURVE",
"486 1010 CURVE SMOOTH",
"560 1010 OFFCURVE",
"593 1089 OFFCURVE",
"609 1134 CURVE",
"580 1152 LINE",
"560 1111 OFFCURVE",
"546 1095 OFFCURVE",
"511 1095 CURVE SMOOTH",
"452 1095 OFFCURVE",
"399 1139 OFFCURVE",
"342 1139 CURVE SMOOTH",
"268 1139 OFFCURVE",
"235 1060 OFFCURVE",
"219 1016 CURVE",
"249 997 LINE"
);
}
);
width = 831;
}
);
leftKerningGroup = O;
note = Ocircumflextilde;
rightKerningGroup = O;
unicode = 1ED6;
},
{
glyphname = Odieresis;
lastChange = "2015-10-12 09:09:53 +0000";
layers = (
{
layerId = "797EEC19-8AF9-42AE-A04D-6994BCC84E1F";
name = Bold;
paths = (
{
closed = 1;
nodes = (
"685 -10 OFFCURVE",
"801 136 OFFCURVE",
"801 350 CURVE SMOOTH",
"801 563 OFFCURVE",
"685 710 OFFCURVE",
"415 710 CURVE SMOOTH",
"146 710 OFFCURVE",
"30 563 OFFCURVE",
"30 350 CURVE SMOOTH",
"30 136 OFFCURVE",
"146 -10 OFFCURVE",
"415 -10 CURVE SMOOTH"
);
},
{
closed = 1;
nodes = (
"297 59 OFFCURVE",
"230 165 OFFCURVE",
"230 350 CURVE SMOOTH",
"230 534 OFFCURVE",
"297 643 OFFCURVE",
"414 643 CURVE SMOOTH",
"533 643 OFFCURVE",
"601 534 OFFCURVE",
"601 350 CURVE SMOOTH",
"601 165 OFFCURVE",
"533 59 OFFCURVE",
"414 59 CURVE SMOOTH"
);
},
{
closed = 1;
nodes = (
"337 775 OFFCURVE",
"365 807 OFFCURVE",
"365 847 CURVE SMOOTH",
"365 888 OFFCURVE",
"337 921 OFFCURVE",
"291 921 CURVE SMOOTH",
"246 921 OFFCURVE",
"219 888 OFFCURVE",
"219 847 CURVE SMOOTH",
"219 807 OFFCURVE",
"246 775 OFFCURVE",
"291 775 CURVE SMOOTH"
);
},
{
closed = 1;
nodes = (
"582 775 OFFCURVE",
"610 807 OFFCURVE",
"610 847 CURVE SMOOTH",
"610 888 OFFCURVE",
"582 921 OFFCURVE",
"537 921 CURVE SMOOTH",
"491 921 OFFCURVE",
"464 888 OFFCURVE",
"464 847 CURVE SMOOTH",
"464 807 OFFCURVE",
"491 775 OFFCURVE",
"537 775 CURVE SMOOTH"
);
}
);
width = 831;
}
);
leftKerningGroup = O;
note = Odieresis;
rightKerningGroup = O;
unicode = 00D6;
},
{
glyphname = Odotbelow;
lastChange = "2015-10-12 09:09:52 +0000";
layers = (
{
layerId = "797EEC19-8AF9-42AE-A04D-6994BCC84E1F";
name = Bold;
paths = (
{
closed = 1;
nodes = (
"685 -10 OFFCURVE",
"801 136 OFFCURVE",
"801 350 CURVE SMOOTH",
"801 563 OFFCURVE",
"685 710 OFFCURVE",
"415 710 CURVE SMOOTH",
"146 710 OFFCURVE",
"30 563 OFFCURVE",
"30 350 CURVE SMOOTH",
"30 136 OFFCURVE",
"146 -10 OFFCURVE",
"415 -10 CURVE SMOOTH"
);
},
{
closed = 1;
nodes = (
"460 -211 OFFCURVE",
"488 -179 OFFCURVE",
"488 -138 CURVE SMOOTH",
"488 -98 OFFCURVE",
"460 -64 OFFCURVE",
"415 -64 CURVE SMOOTH",
"370 -64 OFFCURVE",
"342 -98 OFFCURVE",
"342 -138 CURVE SMOOTH",
"342 -179 OFFCURVE",
"370 -211 OFFCURVE",
"415 -211 CURVE SMOOTH"
);
},
{
closed = 1;
nodes = (
"297 59 OFFCURVE",
"230 165 OFFCURVE",
"230 350 CURVE SMOOTH",
"230 534 OFFCURVE",
"297 643 OFFCURVE",
"414 643 CURVE SMOOTH",
"533 643 OFFCURVE",
"601 534 OFFCURVE",
"601 350 CURVE SMOOTH",
"601 165 OFFCURVE",
"533 59 OFFCURVE",
"414 59 CURVE SMOOTH"
);
}
);
width = 831;
}
);
leftKerningGroup = O;
note = Odotbelow;
rightKerningGroup = O;
unicode = 1ECC;
},
{
glyphname = Ograve;
lastChange = "2015-10-12 09:09:53 +0000";
layers = (
{
layerId = "797EEC19-8AF9-42AE-A04D-6994BCC84E1F";
name = Bold;
paths = (
{
closed = 1;
nodes = (
"685 -10 OFFCURVE",
"801 136 OFFCURVE",
"801 350 CURVE SMOOTH",
"801 563 OFFCURVE",
"685 710 OFFCURVE",
"415 710 CURVE SMOOTH",
"146 710 OFFCURVE",
"30 563 OFFCURVE",
"30 350 CURVE SMOOTH",
"30 136 OFFCURVE",
"146 -10 OFFCURVE",
"415 -10 CURVE SMOOTH"
);
},
{
closed = 1;
nodes = (
"297 59 OFFCURVE",
"230 165 OFFCURVE",
"230 350 CURVE SMOOTH",
"230 534 OFFCURVE",
"297 643 OFFCURVE",
"414 643 CURVE SMOOTH",
"533 643 OFFCURVE",
"601 534 OFFCURVE",
"601 350 CURVE SMOOTH",
"601 165 OFFCURVE",
"533 59 OFFCURVE",
"414 59 CURVE SMOOTH"
);
},
{
closed = 1;
nodes = (
"544 821 LINE",
"419 957 LINE",
"412 964 OFFCURVE",
"382 998 OFFCURVE",
"343 998 CURVE SMOOTH",
"299 998 OFFCURVE",
"282 969 OFFCURVE",
"282 946 CURVE SMOOTH",
"282 917 OFFCURVE",
"303 895 OFFCURVE",
"340 873 CURVE SMOOTH",
"510 774 LINE"
);
}
);
width = 831;
}
);
leftKerningGroup = O;
note = Ograve;
rightKerningGroup = O;
unicode = 00D2;
},
{
glyphname = Ohookabove;
lastChange = "2015-10-12 09:09:53 +0000";
layers = (
{
layerId = "797EEC19-8AF9-42AE-A04D-6994BCC84E1F";
name = Bold;
paths = (
{
closed = 1;
nodes = (
"685 -10 OFFCURVE",
"801 136 OFFCURVE",
"801 350 CURVE SMOOTH",
"801 563 OFFCURVE",
"685 710 OFFCURVE",
"415 710 CURVE SMOOTH",
"146 710 OFFCURVE",
"30 563 OFFCURVE",
"30 350 CURVE SMOOTH",
"30 136 OFFCURVE",
"146 -10 OFFCURVE",
"415 -10 CURVE SMOOTH"
);
},
{
closed = 1;
nodes = (
"297 59 OFFCURVE",
"230 165 OFFCURVE",
"230 350 CURVE SMOOTH",
"230 534 OFFCURVE",
"297 643 OFFCURVE",
"414 643 CURVE SMOOTH",
"533 643 OFFCURVE",
"601 534 OFFCURVE",
"601 350 CURVE SMOOTH",
"601 165 OFFCURVE",
"533 59 OFFCURVE",
"414 59 CURVE SMOOTH"
);
},
{
closed = 1;
nodes = (
"446 801 LINE",
"433 802 OFFCURVE",
"417 805 OFFCURVE",
"417 827 CURVE SMOOTH",
"417 875 OFFCURVE",
"536 882 OFFCURVE",
"536 952 CURVE SMOOTH",
"536 1005 OFFCURVE",
"478 1030 OFFCURVE",
"414 1030 CURVE SMOOTH",
"322 1030 OFFCURVE",
"294 989 OFFCURVE",
"294 964 CURVE SMOOTH",
"294 938 OFFCURVE",
"313 927 OFFCURVE",
"332 927 CURVE SMOOTH",
"353 927 OFFCURVE",
"369 940 OFFCURVE",
"370 958 CURVE",
"370 987 OFFCURVE",
"395 994 OFFCURVE",
"412 994 CURVE SMOOTH",
"435 994 OFFCURVE",
"445 977 OFFCURVE",
"445 960 CURVE SMOOTH",
"445 896 OFFCURVE",
"349 883 OFFCURVE",
"349 829 CURVE SMOOTH",
"349 794 OFFCURVE",
"390 775 OFFCURVE",
"438 775 CURVE"
);
}
);
width = 831;
}
);
leftKerningGroup = O;
note = Ohookabove;
rightKerningGroup = O;
unicode = 1ECE;
},
{
glyphname = Ohorn;
lastChange = "2015-10-12 09:09:53 +0000";
layers = (
{
layerId = "797EEC19-8AF9-42AE-A04D-6994BCC84E1F";
name = Bold;
paths = (
{
closed = 1;
nodes = (
"689 -10 OFFCURVE",
"805 136 OFFCURVE",
"805 350 CURVE SMOOTH",
"805 563 OFFCURVE",
"689 710 OFFCURVE",
"419 710 CURVE SMOOTH",
"150 710 OFFCURVE",
"34 563 OFFCURVE",
"34 350 CURVE SMOOTH",
"34 136 OFFCURVE",
"150 -10 OFFCURVE",
"419 -10 CURVE SMOOTH"
);
},
{
closed = 1;
nodes = (
"301 59 OFFCURVE",
"234 165 OFFCURVE",
"234 350 CURVE SMOOTH",
"234 534 OFFCURVE",
"301 643 OFFCURVE",
"418 643 CURVE SMOOTH",
"537 643 OFFCURVE",
"605 534 OFFCURVE",
"605 350 CURVE SMOOTH",
"605 165 OFFCURVE",
"537 59 OFFCURVE",
"418 59 CURVE SMOOTH"
);
},
{
closed = 1;
nodes = (
"798 517 OFFCURVE",
"918 605 OFFCURVE",
"918 715 CURVE SMOOTH",
"918 782 OFFCURVE",
"879 820 OFFCURVE",
"830 820 CURVE SMOOTH",
"783 820 OFFCURVE",
"754 789 OFFCURVE",
"754 754 CURVE SMOOTH",
"754 710 OFFCURVE",
"799 691 OFFCURVE",
"799 647 CURVE SMOOTH",
"799 602 OFFCURVE",
"768 569 OFFCURVE",
"710 541 CURVE",
"710 502 LINE"
);
}
);
width = 852;
}
);
leftKerningGroup = O;
note = Ohorn;
rightKerningGroup = O;
unicode = 01A0;
},
{
glyphname = Ohornacute;
lastChange = "2015-10-12 09:09:53 +0000";
layers = (
{
layerId = "797EEC19-8AF9-42AE-A04D-6994BCC84E1F";
name = Bold;
paths = (
{
closed = 1;
nodes = (
"689 -10 OFFCURVE",
"805 136 OFFCURVE",
"805 350 CURVE SMOOTH",
"805 563 OFFCURVE",
"689 710 OFFCURVE",
"419 710 CURVE SMOOTH",
"150 710 OFFCURVE",
"34 563 OFFCURVE",
"34 350 CURVE SMOOTH",
"34 136 OFFCURVE",
"150 -10 OFFCURVE",
"419 -10 CURVE SMOOTH"
);
},
{
closed = 1;
nodes = (
"301 59 OFFCURVE",
"234 165 OFFCURVE",
"234 350 CURVE SMOOTH",
"234 534 OFFCURVE",
"301 643 OFFCURVE",
"418 643 CURVE SMOOTH",
"537 643 OFFCURVE",
"605 534 OFFCURVE",
"605 350 CURVE SMOOTH",
"605 165 OFFCURVE",
"537 59 OFFCURVE",
"418 59 CURVE SMOOTH"
);
},
{
closed = 1;
nodes = (
"479 872 LINE SMOOTH",
"516 894 OFFCURVE",
"538 916 OFFCURVE",
"538 944 CURVE SMOOTH",
"538 968 OFFCURVE",
"521 997 OFFCURVE",
"476 997 CURVE SMOOTH",
"437 997 OFFCURVE",
"408 963 OFFCURVE",
"402 956 CURVE",
"276 820 LINE",
"310 773 LINE"
);
},
{
closed = 1;
nodes = (
"795 515 OFFCURVE",
"915 603 OFFCURVE",
"915 713 CURVE SMOOTH",
"915 780 OFFCURVE",
"876 818 OFFCURVE",
"827 818 CURVE SMOOTH",
"780 818 OFFCURVE",
"751 787 OFFCURVE",
"751 752 CURVE SMOOTH",
"751 708 OFFCURVE",
"796 689 OFFCURVE",
"796 645 CURVE SMOOTH",
"796 600 OFFCURVE",
"765 567 OFFCURVE",
"707 539 CURVE",
"707 500 LINE"
);
}
);
width = 852;
}
);
leftKerningGroup = O;
note = Ohornacute;
rightKerningGroup = O;
unicode = 1EDA;
},
{
glyphname = Ohorndotbelow;
lastChange = "2015-10-12 09:09:53 +0000";
layers = (
{
layerId = "797EEC19-8AF9-42AE-A04D-6994BCC84E1F";
name = Bold;
paths = (
{
closed = 1;
nodes = (
"689 -10 OFFCURVE",
"805 136 OFFCURVE",
"805 350 CURVE SMOOTH",
"805 563 OFFCURVE",
"689 710 OFFCURVE",
"419 710 CURVE SMOOTH",
"150 710 OFFCURVE",
"34 563 OFFCURVE",
"34 350 CURVE SMOOTH",
"34 136 OFFCURVE",
"150 -10 OFFCURVE",
"419 -10 CURVE SMOOTH"
);
},
{
closed = 1;
nodes = (
"469 -211 OFFCURVE",
"497 -179 OFFCURVE",
"497 -138 CURVE SMOOTH",
"497 -98 OFFCURVE",
"469 -64 OFFCURVE",
"424 -64 CURVE SMOOTH",
"379 -64 OFFCURVE",
"351 -98 OFFCURVE",
"351 -138 CURVE SMOOTH",
"351 -179 OFFCURVE",
"379 -211 OFFCURVE",
"424 -211 CURVE SMOOTH"
);
},
{
closed = 1;
nodes = (
"301 59 OFFCURVE",
"234 165 OFFCURVE",
"234 350 CURVE SMOOTH",
"234 534 OFFCURVE",
"301 643 OFFCURVE",
"418 643 CURVE SMOOTH",
"537 643 OFFCURVE",
"605 534 OFFCURVE",
"605 350 CURVE SMOOTH",
"605 165 OFFCURVE",
"537 59 OFFCURVE",
"418 59 CURVE SMOOTH"
);
},
{
closed = 1;
nodes = (
"795 515 OFFCURVE",
"915 603 OFFCURVE",
"915 713 CURVE SMOOTH",
"915 780 OFFCURVE",
"876 818 OFFCURVE",
"827 818 CURVE SMOOTH",
"780 818 OFFCURVE",
"751 787 OFFCURVE",
"751 752 CURVE SMOOTH",
"751 708 OFFCURVE",
"796 689 OFFCURVE",
"796 645 CURVE SMOOTH",
"796 600 OFFCURVE",
"765 567 OFFCURVE",
"707 539 CURVE",
"707 500 LINE"
);
}
);
width = 852;
}
);
leftKerningGroup = O;
note = Ohorndotbelow;
rightKerningGroup = O;
unicode = 1EE2;
},
{
glyphname = Ohorngrave;
lastChange = "2015-10-12 09:09:52 +0000";
layers = (
{
layerId = "797EEC19-8AF9-42AE-A04D-6994BCC84E1F";
name = Bold;
paths = (
{
closed = 1;
nodes = (
"689 -10 OFFCURVE",
"805 136 OFFCURVE",
"805 350 CURVE SMOOTH",
"805 563 OFFCURVE",
"689 710 OFFCURVE",
"419 710 CURVE SMOOTH",
"150 710 OFFCURVE",
"34 563 OFFCURVE",
"34 350 CURVE SMOOTH",
"34 136 OFFCURVE",
"150 -10 OFFCURVE",
"419 -10 CURVE SMOOTH"
);
},
{
closed = 1;
nodes = (
"301 59 OFFCURVE",
"234 165 OFFCURVE",
"234 350 CURVE SMOOTH",
"234 534 OFFCURVE",
"301 643 OFFCURVE",
"418 643 CURVE SMOOTH",
"537 643 OFFCURVE",
"605 534 OFFCURVE",
"605 350 CURVE SMOOTH",
"605 165 OFFCURVE",
"537 59 OFFCURVE",
"418 59 CURVE SMOOTH"
);
},
{
closed = 1;
nodes = (
"555 847 LINE",
"430 983 LINE",
"423 990 OFFCURVE",
"393 1024 OFFCURVE",
"354 1024 CURVE SMOOTH",
"310 1024 OFFCURVE",
"293 995 OFFCURVE",
"293 972 CURVE SMOOTH",
"293 943 OFFCURVE",
"314 921 OFFCURVE",
"351 899 CURVE SMOOTH",
"521 800 LINE"
);
},
{
closed = 1;
nodes = (
"795 515 OFFCURVE",
"915 603 OFFCURVE",
"915 713 CURVE SMOOTH",
"915 780 OFFCURVE",
"876 818 OFFCURVE",
"827 818 CURVE SMOOTH",
"780 818 OFFCURVE",
"751 787 OFFCURVE",
"751 752 CURVE SMOOTH",
"751 708 OFFCURVE",
"796 689 OFFCURVE",
"796 645 CURVE SMOOTH",
"796 600 OFFCURVE",
"765 567 OFFCURVE",
"707 539 CURVE",
"707 500 LINE"
);
}
);
width = 852;
}
);
leftKerningGroup = O;
note = Ohorngrave;
rightKerningGroup = O;
unicode = 1EDC;
},
{
glyphname = Ohornhookabove;
lastChange = "2015-10-12 09:09:53 +0000";
layers = (
{
layerId = "797EEC19-8AF9-42AE-A04D-6994BCC84E1F";
name = Bold;
paths = (
{
closed = 1;
nodes = (
"689 -10 OFFCURVE",
"805 136 OFFCURVE",
"805 350 CURVE SMOOTH",
"805 563 OFFCURVE",
"689 710 OFFCURVE",
"419 710 CURVE SMOOTH",
"150 710 OFFCURVE",
"34 563 OFFCURVE",
"34 350 CURVE SMOOTH",
"34 136 OFFCURVE",
"150 -10 OFFCURVE",
"419 -10 CURVE SMOOTH"
);
},
{
closed = 1;
nodes = (
"301 59 OFFCURVE",
"234 165 OFFCURVE",
"234 350 CURVE SMOOTH",
"234 534 OFFCURVE",
"301 643 OFFCURVE",
"418 643 CURVE SMOOTH",
"537 643 OFFCURVE",
"605 534 OFFCURVE",
"605 350 CURVE SMOOTH",
"605 165 OFFCURVE",
"537 59 OFFCURVE",
"418 59 CURVE SMOOTH"
);
},
{
closed = 1;
nodes = (
"456 828 LINE",
"443 829 OFFCURVE",
"427 832 OFFCURVE",
"427 854 CURVE SMOOTH",
"427 902 OFFCURVE",
"546 909 OFFCURVE",
"546 979 CURVE SMOOTH",
"546 1032 OFFCURVE",
"488 1057 OFFCURVE",
"424 1057 CURVE SMOOTH",
"332 1057 OFFCURVE",
"304 1016 OFFCURVE",
"304 991 CURVE SMOOTH",
"304 965 OFFCURVE",
"323 954 OFFCURVE",
"342 954 CURVE SMOOTH",
"363 954 OFFCURVE",
"379 967 OFFCURVE",
"380 985 CURVE",
"380 1014 OFFCURVE",
"405 1021 OFFCURVE",
"422 1021 CURVE SMOOTH",
"445 1021 OFFCURVE",
"455 1004 OFFCURVE",
"455 987 CURVE SMOOTH",
"455 923 OFFCURVE",
"359 910 OFFCURVE",
"359 856 CURVE SMOOTH",
"359 821 OFFCURVE",
"400 802 OFFCURVE",
"448 802 CURVE"
);
},
{
closed = 1;
nodes = (
"795 515 OFFCURVE",
"915 603 OFFCURVE",
"915 713 CURVE SMOOTH",
"915 780 OFFCURVE",
"876 818 OFFCURVE",
"827 818 CURVE SMOOTH",
"780 818 OFFCURVE",
"751 787 OFFCURVE",
"751 752 CURVE SMOOTH",
"751 708 OFFCURVE",
"796 689 OFFCURVE",
"796 645 CURVE SMOOTH",
"796 600 OFFCURVE",
"765 567 OFFCURVE",
"707 539 CURVE",
"707 500 LINE"
);
}
);
width = 852;
}
);
leftKerningGroup = O;
note = Ohornhookabove;
rightKerningGroup = O;
unicode = 1EDE;
},
{
glyphname = Ohorntilde;
lastChange = "2015-10-12 09:09:53 +0000";
layers = (
{
layerId = "797EEC19-8AF9-42AE-A04D-6994BCC84E1F";
name = Bold;
paths = (
{
closed = 1;
nodes = (
"689 -10 OFFCURVE",
"805 136 OFFCURVE",
"805 350 CURVE SMOOTH",
"805 563 OFFCURVE",
"689 710 OFFCURVE",
"419 710 CURVE SMOOTH",
"150 710 OFFCURVE",
"34 563 OFFCURVE",
"34 350 CURVE SMOOTH",
"34 136 OFFCURVE",
"150 -10 OFFCURVE",
"419 -10 CURVE SMOOTH"
);
},
{
closed = 1;
nodes = (
"301 59 OFFCURVE",
"234 165 OFFCURVE",
"234 350 CURVE SMOOTH",
"234 534 OFFCURVE",
"301 643 OFFCURVE",
"418 643 CURVE SMOOTH",
"537 643 OFFCURVE",
"605 534 OFFCURVE",
"605 350 CURVE SMOOTH",
"605 165 OFFCURVE",
"537 59 OFFCURVE",
"418 59 CURVE SMOOTH"
);
},
{
closed = 1;
nodes = (
"263 837 OFFCURVE",
"280 854 OFFCURVE",
"318 854 CURVE SMOOTH",
"383 854 OFFCURVE",
"441 809 OFFCURVE",
"504 809 CURVE SMOOTH",
"586 809 OFFCURVE",
"623 888 OFFCURVE",
"640 933 CURVE",
"608 951 LINE",
"586 911 OFFCURVE",
"570 894 OFFCURVE",
"531 894 CURVE SMOOTH",
"466 894 OFFCURVE",
"409 939 OFFCURVE",
"345 939 CURVE SMOOTH",
"263 939 OFFCURVE",
"227 860 OFFCURVE",
"208 815 CURVE",
"241 797 LINE"
);
},
{
closed = 1;
nodes = (
"795 515 OFFCURVE",
"915 603 OFFCURVE",
"915 713 CURVE SMOOTH",
"915 780 OFFCURVE",
"876 818 OFFCURVE",
"827 818 CURVE SMOOTH",
"780 818 OFFCURVE",
"751 787 OFFCURVE",
"751 752 CURVE SMOOTH",
"751 708 OFFCURVE",
"796 689 OFFCURVE",
"796 645 CURVE SMOOTH",
"796 600 OFFCURVE",
"765 567 OFFCURVE",
"707 539 CURVE",
"707 500 LINE"
);
}
);
width = 852;
}
);
leftKerningGroup = O;
note = Ohorntilde;
rightKerningGroup = O;
unicode = 1EE0;
},
{
glyphname = Ohungarumlaut;
lastChange = "2015-10-12 09:09:52 +0000";
layers = (
{
layerId = "797EEC19-8AF9-42AE-A04D-6994BCC84E1F";
name = Bold;
paths = (
{
closed = 1;
nodes = (
"685 -10 OFFCURVE",
"801 136 OFFCURVE",
"801 350 CURVE SMOOTH",
"801 563 OFFCURVE",
"685 710 OFFCURVE",
"415 710 CURVE SMOOTH",
"146 710 OFFCURVE",
"30 563 OFFCURVE",
"30 350 CURVE SMOOTH",
"30 136 OFFCURVE",
"146 -10 OFFCURVE",
"415 -10 CURVE SMOOTH"
);
},
{
closed = 1;
nodes = (
"297 59 OFFCURVE",
"230 165 OFFCURVE",
"230 350 CURVE SMOOTH",
"230 534 OFFCURVE",
"297 643 OFFCURVE",
"414 643 CURVE SMOOTH",
"533 643 OFFCURVE",
"601 534 OFFCURVE",
"601 350 CURVE SMOOTH",
"601 165 OFFCURVE",
"533 59 OFFCURVE",
"414 59 CURVE SMOOTH"
);
},
{
closed = 1;
nodes = (
"418 871 LINE SMOOTH",
"456 893 OFFCURVE",
"477 915 OFFCURVE",
"477 944 CURVE SMOOTH",
"477 967 OFFCURVE",
"461 996 OFFCURVE",
"416 996 CURVE SMOOTH",
"378 996 OFFCURVE",
"347 962 OFFCURVE",
"341 955 CURVE SMOOTH",
"216 819 LINE",
"249 772 LINE"
);
},
{
closed = 1;
nodes = (
"641 871 LINE SMOOTH",
"678 893 OFFCURVE",
"700 915 OFFCURVE",
"700 944 CURVE SMOOTH",
"700 967 OFFCURVE",
"684 996 OFFCURVE",
"640 996 CURVE SMOOTH",
"601 996 OFFCURVE",
"569 962 OFFCURVE",
"563 955 CURVE SMOOTH",
"438 819 LINE",
"471 772 LINE"
);
}
);
width = 831;
}
);
leftKerningGroup = O;
note = Ohungarumlaut;
rightKerningGroup = O;
unicode = 0150;
},
{
glyphname = Omacron;
lastChange = "2015-10-12 09:09:52 +0000";
layers = (
{
layerId = "797EEC19-8AF9-42AE-A04D-6994BCC84E1F";
name = Bold;
paths = (
{
closed = 1;
nodes = (
"685 -10 OFFCURVE",
"801 136 OFFCURVE",
"801 350 CURVE SMOOTH",
"801 563 OFFCURVE",
"685 710 OFFCURVE",
"415 710 CURVE SMOOTH",
"146 710 OFFCURVE",
"30 563 OFFCURVE",
"30 350 CURVE SMOOTH",
"30 136 OFFCURVE",
"146 -10 OFFCURVE",
"415 -10 CURVE SMOOTH"
);
},
{
closed = 1;
nodes = (
"297 59 OFFCURVE",
"230 165 OFFCURVE",
"230 350 CURVE SMOOTH",
"230 534 OFFCURVE",
"297 643 OFFCURVE",
"414 643 CURVE SMOOTH",
"533 643 OFFCURVE",
"601 534 OFFCURVE",
"601 350 CURVE SMOOTH",
"601 165 OFFCURVE",
"533 59 OFFCURVE",
"414 59 CURVE SMOOTH"
);
},
{
closed = 1;
nodes = (
"625 776 LINE",
"625 848 LINE",
"205 848 LINE",
"205 776 LINE"
);
}
);
width = 831;
}
);
leftKerningGroup = O;
note = Omacron;
rightKerningGroup = O;
unicode = 014C;
},
{
glyphname = Oslash;
lastChange = "2015-10-12 09:09:53 +0000";
layers = (
{
layerId = "797EEC19-8AF9-42AE-A04D-6994BCC84E1F";
name = Bold;
paths = (
{
closed = 1;
nodes = (
"685 -10 OFFCURVE",
"801 136 OFFCURVE",
"801 350 CURVE SMOOTH",
"801 563 OFFCURVE",
"685 710 OFFCURVE",
"415 710 CURVE SMOOTH",
"146 710 OFFCURVE",
"30 563 OFFCURVE",
"30 350 CURVE SMOOTH",
"30 136 OFFCURVE",
"146 -10 OFFCURVE",
"415 -10 CURVE SMOOTH"
);
},
{
closed = 1;
nodes = (
"729 685 LINE",
"673 729 LINE",
"42 5 LINE",
"95 -38 LINE"
);
},
{
closed = 1;
nodes = (
"297 59 OFFCURVE",
"230 165 OFFCURVE",
"230 350 CURVE SMOOTH",
"230 534 OFFCURVE",
"297 643 OFFCURVE",
"414 643 CURVE SMOOTH",
"533 643 OFFCURVE",
"601 534 OFFCURVE",
"601 350 CURVE SMOOTH",
"601 165 OFFCURVE",
"533 59 OFFCURVE",
"414 59 CURVE SMOOTH"
);
}
);
width = 831;
}
);
leftKerningGroup = O;
note = Oslash;
rightKerningGroup = O;
unicode = 00D8;
},
{
glyphname = Oslashacute;
lastChange = "2015-10-12 09:09:52 +0000";
layers = (
{
layerId = "797EEC19-8AF9-42AE-A04D-6994BCC84E1F";
name = Bold;
paths = (
{
closed = 1;
nodes = (
"685 -10 OFFCURVE",
"801 136 OFFCURVE",
"801 350 CURVE SMOOTH",
"801 563 OFFCURVE",
"685 710 OFFCURVE",
"415 710 CURVE SMOOTH",
"146 710 OFFCURVE",
"30 563 OFFCURVE",
"30 350 CURVE SMOOTH",
"30 136 OFFCURVE",
"146 -10 OFFCURVE",
"415 -10 CURVE SMOOTH"
);
},
{
closed = 1;
nodes = (
"729 685 LINE",
"673 729 LINE",
"42 5 LINE",
"95 -38 LINE"
);
},
{
closed = 1;
nodes = (
"297 59 OFFCURVE",
"230 165 OFFCURVE",
"230 350 CURVE SMOOTH",
"230 534 OFFCURVE",
"297 643 OFFCURVE",
"414 643 CURVE SMOOTH",
"533 643 OFFCURVE",
"601 534 OFFCURVE",
"601 350 CURVE SMOOTH",
"601 165 OFFCURVE",
"533 59 OFFCURVE",
"414 59 CURVE SMOOTH"
);
},
{
closed = 1;
nodes = (
"488 873 LINE SMOOTH",
"525 895 OFFCURVE",
"547 917 OFFCURVE",
"547 945 CURVE SMOOTH",
"547 969 OFFCURVE",
"530 998 OFFCURVE",
"485 998 CURVE SMOOTH",
"446 998 OFFCURVE",
"417 964 OFFCURVE",
"411 957 CURVE",
"285 821 LINE",
"319 774 LINE"
);
}
);
width = 831;
}
);
leftKerningGroup = O;
note = Oslashacute;
rightKerningGroup = O;
unicode = 01FE;
},
{
glyphname = Otilde;
lastChange = "2015-10-12 09:09:53 +0000";
layers = (
{
layerId = "797EEC19-8AF9-42AE-A04D-6994BCC84E1F";
name = Bold;
paths = (
{
closed = 1;
nodes = (
"685 -10 OFFCURVE",
"801 136 OFFCURVE",
"801 350 CURVE SMOOTH",
"801 563 OFFCURVE",
"685 710 OFFCURVE",
"415 710 CURVE SMOOTH",
"146 710 OFFCURVE",
"30 563 OFFCURVE",
"30 350 CURVE SMOOTH",
"30 136 OFFCURVE",
"146 -10 OFFCURVE",
"415 -10 CURVE SMOOTH"
);
},
{
closed = 1;
nodes = (
"297 59 OFFCURVE",
"230 165 OFFCURVE",
"230 350 CURVE SMOOTH",
"230 534 OFFCURVE",
"297 643 OFFCURVE",
"414 643 CURVE SMOOTH",
"533 643 OFFCURVE",
"601 534 OFFCURVE",
"601 350 CURVE SMOOTH",
"601 165 OFFCURVE",
"533 59 OFFCURVE",
"414 59 CURVE SMOOTH"
);
},
{
closed = 1;
nodes = (
"245 811 OFFCURVE",
"262 828 OFFCURVE",
"300 828 CURVE SMOOTH",
"365 828 OFFCURVE",
"423 783 OFFCURVE",
"486 783 CURVE SMOOTH",
"568 783 OFFCURVE",
"605 862 OFFCURVE",
"622 907 CURVE",
"590 925 LINE",
"568 885 OFFCURVE",
"552 868 OFFCURVE",
"513 868 CURVE SMOOTH",
"448 868 OFFCURVE",
"391 913 OFFCURVE",
"327 913 CURVE SMOOTH",
"245 913 OFFCURVE",
"209 834 OFFCURVE",
"190 789 CURVE",
"223 771 LINE"
);
}
);
width = 831;
}
);
leftKerningGroup = O;
note = Otilde;
rightKerningGroup = O;
unicode = 00D5;
},
{
glyphname = OE;
lastChange = "2015-10-12 09:09:52 +0000";
layers = (
{
layerId = "797EEC19-8AF9-42AE-A04D-6994BCC84E1F";
name = Bold;
paths = (
{
closed = 1;
nodes = (
"524 -10 OFFCURVE",
"609 53 OFFCURVE",
"654 142 CURVE",
"581 199 LINE",
"553 108 OFFCURVE",
"496 57 OFFCURVE",
"415 57 CURVE SMOOTH",
"298 57 OFFCURVE",
"231 165 OFFCURVE",
"231 350 CURVE SMOOTH",
"231 534 OFFCURVE",
"298 643 OFFCURVE",
"415 643 CURVE SMOOTH",
"496 643 OFFCURVE",
"553 592 OFFCURVE",
"581 500 CURVE",
"654 558 LINE",
"609 646 OFFCURVE",
"524 710 OFFCURVE",
"393 710 CURVE SMOOTH",
"147 710 OFFCURVE",
"31 563 OFFCURVE",
"31 350 CURVE SMOOTH",
"31 136 OFFCURVE",
"147 -10 OFFCURVE",
"393 -10 CURVE SMOOTH"
);
},
{
closed = 1;
nodes = (
"1095 0 LINE",
"1116 200 LINE",
"1069 200 LINE",
"1058 127 OFFCURVE",
"1037 65 OFFCURVE",
"964 65 CURVE SMOOTH",
"760 65 LINE",
"760 634 LINE",
"936 634 LINE SMOOTH",
"1032 634 OFFCURVE",
"1045 535 OFFCURVE",
"1049 499 CURVE",
"1096 499 LINE",
"1096 700 LINE",
"563 700 LINE",
"563 0 LINE"
);
},
{
closed = 1;
nodes = (
"1010 241 LINE",
"1010 482 LINE",
"972 482 LINE",
"968 439 OFFCURVE",
"962 394 OFFCURVE",
"917 394 CURVE SMOOTH",
"715 394 LINE",
"715 329 LINE",
"917 329 LINE SMOOTH",
"962 329 OFFCURVE",
"968 284 OFFCURVE",
"972 241 CURVE"
);
}
);
width = 1147;
}
);
note = OE;
unicode = 0152;
},
{
glyphname = P;
lastChange = "2015-10-12 09:09:52 +0000";
layers = (
{
layerId = "797EEC19-8AF9-42AE-A04D-6994BCC84E1F";
name = Bold;
paths = (
{
closed = 1;
nodes = (
"380 0 LINE",
"380 46 LINE",
"348 46 LINE SMOOTH",
"310 46 OFFCURVE",
"294 59 OFFCURVE",
"294 85 CURVE SMOOTH",
"294 264 LINE",
"416 264 LINE SMOOTH",
"603 264 OFFCURVE",
"658 355 OFFCURVE",
"658 482 CURVE SMOOTH",
"658 610 OFFCURVE",
"603 700 OFFCURVE",
"416 700 CURVE SMOOTH",
"11 700 LINE",
"11 654 LINE",
"43 654 LINE SMOOTH",
"81 654 OFFCURVE",
"97 640 OFFCURVE",
"97 614 CURVE SMOOTH",
"97 85 LINE SMOOTH",
"97 59 OFFCURVE",
"81 46 OFFCURVE",
"43 46 CURVE SMOOTH",
"11 46 LINE",
"11 0 LINE"
);
},
{
closed = 1;
nodes = (
"294 634 LINE",
"367 634 LINE SMOOTH",
"435 634 OFFCURVE",
"464 582 OFFCURVE",
"464 482 CURVE SMOOTH",
"464 383 OFFCURVE",
"435 329 OFFCURVE",
"367 329 CURVE SMOOTH",
"294 329 LINE"
);
}
);
width = 678;
}
);
note = P;
unicode = 0050;
},
{
glyphname = Thorn;
lastChange = "2015-10-12 09:09:52 +0000";
layers = (
{
layerId = "797EEC19-8AF9-42AE-A04D-6994BCC84E1F";
name = Bold;
paths = (
{
closed = 1;
nodes = (
"380 0 LINE",
"380 46 LINE",
"348 46 LINE SMOOTH",
"310 46 OFFCURVE",
"294 59 OFFCURVE",
"294 85 CURVE SMOOTH",
"294 159 LINE",
"416 159 LINE SMOOTH",
"603 159 OFFCURVE",
"658 250 OFFCURVE",
"658 377 CURVE SMOOTH",
"658 505 OFFCURVE",
"603 595 OFFCURVE",
"416 595 CURVE SMOOTH",
"294 595 LINE",
"294 700 LINE",
"11 700 LINE",
"11 654 LINE",
"43 654 LINE SMOOTH",
"81 654 OFFCURVE",
"97 640 OFFCURVE",
"97 614 CURVE SMOOTH",
"97 85 LINE SMOOTH",
"97 59 OFFCURVE",
"81 46 OFFCURVE",
"43 46 CURVE SMOOTH",
"11 46 LINE",
"11 0 LINE"
);
},
{
closed = 1;
nodes = (
"294 530 LINE",
"367 530 LINE SMOOTH",
"435 530 OFFCURVE",
"464 477 OFFCURVE",
"464 377 CURVE SMOOTH",
"464 278 OFFCURVE",
"435 224 OFFCURVE",
"367 224 CURVE SMOOTH",
"294 224 LINE"
);
}
);
width = 678;
}
);
note = Thorn;
unicode = 00DE;
},
{
glyphname = Q;
lastChange = "2015-10-12 09:09:52 +0000";
layers = (
{
layerId = "797EEC19-8AF9-42AE-A04D-6994BCC84E1F";
name = Bold;
paths = (
{
closed = 1;
nodes = (
"685 -10 OFFCURVE",
"801 136 OFFCURVE",
"801 350 CURVE SMOOTH",
"801 563 OFFCURVE",
"685 710 OFFCURVE",
"415 710 CURVE SMOOTH",
"146 710 OFFCURVE",
"30 563 OFFCURVE",
"30 350 CURVE SMOOTH",
"30 136 OFFCURVE",
"146 -10 OFFCURVE",
"415 -10 CURVE SMOOTH"
);
},
{
closed = 1;
nodes = (
"690 -205 OFFCURVE",
"733 -137 OFFCURVE",
"733 -64 CURVE SMOOTH",
"733 -55 OFFCURVE",
"732 -42 OFFCURVE",
"730 -32 CURVE",
"697 -32 LINE",
"681 -80 OFFCURVE",
"657 -98 OFFCURVE",
"607 -98 CURVE SMOOTH",
"513 -98 OFFCURVE",
"444 -33 OFFCURVE",
"343 -33 CURVE SMOOTH",
"330 -33 LINE",
"356 -12 OFFCURVE",
"376 1 OFFCURVE",
"399 11 CURVE",
"399 15 LINE",
"325 15 LINE",
"269 -3 OFFCURVE",
"216 -47 OFFCURVE",
"182 -82 CURVE",
"201 -109 LINE",
"229 -93 OFFCURVE",
"255 -88 OFFCURVE",
"280 -88 CURVE SMOOTH",
"384 -88 OFFCURVE",
"470 -205 OFFCURVE",
"580 -205 CURVE SMOOTH"
);
},
{
closed = 1;
nodes = (
"297 59 OFFCURVE",
"230 165 OFFCURVE",
"230 350 CURVE SMOOTH",
"230 534 OFFCURVE",
"297 643 OFFCURVE",
"414 643 CURVE SMOOTH",
"533 643 OFFCURVE",
"601 534 OFFCURVE",
"601 350 CURVE SMOOTH",
"601 165 OFFCURVE",
"533 59 OFFCURVE",
"414 59 CURVE SMOOTH"
);
}
);
width = 831;
}
);
leftKerningGroup = O;
note = Q;
rightKerningGroup = O;
unicode = 0051;
},
{
glyphname = R;
lastChange = "2015-10-12 09:09:52 +0000";
layers = (
{
layerId = "797EEC19-8AF9-42AE-A04D-6994BCC84E1F";
name = Bold;
paths = (
{
closed = 1;
nodes = (
"380 0 LINE",
"380 46 LINE",
"348 46 LINE SMOOTH",
"310 46 OFFCURVE",
"294 59 OFFCURVE",
"294 85 CURVE SMOOTH",
"294 283 LINE",
"416 283 LINE SMOOTH",
"603 283 OFFCURVE",
"658 364 OFFCURVE",
"658 492 CURVE SMOOTH",
"658 620 OFFCURVE",
"603 700 OFFCURVE",
"416 700 CURVE SMOOTH",
"11 700 LINE",
"11 654 LINE",
"43 654 LINE SMOOTH",
"81 654 OFFCURVE",
"97 640 OFFCURVE",
"97 614 CURVE SMOOTH",
"97 85 LINE SMOOTH",
"97 59 OFFCURVE",
"81 46 OFFCURVE",
"43 46 CURVE SMOOTH",
"11 46 LINE",
"11 0 LINE"
);
},
{
closed = 1;
nodes = (
"723 0 LINE",
"723 46 LINE",
"658 50 OFFCURVE",
"638 115 OFFCURVE",
"618 179 CURVE SMOOTH",
"604 224 OFFCURVE",
"588 279 OFFCURVE",
"515 304 CURVE",
"336 304 LINE",
"336 300 LINE",
"421 276 OFFCURVE",
"409 179 OFFCURVE",
"434 100 CURVE SMOOTH",
"457 27 OFFCURVE",
"489 0 OFFCURVE",
"583 0 CURVE SMOOTH"
);
},
{
closed = 1;
nodes = (
"294 634 LINE",
"367 634 LINE SMOOTH",
"434 634 OFFCURVE",
"464 592 OFFCURVE",
"464 492 CURVE SMOOTH",
"464 393 OFFCURVE",
"434 349 OFFCURVE",
"367 349 CURVE SMOOTH",
"294 349 LINE"
);
}
);
width = 748;
}
);
note = R;
rightKerningGroup = R;
unicode = 0052;
},
{
glyphname = Racute;
lastChange = "2015-10-12 09:09:53 +0000";
layers = (
{
layerId = "797EEC19-8AF9-42AE-A04D-6994BCC84E1F";
name = Bold;
paths = (
{
closed = 1;
nodes = (
"380 0 LINE",
"380 46 LINE",
"348 46 LINE SMOOTH",
"310 46 OFFCURVE",
"294 59 OFFCURVE",
"294 85 CURVE SMOOTH",
"294 283 LINE",
"416 283 LINE SMOOTH",
"603 283 OFFCURVE",
"658 364 OFFCURVE",
"658 492 CURVE SMOOTH",
"658 620 OFFCURVE",
"603 700 OFFCURVE",
"416 700 CURVE SMOOTH",
"11 700 LINE",
"11 654 LINE",
"43 654 LINE SMOOTH",
"81 654 OFFCURVE",
"97 640 OFFCURVE",
"97 614 CURVE SMOOTH",
"97 85 LINE SMOOTH",
"97 59 OFFCURVE",
"81 46 OFFCURVE",
"43 46 CURVE SMOOTH",
"11 46 LINE",
"11 0 LINE"
);
},
{
closed = 1;
nodes = (
"723 0 LINE",
"723 46 LINE",
"658 50 OFFCURVE",
"638 115 OFFCURVE",
"618 179 CURVE SMOOTH",
"604 224 OFFCURVE",
"588 279 OFFCURVE",
"515 304 CURVE",
"336 304 LINE",
"336 300 LINE",
"421 276 OFFCURVE",
"409 179 OFFCURVE",
"434 100 CURVE SMOOTH",
"457 27 OFFCURVE",
"489 0 OFFCURVE",
"583 0 CURVE SMOOTH"
);
},
{
closed = 1;
nodes = (
"294 634 LINE",
"367 634 LINE SMOOTH",
"434 634 OFFCURVE",
"464 592 OFFCURVE",
"464 492 CURVE SMOOTH",
"464 393 OFFCURVE",
"434 349 OFFCURVE",
"367 349 CURVE SMOOTH",
"294 349 LINE"
);
},
{
closed = 1;
nodes = (
"452 873 LINE SMOOTH",
"489 895 OFFCURVE",
"511 917 OFFCURVE",
"511 945 CURVE SMOOTH",
"511 969 OFFCURVE",
"494 998 OFFCURVE",
"449 998 CURVE SMOOTH",
"410 998 OFFCURVE",
"381 964 OFFCURVE",
"375 957 CURVE",
"249 821 LINE",
"283 774 LINE"
);
}
);
width = 748;
}
);
note = Racute;
rightKerningGroup = R;
unicode = 0154;
},
{
glyphname = Rcaron;
lastChange = "2015-10-12 09:09:53 +0000";
layers = (
{
layerId = "797EEC19-8AF9-42AE-A04D-6994BCC84E1F";
name = Bold;
paths = (
{
closed = 1;
nodes = (
"380 0 LINE",
"380 46 LINE",
"348 46 LINE SMOOTH",
"310 46 OFFCURVE",
"294 59 OFFCURVE",
"294 85 CURVE SMOOTH",
"294 283 LINE",
"416 283 LINE SMOOTH",
"603 283 OFFCURVE",
"658 364 OFFCURVE",
"658 492 CURVE SMOOTH",
"658 620 OFFCURVE",
"603 700 OFFCURVE",
"416 700 CURVE SMOOTH",
"11 700 LINE",
"11 654 LINE",
"43 654 LINE SMOOTH",
"81 654 OFFCURVE",
"97 640 OFFCURVE",
"97 614 CURVE SMOOTH",
"97 85 LINE SMOOTH",
"97 59 OFFCURVE",
"81 46 OFFCURVE",
"43 46 CURVE SMOOTH",
"11 46 LINE",
"11 0 LINE"
);
},
{
closed = 1;
nodes = (
"723 0 LINE",
"723 46 LINE",
"658 50 OFFCURVE",
"638 115 OFFCURVE",
"618 179 CURVE SMOOTH",
"604 224 OFFCURVE",
"588 279 OFFCURVE",
"515 304 CURVE",
"336 304 LINE",
"336 300 LINE",
"421 276 OFFCURVE",
"409 179 OFFCURVE",
"434 100 CURVE SMOOTH",
"457 27 OFFCURVE",
"489 0 OFFCURVE",
"583 0 CURVE SMOOTH"
);
},
{
closed = 1;
nodes = (
"294 634 LINE",
"367 634 LINE SMOOTH",
"434 634 OFFCURVE",
"464 592 OFFCURVE",
"464 492 CURVE SMOOTH",
"464 393 OFFCURVE",
"434 349 OFFCURVE",
"367 349 CURVE SMOOTH",
"294 349 LINE"
);
},
{
closed = 1;
nodes = (
"426 775 LINE",
"586 955 LINE",
"559 984 LINE",
"421 882 LINE SMOOTH",
"405 870 OFFCURVE",
"390 862 OFFCURVE",
"379 862 CURVE SMOOTH",
"368 862 OFFCURVE",
"353 870 OFFCURVE",
"337 882 CURVE SMOOTH",
"198 984 LINE",
"171 955 LINE",
"332 775 LINE"
);
}
);
width = 748;
}
);
note = Rcaron;
rightKerningGroup = R;
unicode = 0158;
},
{
glyphname = Rcommaaccent;
lastChange = "2015-10-12 09:09:53 +0000";
layers = (
{
layerId = "797EEC19-8AF9-42AE-A04D-6994BCC84E1F";
name = Bold;
paths = (
{
closed = 1;
nodes = (
"380 0 LINE",
"380 46 LINE",
"348 46 LINE SMOOTH",
"310 46 OFFCURVE",
"294 59 OFFCURVE",
"294 85 CURVE SMOOTH",
"294 283 LINE",
"416 283 LINE SMOOTH",
"603 283 OFFCURVE",
"658 364 OFFCURVE",
"658 492 CURVE SMOOTH",
"658 620 OFFCURVE",
"603 700 OFFCURVE",
"416 700 CURVE SMOOTH",
"11 700 LINE",
"11 654 LINE",
"43 654 LINE SMOOTH",
"81 654 OFFCURVE",
"97 640 OFFCURVE",
"97 614 CURVE SMOOTH",
"97 85 LINE SMOOTH",
"97 59 OFFCURVE",
"81 46 OFFCURVE",
"43 46 CURVE SMOOTH",
"11 46 LINE",
"11 0 LINE"
);
},
{
closed = 1;
nodes = (
"395 -354 OFFCURVE",
"476 -268 OFFCURVE",
"476 -182 CURVE SMOOTH",
"476 -115 OFFCURVE",
"437 -76 OFFCURVE",
"388 -76 CURVE SMOOTH",
"341 -76 OFFCURVE",
"312 -108 OFFCURVE",
"312 -143 CURVE SMOOTH",
"312 -187 OFFCURVE",
"357 -205 OFFCURVE",
"357 -250 CURVE SMOOTH",
"357 -295 OFFCURVE",
"332 -335 OFFCURVE",
"297 -371 CURVE",
"326 -398 LINE"
);
},
{
closed = 1;
nodes = (
"723 0 LINE",
"723 46 LINE",
"658 50 OFFCURVE",
"638 115 OFFCURVE",
"618 179 CURVE SMOOTH",
"604 224 OFFCURVE",
"588 279 OFFCURVE",
"515 304 CURVE",
"336 304 LINE",
"336 300 LINE",
"421 276 OFFCURVE",
"409 179 OFFCURVE",
"434 100 CURVE SMOOTH",
"457 27 OFFCURVE",
"489 0 OFFCURVE",
"583 0 CURVE SMOOTH"
);
},
{
closed = 1;
nodes = (
"294 634 LINE",
"367 634 LINE SMOOTH",
"434 634 OFFCURVE",
"464 592 OFFCURVE",
"464 492 CURVE SMOOTH",
"464 393 OFFCURVE",
"434 349 OFFCURVE",
"367 349 CURVE SMOOTH",
"294 349 LINE"
);
}
);
width = 748;
}
);
note = Rcommaaccent;
rightKerningGroup = R;
unicode = 0156;
},
{
glyphname = Rdotbelow;
lastChange = "2015-10-12 09:09:53 +0000";
layers = (
{
layerId = "797EEC19-8AF9-42AE-A04D-6994BCC84E1F";
name = Bold;
paths = (
{
closed = 1;
nodes = (
"380 0 LINE",
"380 46 LINE",
"348 46 LINE SMOOTH",
"310 46 OFFCURVE",
"294 59 OFFCURVE",
"294 85 CURVE SMOOTH",
"294 283 LINE",
"416 283 LINE SMOOTH",
"603 283 OFFCURVE",
"658 364 OFFCURVE",
"658 492 CURVE SMOOTH",
"658 620 OFFCURVE",
"603 700 OFFCURVE",
"416 700 CURVE SMOOTH",
"11 700 LINE",
"11 654 LINE",
"43 654 LINE SMOOTH",
"81 654 OFFCURVE",
"97 640 OFFCURVE",
"97 614 CURVE SMOOTH",
"97 85 LINE SMOOTH",
"97 59 OFFCURVE",
"81 46 OFFCURVE",
"43 46 CURVE SMOOTH",
"11 46 LINE",
"11 0 LINE"
);
},
{
closed = 1;
nodes = (
"422 -211 OFFCURVE",
"450 -179 OFFCURVE",
"450 -138 CURVE SMOOTH",
"450 -98 OFFCURVE",
"422 -64 OFFCURVE",
"377 -64 CURVE SMOOTH",
"332 -64 OFFCURVE",
"304 -98 OFFCURVE",
"304 -138 CURVE SMOOTH",
"304 -179 OFFCURVE",
"332 -211 OFFCURVE",
"377 -211 CURVE SMOOTH"
);
},
{
closed = 1;
nodes = (
"723 0 LINE",
"723 46 LINE",
"658 50 OFFCURVE",
"638 115 OFFCURVE",
"618 179 CURVE SMOOTH",
"604 224 OFFCURVE",
"588 279 OFFCURVE",
"515 304 CURVE",
"336 304 LINE",
"336 300 LINE",
"421 276 OFFCURVE",
"409 179 OFFCURVE",
"434 100 CURVE SMOOTH",
"457 27 OFFCURVE",
"489 0 OFFCURVE",
"583 0 CURVE SMOOTH"
);
},
{
closed = 1;
nodes = (
"294 634 LINE",
"367 634 LINE SMOOTH",
"434 634 OFFCURVE",
"464 592 OFFCURVE",
"464 492 CURVE SMOOTH",
"464 393 OFFCURVE",
"434 349 OFFCURVE",
"367 349 CURVE SMOOTH",
"294 349 LINE"
);
}
);
width = 748;
}
);
note = Rdotbelow;
rightKerningGroup = R;
unicode = 1E5A;
},
{
glyphname = Rdotbelowmacron;
lastChange = "2015-10-12 09:09:53 +0000";
layers = (
{
layerId = "797EEC19-8AF9-42AE-A04D-6994BCC84E1F";
name = Bold;
paths = (
{
closed = 1;
nodes = (
"380 0 LINE",
"380 46 LINE",
"348 46 LINE SMOOTH",
"310 46 OFFCURVE",
"294 59 OFFCURVE",
"294 85 CURVE SMOOTH",
"294 283 LINE",
"416 283 LINE SMOOTH",
"603 283 OFFCURVE",
"658 364 OFFCURVE",
"658 492 CURVE SMOOTH",
"658 620 OFFCURVE",
"603 700 OFFCURVE",
"416 700 CURVE SMOOTH",
"11 700 LINE",
"11 654 LINE",
"43 654 LINE SMOOTH",
"81 654 OFFCURVE",
"97 640 OFFCURVE",
"97 614 CURVE SMOOTH",
"97 85 LINE SMOOTH",
"97 59 OFFCURVE",
"81 46 OFFCURVE",
"43 46 CURVE SMOOTH",
"11 46 LINE",
"11 0 LINE"
);
},
{
closed = 1;
nodes = (
"422 -211 OFFCURVE",
"450 -179 OFFCURVE",
"450 -138 CURVE SMOOTH",
"450 -98 OFFCURVE",
"422 -64 OFFCURVE",
"377 -64 CURVE SMOOTH",
"332 -64 OFFCURVE",
"304 -98 OFFCURVE",
"304 -138 CURVE SMOOTH",
"304 -179 OFFCURVE",
"332 -211 OFFCURVE",
"377 -211 CURVE SMOOTH"
);
},
{
closed = 1;
nodes = (
"723 0 LINE",
"723 46 LINE",
"658 50 OFFCURVE",
"638 115 OFFCURVE",
"618 179 CURVE SMOOTH",
"604 224 OFFCURVE",
"588 279 OFFCURVE",
"515 304 CURVE",
"336 304 LINE",
"336 300 LINE",
"421 276 OFFCURVE",
"409 179 OFFCURVE",
"434 100 CURVE SMOOTH",
"457 27 OFFCURVE",
"489 0 OFFCURVE",
"583 0 CURVE SMOOTH"
);
},
{
closed = 1;
nodes = (
"294 634 LINE",
"367 634 LINE SMOOTH",
"434 634 OFFCURVE",
"464 592 OFFCURVE",
"464 492 CURVE SMOOTH",
"464 393 OFFCURVE",
"434 349 OFFCURVE",
"367 349 CURVE SMOOTH",
"294 349 LINE"
);
},
{
closed = 1;
nodes = (
"548 773 LINE",
"548 845 LINE",
"128 845 LINE",
"128 773 LINE"
);
}
);
width = 748;
}
);
note = Rdotbelowmacron;
rightKerningGroup = R;
unicode = 1E5C;
},
{
glyphname = Rlinebelow;
lastChange = "2015-10-12 09:09:53 +0000";
layers = (
{
layerId = "797EEC19-8AF9-42AE-A04D-6994BCC84E1F";
name = Bold;
paths = (
{
closed = 1;
nodes = (
"380 0 LINE",
"380 46 LINE",
"348 46 LINE SMOOTH",
"310 46 OFFCURVE",
"294 59 OFFCURVE",
"294 85 CURVE SMOOTH",
"294 283 LINE",
"416 283 LINE SMOOTH",
"603 283 OFFCURVE",
"658 364 OFFCURVE",
"658 492 CURVE SMOOTH",
"658 620 OFFCURVE",
"603 700 OFFCURVE",
"416 700 CURVE SMOOTH",
"11 700 LINE",
"11 654 LINE",
"43 654 LINE SMOOTH",
"81 654 OFFCURVE",
"97 640 OFFCURVE",
"97 614 CURVE SMOOTH",
"97 85 LINE SMOOTH",
"97 59 OFFCURVE",
"81 46 OFFCURVE",
"43 46 CURVE SMOOTH",
"11 46 LINE",
"11 0 LINE"
);
},
{
closed = 1;
nodes = (
"553 -128 LINE",
"553 -65 LINE",
"133 -65 LINE",
"133 -128 LINE"
);
},
{
closed = 1;
nodes = (
"723 0 LINE",
"723 46 LINE",
"658 50 OFFCURVE",
"638 115 OFFCURVE",
"618 179 CURVE SMOOTH",
"604 224 OFFCURVE",
"588 279 OFFCURVE",
"515 304 CURVE",
"336 304 LINE",
"336 300 LINE",
"421 276 OFFCURVE",
"409 179 OFFCURVE",
"434 100 CURVE SMOOTH",
"457 27 OFFCURVE",
"489 0 OFFCURVE",
"583 0 CURVE SMOOTH"
);
},
{
closed = 1;
nodes = (
"294 634 LINE",
"367 634 LINE SMOOTH",
"434 634 OFFCURVE",
"464 592 OFFCURVE",
"464 492 CURVE SMOOTH",
"464 393 OFFCURVE",
"434 349 OFFCURVE",
"367 349 CURVE SMOOTH",
"294 349 LINE"
);
}
);
width = 748;
}
);
note = Rlinebelow;
rightKerningGroup = R;
unicode = 1E5E;
},
{
glyphname = S;
lastChange = "2015-10-12 09:09:51 +0000";
layers = (
{
layerId = "797EEC19-8AF9-42AE-A04D-6994BCC84E1F";
name = Bold;
paths = (
{
closed = 1;
nodes = (
"499 -10 OFFCURVE",
"629 47 OFFCURVE",
"629 199 CURVE SMOOTH",
"629 484 OFFCURVE",
"245 397 OFFCURVE",
"245 553 CURVE SMOOTH",
"245 614 OFFCURVE",
"308 642 OFFCURVE",
"364 642 CURVE SMOOTH",
"445 642 OFFCURVE",
"530 605 OFFCURVE",
"546 489 CURVE",
"600 489 LINE",
"600 705 LINE",
"538 705 LINE",
"538 666 LINE SMOOTH",
"538 659 OFFCURVE",
"538 654 OFFCURVE",
"533 654 CURVE SMOOTH",
"532 654 OFFCURVE",
"527 656 OFFCURVE",
"525 657 CURVE SMOOTH",
"483 679 OFFCURVE",
"426 710 OFFCURVE",
"318 710 CURVE SMOOTH",
"151 710 OFFCURVE",
"45 648 OFFCURVE",
"45 521 CURVE SMOOTH",
"45 263 OFFCURVE",
"429 336 OFFCURVE",
"429 165 CURVE SMOOTH",
"429 82 OFFCURVE",
"361 58 OFFCURVE",
"288 58 CURVE SMOOTH",
"207 58 OFFCURVE",
"108 95 OFFCURVE",
"92 211 CURVE",
"38 211 LINE",
"38 -5 LINE",
"100 -5 LINE",
"100 41 LINE SMOOTH",
"100 46 OFFCURVE",
"104 49 OFFCURVE",
"107 49 CURVE SMOOTH",
"111 49 OFFCURVE",
"114 48 OFFCURVE",
"118 46 CURVE",
"162 19 OFFCURVE",
"224 -10 OFFCURVE",
"335 -10 CURVE SMOOTH"
);
}
);
width = 667;
}
);
leftKerningGroup = S;
note = S;
rightKerningGroup = S;
unicode = 0053;
},
{
glyphname = Sacute;
lastChange = "2015-10-12 09:09:53 +0000";
layers = (
{
layerId = "797EEC19-8AF9-42AE-A04D-6994BCC84E1F";
name = Bold;
paths = (
{
closed = 1;
nodes = (
"499 -10 OFFCURVE",
"629 47 OFFCURVE",
"629 199 CURVE SMOOTH",
"629 484 OFFCURVE",
"245 397 OFFCURVE",
"245 553 CURVE SMOOTH",
"245 614 OFFCURVE",
"308 642 OFFCURVE",
"364 642 CURVE SMOOTH",
"445 642 OFFCURVE",
"530 605 OFFCURVE",
"546 489 CURVE",
"600 489 LINE",
"600 705 LINE",
"538 705 LINE",
"538 666 LINE SMOOTH",
"538 659 OFFCURVE",
"538 654 OFFCURVE",
"533 654 CURVE SMOOTH",
"532 654 OFFCURVE",
"527 656 OFFCURVE",
"525 657 CURVE SMOOTH",
"483 679 OFFCURVE",
"426 710 OFFCURVE",
"318 710 CURVE SMOOTH",
"151 710 OFFCURVE",
"45 648 OFFCURVE",
"45 521 CURVE SMOOTH",
"45 263 OFFCURVE",
"429 336 OFFCURVE",
"429 165 CURVE SMOOTH",
"429 82 OFFCURVE",
"361 58 OFFCURVE",
"288 58 CURVE SMOOTH",
"207 58 OFFCURVE",
"108 95 OFFCURVE",
"92 211 CURVE",
"38 211 LINE",
"38 -5 LINE",
"100 -5 LINE",
"100 41 LINE SMOOTH",
"100 46 OFFCURVE",
"104 49 OFFCURVE",
"107 49 CURVE SMOOTH",
"111 49 OFFCURVE",
"114 48 OFFCURVE",
"118 46 CURVE",
"162 19 OFFCURVE",
"224 -10 OFFCURVE",
"335 -10 CURVE SMOOTH"
);
},
{
closed = 1;
nodes = (
"405 873 LINE SMOOTH",
"442 895 OFFCURVE",
"464 917 OFFCURVE",
"464 945 CURVE SMOOTH",
"464 969 OFFCURVE",
"447 998 OFFCURVE",
"402 998 CURVE SMOOTH",
"363 998 OFFCURVE",
"334 964 OFFCURVE",
"328 957 CURVE",
"202 821 LINE",
"236 774 LINE"
);
}
);
width = 667;
}
);
leftKerningGroup = S;
note = Sacute;
rightKerningGroup = S;
unicode = 015A;
},
{
glyphname = Scaron;
lastChange = "2015-10-12 09:09:53 +0000";
layers = (
{
layerId = "797EEC19-8AF9-42AE-A04D-6994BCC84E1F";
name = Bold;
paths = (
{
closed = 1;
nodes = (
"499 -10 OFFCURVE",
"629 47 OFFCURVE",
"629 199 CURVE SMOOTH",
"629 484 OFFCURVE",
"245 397 OFFCURVE",
"245 553 CURVE SMOOTH",
"245 614 OFFCURVE",
"308 642 OFFCURVE",
"364 642 CURVE SMOOTH",
"445 642 OFFCURVE",
"530 605 OFFCURVE",
"546 489 CURVE",
"600 489 LINE",
"600 705 LINE",
"538 705 LINE",
"538 666 LINE SMOOTH",
"538 659 OFFCURVE",
"538 654 OFFCURVE",
"533 654 CURVE SMOOTH",
"532 654 OFFCURVE",
"527 656 OFFCURVE",
"525 657 CURVE SMOOTH",
"483 679 OFFCURVE",
"426 710 OFFCURVE",
"318 710 CURVE SMOOTH",
"151 710 OFFCURVE",
"45 648 OFFCURVE",
"45 521 CURVE SMOOTH",
"45 263 OFFCURVE",
"429 336 OFFCURVE",
"429 165 CURVE SMOOTH",
"429 82 OFFCURVE",
"361 58 OFFCURVE",
"288 58 CURVE SMOOTH",
"207 58 OFFCURVE",
"108 95 OFFCURVE",
"92 211 CURVE",
"38 211 LINE",
"38 -5 LINE",
"100 -5 LINE",
"100 41 LINE SMOOTH",
"100 46 OFFCURVE",
"104 49 OFFCURVE",
"107 49 CURVE SMOOTH",
"111 49 OFFCURVE",
"114 48 OFFCURVE",
"118 46 CURVE",
"162 19 OFFCURVE",
"224 -10 OFFCURVE",
"335 -10 CURVE SMOOTH"
);
},
{
closed = 1;
nodes = (
"379 775 LINE",
"539 955 LINE",
"512 984 LINE",
"374 882 LINE SMOOTH",
"358 870 OFFCURVE",
"343 862 OFFCURVE",
"332 862 CURVE SMOOTH",
"321 862 OFFCURVE",
"306 870 OFFCURVE",
"290 882 CURVE SMOOTH",
"151 984 LINE",
"124 955 LINE",
"285 775 LINE"
);
}
);
width = 667;
}
);
leftKerningGroup = S;
note = Scaron;
rightKerningGroup = S;
unicode = 0160;
},
{
glyphname = Scedilla;
lastChange = "2015-10-12 09:09:53 +0000";
layers = (
{
layerId = "797EEC19-8AF9-42AE-A04D-6994BCC84E1F";
name = Bold;
paths = (
{
closed = 1;
nodes = (
"499 -10 OFFCURVE",
"629 47 OFFCURVE",
"629 199 CURVE SMOOTH",
"629 484 OFFCURVE",
"245 397 OFFCURVE",
"245 553 CURVE SMOOTH",
"245 614 OFFCURVE",
"308 642 OFFCURVE",
"364 642 CURVE SMOOTH",
"445 642 OFFCURVE",
"530 605 OFFCURVE",
"546 489 CURVE",
"600 489 LINE",
"600 705 LINE",
"538 705 LINE",
"538 666 LINE SMOOTH",
"538 659 OFFCURVE",
"538 654 OFFCURVE",
"533 654 CURVE SMOOTH",
"532 654 OFFCURVE",
"527 656 OFFCURVE",
"525 657 CURVE SMOOTH",
"483 679 OFFCURVE",
"426 710 OFFCURVE",
"318 710 CURVE SMOOTH",
"151 710 OFFCURVE",
"45 648 OFFCURVE",
"45 521 CURVE SMOOTH",
"45 263 OFFCURVE",
"429 336 OFFCURVE",
"429 165 CURVE SMOOTH",
"429 82 OFFCURVE",
"361 58 OFFCURVE",
"288 58 CURVE SMOOTH",
"207 58 OFFCURVE",
"108 95 OFFCURVE",
"92 211 CURVE",
"38 211 LINE",
"38 -5 LINE",
"100 -5 LINE",
"100 41 LINE SMOOTH",
"100 46 OFFCURVE",
"104 49 OFFCURVE",
"107 49 CURVE SMOOTH",
"111 49 OFFCURVE",
"114 48 OFFCURVE",
"118 46 CURVE",
"162 19 OFFCURVE",
"224 -10 OFFCURVE",
"335 -10 CURVE SMOOTH"
);
},
{
closed = 1;
nodes = (
"321 -255 OFFCURVE",
"447 -245 OFFCURVE",
"447 -134 CURVE SMOOTH",
"447 -60 OFFCURVE",
"364 -39 OFFCURVE",
"328 -34 CURVE",
"373 34 LINE",
"307 34 LINE",
"236 -74 LINE",
"244 -86 LINE",
"267 -87 OFFCURVE",
"330 -99 OFFCURVE",
"330 -144 CURVE SMOOTH",
"330 -199 OFFCURVE",
"271 -211 OFFCURVE",
"202 -211 CURVE",
"202 -251 LINE",
"223 -254 OFFCURVE",
"237 -255 OFFCURVE",
"262 -255 CURVE SMOOTH"
);
}
);
width = 667;
}
);
leftKerningGroup = S;
note = Scedilla;
rightKerningGroup = S;
unicode = 015E;
},
{
glyphname = Scircumflex;
lastChange = "2015-10-12 09:09:53 +0000";
layers = (
{
layerId = "797EEC19-8AF9-42AE-A04D-6994BCC84E1F";
name = Bold;
paths = (
{
closed = 1;
nodes = (
"499 -10 OFFCURVE",
"629 47 OFFCURVE",
"629 199 CURVE SMOOTH",
"629 484 OFFCURVE",
"245 397 OFFCURVE",
"245 553 CURVE SMOOTH",
"245 614 OFFCURVE",
"308 642 OFFCURVE",
"364 642 CURVE SMOOTH",
"445 642 OFFCURVE",
"530 605 OFFCURVE",
"546 489 CURVE",
"600 489 LINE",
"600 705 LINE",
"538 705 LINE",
"538 666 LINE SMOOTH",
"538 659 OFFCURVE",
"538 654 OFFCURVE",
"533 654 CURVE SMOOTH",
"532 654 OFFCURVE",
"527 656 OFFCURVE",
"525 657 CURVE SMOOTH",
"483 679 OFFCURVE",
"426 710 OFFCURVE",
"318 710 CURVE SMOOTH",
"151 710 OFFCURVE",
"45 648 OFFCURVE",
"45 521 CURVE SMOOTH",
"45 263 OFFCURVE",
"429 336 OFFCURVE",
"429 165 CURVE SMOOTH",
"429 82 OFFCURVE",
"361 58 OFFCURVE",
"288 58 CURVE SMOOTH",
"207 58 OFFCURVE",
"108 95 OFFCURVE",
"92 211 CURVE",
"38 211 LINE",
"38 -5 LINE",
"100 -5 LINE",
"100 41 LINE SMOOTH",
"100 46 OFFCURVE",
"104 49 OFFCURVE",
"107 49 CURVE SMOOTH",
"111 49 OFFCURVE",
"114 48 OFFCURVE",
"118 46 CURVE",
"162 19 OFFCURVE",
"224 -10 OFFCURVE",
"335 -10 CURVE SMOOTH"
);
},
{
closed = 1;
nodes = (
"290 877 LINE SMOOTH",
"306 889 OFFCURVE",
"321 897 OFFCURVE",
"332 897 CURVE SMOOTH",
"343 897 OFFCURVE",
"358 889 OFFCURVE",
"374 877 CURVE SMOOTH",
"512 775 LINE",
"539 804 LINE",
"379 984 LINE",
"285 984 LINE",
"124 804 LINE",
"151 775 LINE"
);
}
);
width = 667;
}
);
leftKerningGroup = S;
note = Scircumflex;
rightKerningGroup = S;
unicode = 015C;
},
{
glyphname = Scommaaccent;
lastChange = "2015-10-12 09:09:53 +0000";
layers = (
{
layerId = "797EEC19-8AF9-42AE-A04D-6994BCC84E1F";
name = Bold;
paths = (
{
closed = 1;
nodes = (
"499 -10 OFFCURVE",
"629 47 OFFCURVE",
"629 199 CURVE SMOOTH",
"629 484 OFFCURVE",
"245 397 OFFCURVE",
"245 553 CURVE SMOOTH",
"245 614 OFFCURVE",
"308 642 OFFCURVE",
"364 642 CURVE SMOOTH",
"445 642 OFFCURVE",
"530 605 OFFCURVE",
"546 489 CURVE",
"600 489 LINE",
"600 705 LINE",
"538 705 LINE",
"538 666 LINE SMOOTH",
"538 659 OFFCURVE",
"538 654 OFFCURVE",
"533 654 CURVE SMOOTH",
"532 654 OFFCURVE",
"527 656 OFFCURVE",
"525 657 CURVE SMOOTH",
"483 679 OFFCURVE",
"426 710 OFFCURVE",
"318 710 CURVE SMOOTH",
"151 710 OFFCURVE",
"45 648 OFFCURVE",
"45 521 CURVE SMOOTH",
"45 263 OFFCURVE",
"429 336 OFFCURVE",
"429 165 CURVE SMOOTH",
"429 82 OFFCURVE",
"361 58 OFFCURVE",
"288 58 CURVE SMOOTH",
"207 58 OFFCURVE",
"108 95 OFFCURVE",
"92 211 CURVE",
"38 211 LINE",
"38 -5 LINE",
"100 -5 LINE",
"100 41 LINE SMOOTH",
"100 46 OFFCURVE",
"104 49 OFFCURVE",
"107 49 CURVE SMOOTH",
"111 49 OFFCURVE",
"114 48 OFFCURVE",
"118 46 CURVE",
"162 19 OFFCURVE",
"224 -10 OFFCURVE",
"335 -10 CURVE SMOOTH"
);
},
{
closed = 1;
nodes = (
"334 -315 OFFCURVE",
"419 -236 OFFCURVE",
"419 -150 CURVE SMOOTH",
"419 -83 OFFCURVE",
"381 -44 OFFCURVE",
"331 -44 CURVE SMOOTH",
"284 -44 OFFCURVE",
"255 -76 OFFCURVE",
"255 -111 CURVE SMOOTH",
"255 -155 OFFCURVE",
"300 -174 OFFCURVE",
"300 -218 CURVE SMOOTH",
"300 -263 OFFCURVE",
"275 -304 OFFCURVE",
"240 -340 CURVE",
"270 -366 LINE"
);
}
);
width = 667;
}
);
leftKerningGroup = S;
note = Scommaaccent;
rightKerningGroup = S;
unicode = 0218;
},
{
glyphname = Sdotaccent;
lastChange = "2015-10-12 09:09:53 +0000";
layers = (
{
layerId = "797EEC19-8AF9-42AE-A04D-6994BCC84E1F";
name = Bold;
paths = (
{
closed = 1;
nodes = (
"499 -10 OFFCURVE",
"629 47 OFFCURVE",
"629 199 CURVE SMOOTH",
"629 484 OFFCURVE",
"245 397 OFFCURVE",
"245 553 CURVE SMOOTH",
"245 614 OFFCURVE",
"308 642 OFFCURVE",
"364 642 CURVE SMOOTH",
"445 642 OFFCURVE",
"530 605 OFFCURVE",
"546 489 CURVE",
"600 489 LINE",
"600 705 LINE",
"538 705 LINE",
"538 666 LINE SMOOTH",
"538 659 OFFCURVE",
"538 654 OFFCURVE",
"533 654 CURVE SMOOTH",
"532 654 OFFCURVE",
"527 656 OFFCURVE",
"525 657 CURVE SMOOTH",
"483 679 OFFCURVE",
"426 710 OFFCURVE",
"318 710 CURVE SMOOTH",
"151 710 OFFCURVE",
"45 648 OFFCURVE",
"45 521 CURVE SMOOTH",
"45 263 OFFCURVE",
"429 336 OFFCURVE",
"429 165 CURVE SMOOTH",
"429 82 OFFCURVE",
"361 58 OFFCURVE",
"288 58 CURVE SMOOTH",
"207 58 OFFCURVE",
"108 95 OFFCURVE",
"92 211 CURVE",
"38 211 LINE",
"38 -5 LINE",
"100 -5 LINE",
"100 41 LINE SMOOTH",
"100 46 OFFCURVE",
"104 49 OFFCURVE",
"107 49 CURVE SMOOTH",
"111 49 OFFCURVE",
"114 48 OFFCURVE",
"118 46 CURVE",
"162 19 OFFCURVE",
"224 -10 OFFCURVE",
"335 -10 CURVE SMOOTH"
);
},
{
closed = 1;
nodes = (
"394 775 OFFCURVE",
"422 806 OFFCURVE",
"422 847 CURVE SMOOTH",
"422 887 OFFCURVE",
"394 920 OFFCURVE",
"349 920 CURVE SMOOTH",
"304 920 OFFCURVE",
"277 887 OFFCURVE",
"277 847 CURVE SMOOTH",
"277 806 OFFCURVE",
"304 775 OFFCURVE",
"349 775 CURVE SMOOTH"
);
}
);
width = 667;
}
);
leftKerningGroup = S;
note = Sdotaccent;
rightKerningGroup = S;
unicode = 1E60;
},
{
glyphname = Sdotbelow;
lastChange = "2015-10-12 09:09:53 +0000";
layers = (
{
layerId = "797EEC19-8AF9-42AE-A04D-6994BCC84E1F";
name = Bold;
paths = (
{
closed = 1;
nodes = (
"499 -10 OFFCURVE",
"629 47 OFFCURVE",
"629 199 CURVE SMOOTH",
"629 484 OFFCURVE",
"245 397 OFFCURVE",
"245 553 CURVE SMOOTH",
"245 614 OFFCURVE",
"308 642 OFFCURVE",
"364 642 CURVE SMOOTH",
"445 642 OFFCURVE",
"530 605 OFFCURVE",
"546 489 CURVE",
"600 489 LINE",
"600 705 LINE",
"538 705 LINE",
"538 666 LINE SMOOTH",
"538 659 OFFCURVE",
"538 654 OFFCURVE",
"533 654 CURVE SMOOTH",
"532 654 OFFCURVE",
"527 656 OFFCURVE",
"525 657 CURVE SMOOTH",
"483 679 OFFCURVE",
"426 710 OFFCURVE",
"318 710 CURVE SMOOTH",
"151 710 OFFCURVE",
"45 648 OFFCURVE",
"45 521 CURVE SMOOTH",
"45 263 OFFCURVE",
"429 336 OFFCURVE",
"429 165 CURVE SMOOTH",
"429 82 OFFCURVE",
"361 58 OFFCURVE",
"288 58 CURVE SMOOTH",
"207 58 OFFCURVE",
"108 95 OFFCURVE",
"92 211 CURVE",
"38 211 LINE",
"38 -5 LINE",
"100 -5 LINE",
"100 41 LINE SMOOTH",
"100 46 OFFCURVE",
"104 49 OFFCURVE",
"107 49 CURVE SMOOTH",
"111 49 OFFCURVE",
"114 48 OFFCURVE",
"118 46 CURVE",
"162 19 OFFCURVE",
"224 -10 OFFCURVE",
"335 -10 CURVE SMOOTH"
);
},
{
closed = 1;
nodes = (
"380 -211 OFFCURVE",
"408 -179 OFFCURVE",
"408 -138 CURVE SMOOTH",
"408 -98 OFFCURVE",
"380 -64 OFFCURVE",
"335 -64 CURVE SMOOTH",
"290 -64 OFFCURVE",
"262 -98 OFFCURVE",
"262 -138 CURVE SMOOTH",
"262 -179 OFFCURVE",
"290 -211 OFFCURVE",
"335 -211 CURVE SMOOTH"
);
}
);
width = 667;
}
);
leftKerningGroup = S;
note = Sdotbelow;
rightKerningGroup = S;
unicode = 1E62;
},
{
glyphname = Germandbls;
lastChange = "2015-10-12 09:09:52 +0000";
layers = (
{
layerId = "797EEC19-8AF9-42AE-A04D-6994BCC84E1F";
name = Bold;
paths = (
{
closed = 1;
nodes = (
"698 -10 OFFCURVE",
"766 91 OFFCURVE",
"766 209 CURVE SMOOTH",
"766 311 OFFCURVE",
"698 380 OFFCURVE",
"545 405 CURVE",
"684 548 LINE",
"660 625 OFFCURVE",
"564 710 OFFCURVE",
"398 710 CURVE SMOOTH",
"191 710 OFFCURVE",
"95 628 OFFCURVE",
"95 489 CURVE SMOOTH",
"95 85 LINE SMOOTH",
"95 59 OFFCURVE",
"79 46 OFFCURVE",
"41 46 CURVE SMOOTH",
"9 46 LINE",
"9 0 LINE",
"331 0 LINE",
"331 46 LINE",
"313 51 OFFCURVE",
"289 58 OFFCURVE",
"289 85 CURVE SMOOTH",
"289 536 LINE SMOOTH",
"289 606 OFFCURVE",
"330 643 OFFCURVE",
"392 643 CURVE SMOOTH",
"462 643 OFFCURVE",
"511 604 OFFCURVE",
"513 553 CURVE",
"343 381 LINE",
"343 347 LINE",
"453 347 LINE SMOOTH",
"532 347 OFFCURVE",
"573 290 OFFCURVE",
"573 209 CURVE SMOOTH",
"573 118 OFFCURVE",
"534 55 OFFCURVE",
"466 55 CURVE SMOOTH",
"435 55 OFFCURVE",
"399 59 OFFCURVE",
"364 68 CURVE",
"364 1 LINE",
"397 -7 OFFCURVE",
"433 -10 OFFCURVE",
"470 -10 CURVE SMOOTH"
);
}
);
width = 799;
}
);
note = uni1E9E;
unicode = 1E9E;
},
{
glyphname = Schwa;
lastChange = "2015-10-12 09:09:52 +0000";
layers = (
{
layerId = "797EEC19-8AF9-42AE-A04D-6994BCC84E1F";
name = Bold;
paths = (
{
closed = 1;
nodes = (
"623 -10 OFFCURVE",
"728 135 OFFCURVE",
"728 349 CURVE SMOOTH",
"728 586 OFFCURVE",
"595 710 OFFCURVE",
"362 710 CURVE SMOOTH",
"155 710 OFFCURVE",
"45 591 OFFCURVE",
"30 448 CURVE",
"97 448 LINE",
"123 575 OFFCURVE",
"202 624 OFFCURVE",
"320 624 CURVE SMOOTH",
"460 624 OFFCURVE",
"526 500 OFFCURVE",
"526 350 CURVE SMOOTH",
"526 206 OFFCURVE",
"480 80 OFFCURVE",
"370 80 CURVE SMOOTH",
"260 80 OFFCURVE",
"231 196 OFFCURVE",
"231 249 CURVE",
"557 249 LINE",
"557 337 LINE",
"28 337 LINE",
"28 292 LINE SMOOTH",
"28 125 OFFCURVE",
"121 -10 OFFCURVE",
"369 -10 CURVE SMOOTH"
);
}
);
width = 757;
}
);
note = uni018F;
unicode = 018F;
},
{
glyphname = T;
lastChange = "2015-10-12 09:09:51 +0000";
layers = (
{
layerId = "797EEC19-8AF9-42AE-A04D-6994BCC84E1F";
name = Bold;
paths = (
{
closed = 1;
nodes = (
"558 0 LINE",
"558 46 LINE",
"526 46 LINE SMOOTH",
"488 46 OFFCURVE",
"472 59 OFFCURVE",
"472 85 CURVE SMOOTH",
"472 634 LINE",
"599 634 LINE SMOOTH",
"663 634 OFFCURVE",
"677 485 OFFCURVE",
"678 452 CURVE",
"725 452 LINE",
"725 700 LINE",
"22 700 LINE",
"22 452 LINE",
"69 452 LINE",
"69 485 OFFCURVE",
"84 634 OFFCURVE",
"148 634 CURVE SMOOTH",
"275 634 LINE",
"275 85 LINE SMOOTH",
"275 59 OFFCURVE",
"259 46 OFFCURVE",
"220 46 CURVE SMOOTH",
"189 46 LINE",
"189 0 LINE"
);
}
);
width = 747;
}
);
leftKerningGroup = T;
note = T;
rightKerningGroup = T;
unicode = 0054;
},
{
glyphname = Tbar;
lastChange = "2015-10-12 09:09:52 +0000";
layers = (
{
layerId = "797EEC19-8AF9-42AE-A04D-6994BCC84E1F";
name = Bold;
paths = (
{
closed = 1;
nodes = (
"558 0 LINE",
"558 46 LINE",
"526 46 LINE SMOOTH",
"488 46 OFFCURVE",
"472 59 OFFCURVE",
"472 85 CURVE SMOOTH",
"472 634 LINE",
"599 634 LINE SMOOTH",
"663 634 OFFCURVE",
"677 485 OFFCURVE",
"678 452 CURVE",
"725 452 LINE",
"725 700 LINE",
"22 700 LINE",
"22 452 LINE",
"69 452 LINE",
"69 485 OFFCURVE",
"84 634 OFFCURVE",
"148 634 CURVE SMOOTH",
"275 634 LINE",
"275 85 LINE SMOOTH",
"275 59 OFFCURVE",
"259 46 OFFCURVE",
"220 46 CURVE SMOOTH",
"189 46 LINE",
"189 0 LINE"
);
},
{
closed = 1;
nodes = (
"608 271 LINE",
"608 354 LINE",
"141 354 LINE",
"141 271 LINE"
);
}
);
width = 747;
}
);
leftKerningGroup = T;
note = Tbar;
rightKerningGroup = T;
unicode = 0166;
},
{
glyphname = Tcaron;
lastChange = "2015-10-12 09:09:53 +0000";
layers = (
{
layerId = "797EEC19-8AF9-42AE-A04D-6994BCC84E1F";
name = Bold;
paths = (
{
closed = 1;
nodes = (
"558 0 LINE",
"558 46 LINE",
"526 46 LINE SMOOTH",
"488 46 OFFCURVE",
"472 59 OFFCURVE",
"472 85 CURVE SMOOTH",
"472 634 LINE",
"599 634 LINE SMOOTH",
"663 634 OFFCURVE",
"677 485 OFFCURVE",
"678 452 CURVE",
"725 452 LINE",
"725 700 LINE",
"22 700 LINE",
"22 452 LINE",
"69 452 LINE",
"69 485 OFFCURVE",
"84 634 OFFCURVE",
"148 634 CURVE SMOOTH",
"275 634 LINE",
"275 85 LINE SMOOTH",
"275 59 OFFCURVE",
"259 46 OFFCURVE",
"220 46 CURVE SMOOTH",
"189 46 LINE",
"189 0 LINE"
);
},
{
closed = 1;
nodes = (
"420 775 LINE",
"580 955 LINE",
"553 984 LINE",
"415 882 LINE SMOOTH",
"399 870 OFFCURVE",
"384 862 OFFCURVE",
"373 862 CURVE SMOOTH",
"362 862 OFFCURVE",
"347 870 OFFCURVE",
"331 882 CURVE SMOOTH",
"192 984 LINE",
"165 955 LINE",
"326 775 LINE"
);
}
);
width = 747;
}
);
leftKerningGroup = T;
note = Tcaron;
rightKerningGroup = T;
unicode = 0164;
},
{
glyphname = Tcedilla;
lastChange = "2015-10-12 09:09:53 +0000";
layers = (
{
layerId = "797EEC19-8AF9-42AE-A04D-6994BCC84E1F";
name = Bold;
paths = (
{
closed = 1;
nodes = (
"558 0 LINE",
"558 46 LINE",
"526 46 LINE SMOOTH",
"488 46 OFFCURVE",
"472 59 OFFCURVE",
"472 85 CURVE SMOOTH",
"472 634 LINE",
"599 634 LINE SMOOTH",
"663 634 OFFCURVE",
"677 485 OFFCURVE",
"678 452 CURVE",
"725 452 LINE",
"725 700 LINE",
"22 700 LINE",
"22 452 LINE",
"69 452 LINE",
"69 485 OFFCURVE",
"84 634 OFFCURVE",
"148 634 CURVE SMOOTH",
"275 634 LINE",
"275 85 LINE SMOOTH",
"275 59 OFFCURVE",
"259 46 OFFCURVE",
"220 46 CURVE SMOOTH",
"189 46 LINE",
"189 0 LINE"
);
},
{
closed = 1;
nodes = (
"367 -255 OFFCURVE",
"493 -245 OFFCURVE",
"493 -134 CURVE SMOOTH",
"493 -60 OFFCURVE",
"410 -39 OFFCURVE",
"374 -34 CURVE",
"419 34 LINE",
"353 34 LINE",
"282 -74 LINE",
"290 -86 LINE",
"313 -87 OFFCURVE",
"376 -99 OFFCURVE",
"376 -144 CURVE SMOOTH",
"376 -199 OFFCURVE",
"317 -211 OFFCURVE",
"248 -211 CURVE",
"248 -251 LINE",
"269 -254 OFFCURVE",
"283 -255 OFFCURVE",
"308 -255 CURVE SMOOTH"
);
}
);
width = 747;
}
);
leftKerningGroup = T;
note = Tcedilla;
rightKerningGroup = T;
unicode = 0162;
},
{
glyphname = Tcommaaccent;
lastChange = "2015-10-12 09:09:53 +0000";
layers = (
{
layerId = "797EEC19-8AF9-42AE-A04D-6994BCC84E1F";
name = Bold;
paths = (
{
closed = 1;
nodes = (
"558 0 LINE",
"558 46 LINE",
"526 46 LINE SMOOTH",
"488 46 OFFCURVE",
"472 59 OFFCURVE",
"472 85 CURVE SMOOTH",
"472 634 LINE",
"599 634 LINE SMOOTH",
"663 634 OFFCURVE",
"677 485 OFFCURVE",
"678 452 CURVE",
"725 452 LINE",
"725 700 LINE",
"22 700 LINE",
"22 452 LINE",
"69 452 LINE",
"69 485 OFFCURVE",
"84 634 OFFCURVE",
"148 634 CURVE SMOOTH",
"275 634 LINE",
"275 85 LINE SMOOTH",
"275 59 OFFCURVE",
"259 46 OFFCURVE",
"220 46 CURVE SMOOTH",
"189 46 LINE",
"189 0 LINE"
);
},
{
closed = 1;
nodes = (
"381 -354 OFFCURVE",
"462 -268 OFFCURVE",
"462 -182 CURVE SMOOTH",
"462 -115 OFFCURVE",
"423 -76 OFFCURVE",
"374 -76 CURVE SMOOTH",
"327 -76 OFFCURVE",
"298 -108 OFFCURVE",
"298 -143 CURVE SMOOTH",
"298 -187 OFFCURVE",
"343 -205 OFFCURVE",
"343 -250 CURVE SMOOTH",
"343 -295 OFFCURVE",
"318 -335 OFFCURVE",
"283 -371 CURVE",
"312 -398 LINE"
);
}
);
width = 747;
}
);
leftKerningGroup = T;
note = Tcommaaccent;
rightKerningGroup = T;
unicode = 021A;
},
